<svg xmlns="http://www.w3.org/2000/svg" xmlns:xlink="http://www.w3.org/1999/xlink" viewBox="0 0 4680 3120"><defs><style>.cls-1{fill:none;}.cls-2{fill:#913d1c;}.cls-3,.cls-6{fill:#fff;}.cls-3{opacity:0;}.cls-4{fill:#b4b2e3;}.cls-5{fill:#e7e6f6;}.cls-7{fill:#1f32a0;}.cls-8{fill:#080849;}.cls-9{fill:#d82762;}.cls-10{clip-path:url(#clip-path);}.cls-11{opacity:0.3;}.cls-12{clip-path:url(#clip-path-2);}.cls-13{fill:#dbdbdb;}.cls-14{clip-path:url(#clip-path-3);}.cls-15{fill:#ff85b4;}.cls-16{opacity:0.5;}.cls-17{fill:#fc966a;}.cls-18{clip-path:url(#clip-path-4);}.cls-19{fill:#7a2d15;}.cls-20{fill:#662210;}.cls-21{fill:#ffc1af;}.cls-22{clip-path:url(#clip-path-5);}.cls-23{fill:#060946;}.cls-24{fill:#979edd;}.cls-25{fill:#2b39ff;}.cls-26{fill:#2a3cfd;}.cls-27{clip-path:url(#clip-path-6);}.cls-28{fill:#fab953;}.cls-29{fill:#ef9d30;}.cls-30{clip-path:url(#clip-path-7);}.cls-31{clip-path:url(#clip-path-8);}.cls-32{clip-path:url(#clip-path-9);}.cls-33{fill:#8f8fc1;}.cls-34{clip-path:url(#clip-path-10);}.cls-35{clip-path:url(#clip-path-11);}.cls-36{fill:#bc4520;}.cls-37{clip-path:url(#clip-path-12);}.cls-38{fill:#9e381d;}.cls-39{opacity:0.4;}.cls-40{clip-path:url(#clip-path-13);}.cls-41{clip-path:url(#clip-path-14);}.cls-42{fill:#f46938;}.cls-43{clip-path:url(#clip-path-15);}.cls-44{clip-path:url(#clip-path-16);}.cls-45{clip-path:url(#clip-path-17);}.cls-46{fill:#9b3418;}.cls-47{clip-path:url(#clip-path-18);}.cls-48{clip-path:url(#clip-path-19);}.cls-49{clip-path:url(#clip-path-20);}.cls-50{clip-path:url(#clip-path-21);}.cls-51{fill:#6b220f;}.cls-52{clip-path:url(#clip-path-22);}.cls-53{clip-path:url(#clip-path-23);}</style><clipPath id="clip-path"><path class="cls-1" d="M2675.77,1503.4l-29.64,1138.17-211.33-3.71s-3.71-411.51-3.71-437.46,3.71-441.18,3.71-441.18-26,159.43-33.37,241,11.12,411.54,3.71,585.77c-32.85,14.21-62.09,22-87.55,25.73-80.9,11.71-123.78-18.32-123.78-18.32s-22.37-451.18-26.08-588.36,85.4-586.86,85.4-586.86Z"/></clipPath><clipPath id="clip-path-2"><path class="cls-1" d="M2398.42,844.13S2382,954.54,2377,1099.54s-126.88,390.53-126.88,390.53,14.83,74.15,143.36,67.56,295-62.61,295-62.61L2644,895.22S2523.66,761.74,2398.42,844.13Z"/></clipPath><clipPath id="clip-path-3"><path class="cls-1" d="M2383.59,1112.73c.71,27.75-10.58,106.6-29.89,191.85-25.33,112-64.53,235.13-108.53,267.88-77.44,57.67-57.66,34.61-57.66,34.61l28-140.08s-108.75,23.09-95.56-107.09,54.38-164.79,61-225.74,13.2-151.62,47.8-179.62c12.7-10.28,38.78-26.57,66.66-43.08,48-28.43,101.42-57.45,101.42-57.45S2382,1048.46,2383.59,1112.73Z"/></clipPath><clipPath id="clip-path-4"><path class="cls-1" d="M2508.83,596.14s-59.32-28.42-114.94,12.36-44.49,90.22-37.07,98.87-81.57,59.32,54.38,79.09,231.1-40.78,231.1-40.78S2685.55,572.66,2508.83,596.14Z"/></clipPath><clipPath id="clip-path-5"><path class="cls-1" d="M2637.82,745.14c-12.54-8.75-29.57-7.31-43.37,2.16a75.79,75.79,0,0,0-9-14s-48.2,1.24-56.85-12.36,0,16.07,0,16.07-25.95,18.54-40.78-13.6-29.66-48.19-35.84-30.89c0,0-23.48,21-64.27,24.71s-24.64,190,101.34,182.91c65.5-3.71,91.46-51.91,91.46-51.91a123,123,0,0,0,15.87-24.43c15.89,4.21,34.93-3.45,46.56-20.12C2657.19,783.26,2654.9,757,2637.82,745.14Z"/></clipPath><clipPath id="clip-path-6"><path class="cls-1" d="M2444.74,847.8s23.69,10.55,45.06.11,19.76,28.83-10.37,29.19S2446.7,857.78,2444.74,847.8Z"/></clipPath><clipPath id="clip-path-7"><path class="cls-1" d="M2737.88,1470.31s54,82.38,19.35,57.66c-52.74-3.29-144.59,52.72-171,37.89s-36.24-87.32-36.24-87.32-90.64-24.72-136.78-75.81c29.66-31.29,46.14-125.22,46.14-125.22l84.76,14.61L2555,1294s16.47-154.88,37.9-232.34,16.48-199.37,16.48-199.37,54.92,38.31,110.24,84.65c53.51,44.84,107.35,97.14,112.21,129.55,9.89,65.92-56,314.74-65.92,346S2737.88,1470.31,2737.88,1470.31Z"/></clipPath><clipPath id="clip-path-8"><path class="cls-1" d="M2454.45,1294s-6.59-19.77-23.07-44.49-28.47-43.88-33.78-27.19c-5.77,18.13,10.71,43.67,10.71,43.67s-56.85,4.12-94.75,32.13,45.32,9.07,45.32,9.07-55.28,12.48-44.08,25.54c7.41,8.65,35.72,1.58,47.76,3a2.1,2.1,0,0,1,.34,4.11c-15.83,4.51-38.92,6.65-30.39,15.18,7.42,7.42,28.18,4.77,36.24,5.91a1.18,1.18,0,0,1,.22,2.29c-9.3,3.29-28.08,10.69-16.68,13.22,14.83,3.3,65.91,19.78,65.91,19.78S2454.45,1341.77,2454.45,1294Z"/></clipPath><clipPath id="clip-path-9"><path class="cls-1" d="M2178.42,1436.62c12,4.45,25.45-1.4,30.91-13,5.24-11.08,9.27-24.15,1.7-28.17-13.9-7.39-26.2,21.52-26.2,21.52s10.16-33.42,7.32-48.32-23.43,2-30.38,20.25,27.87-38.57,17.81-41.27-40,21.88-40,21.88,31.48-22.72,25.5-31.91-45.32,5.88-48.69,22.76,17.94,27.57,21.12,39.07,32,33.25,39.43,36.56C2177.41,1436.23,2177.9,1436.43,2178.42,1436.62Z"/></clipPath><clipPath id="clip-path-10"><path class="cls-1" d="M2929.8,1333.65,2926,1973.29a86.34,86.34,0,0,0,82.93,86.8l538.81,21.41a86.36,86.36,0,0,0,89.79-85.85L3641.3,1249a86.36,86.36,0,0,0-99.91-85.73l-538.79,85.64A86.36,86.36,0,0,0,2929.8,1333.65Z"/></clipPath><clipPath id="clip-path-11"><path class="cls-1" d="M3277.88,1698.74s-156.41,7.45-216,29.79-156.41,193.65-156.41,193.65l-147.1-57.72s-16.76,95-65.17,104.27c81.93,95,173.17,199.23,247.65,180.61s117.3-74.48,117.3-74.48l11.18,176.89s224.68,89.38,403.43-9.31c5.58-130.34,17.38-219.71,17.38-219.71s63.3,81.92,65.17,98.68S3451,2298.92,3451,2298.92s24.21,75.72,98.69,75.72c62.69-28.55,219.72-199.23,204.82-310.95s-165.72-311-255.09-337S3277.88,1698.74,3277.88,1698.74Z"/></clipPath><clipPath id="clip-path-12"><path class="cls-1" d="M3362.91,1341.86s-17.38-42.21-60.83-42.21-103,32.27-145.23,31-78.2,150.2-12.41,167.58,232.12,98.07,232.12,98.07,33.52-16.14,49.66-50.9c-17.38,55.86-68.28,44.69-73.24,100.55s84.41,77,50.89,127.86,65.79,67,65.79,67l52.14-23.58s52.14-54.62,18.62-91.86-63.31-67-27.31-134.07c28.83-53.68,74.48-217.23-75.72-194.89C3428.7,1345.58,3362.91,1341.86,3362.91,1341.86Z"/></clipPath><clipPath id="clip-path-13"><path class="cls-1" d="M3337.41,1609.78l0-1.8a68.52,68.52,0,0,0,16.07-.4c29.64-4.3,50.9-26.92,47.49-50.55s-30.23-39.29-59.9-35a67.56,67.56,0,0,0-12.29,3c-15.67-17.67-42.7-56.13-37.52-106.48,0,0-19,7.29-53.92,8.55-9.6-11.59-9-19.76-7.53-23.94a.83.83,0,0,0-1.26-1c-11,8-49.1,34.64-66.95,31.07-21-4.21-40.45,49.27-39.47,110,.47,29.17,7.56,55.61,23.31,75.43a.13.13,0,0,1,.07.06c17,21.46,44.28,35.13,84.34,36.07-2.68,23-9.21,35-11.81,45.49l-5.36,5.2-38.48,2.48,11.17,122.89,149,5,53-126.28-46.77-22.06Z"/></clipPath><clipPath id="clip-path-14"><path class="cls-1" d="M3244.44,1575.05s-37.94,9.58-60.46-3.63c-4.2-2.46-10.5-.53-11.52,3.54-9.1,36.39,29.88,49.73,56,33.9C3246.3,1598,3253.79,1579.89,3244.44,1575.05Z"/></clipPath><clipPath id="clip-path-15"><path class="cls-1" d="M1914.68,700.05l3.38,569.74a76.92,76.92,0,0,1-73.87,77.31l-479.93,19.07a76.92,76.92,0,0,1-80-76.47l-3.34-665.09a76.92,76.92,0,0,1,89-76.35l479.9,76.28A76.91,76.91,0,0,1,1914.68,700.05Z"/></clipPath><clipPath id="clip-path-16"><path class="cls-1" d="M1637.52,1015.11s59,28.68,67.49,38.81,25.3,133.28,30.36,259.81,16.88,303.68,16.88,303.68-123.16,6.75-145.1,0c-1.68-59.05-47.08-510.13-84.2-567.49C1571.88,1019.55,1637.52,1015.11,1637.52,1015.11Z"/></clipPath><clipPath id="clip-path-17"><path class="cls-1" d="M1567,714.45s18.55-62.07,108.52-57c83.51,4.75,56.72,55.77,56.72,55.77s54.26-5.93,71.52,36.79-13.56,66.45-28.36,68.82-272.52,70-272.52,70S1389.45,746.49,1567,714.45Z"/></clipPath><clipPath id="clip-path-18"><path class="cls-1" d="M1531.38,933.17c10.49,2.39,14.88,5.19,23.69,1.55l-21.65,109.94s55.12,46.69,86.6,52.29,73.12-31.48,56.25-45c-4.66-3.74-8-10.66-10.29-18.72-3.11-10.73-4.46-23.52-5-33.44a110.39,110.39,0,0,0,21.29-.64c62.93-8.14,97.75-67.83,93.43-135-1.35-21.19-.91-32.36-6.21-46.43,0,0-37.58,8.54-45.51-21.46s-1-12.75-27.81,10.46-49.33,4.89-49.33,4.89l-.47-22S1633,816.79,1607.1,822c-25.48,5.06-51.9,35.77-52.37,35.77a46.78,46.78,0,0,0-5.87-1.72c-24.4-5.54-48.08,7.25-52.91,28.58S1507,927.63,1531.38,933.17Z"/></clipPath><clipPath id="clip-path-19"><path class="cls-1" d="M1713.61,937.18s-28.21,10.52-46.16-1.78a5.51,5.51,0,0,0-8.53,3.82c-4.59,35.95,27.6,33.67,42.48,28.68C1717.56,962.47,1721,941.65,1713.61,937.18Z"/></clipPath><clipPath id="clip-path-20"><path class="cls-1" d="M1990.08,1807.47l3.37,569.73a76.92,76.92,0,0,1-73.86,77.32l-479.93,19.07a76.92,76.92,0,0,1-80-76.47L1356.34,1732a76.92,76.92,0,0,1,89-76.35L1925.24,1732A76.91,76.91,0,0,1,1990.08,1807.47Z"/></clipPath><clipPath id="clip-path-21"><path class="cls-1" d="M1647.8,2037.34s43.81,0,58.41-64.15,80.31-28.86,80.31-28.86,42,70,112.26-1.75c-36.51,0-42.89-14.87-48.37-34.12s-36.51-110.21-131.42-98-124.12,71.72-124.12,71.72-52.94-1.75-71.19,52.48,29.21,96.22,7.3,131.21-62.06,45.48-40.15,98,38.33,84,16.42,103.21-69.36,38.49-67.53,136.45l45.63,5.25,10.34-36.74,9.74,40.24,18.25,3.5,315.78-12.25s21.9-84,1.82-155.69-58.41-131.21-100.39-134.71S1647.8,2037.34,1647.8,2037.34Z"/></clipPath><clipPath id="clip-path-22"><path class="cls-1" d="M1760.37,2160.39c-3,0-5.95-.17-8.87-.42,2.34,12.35,7.15,25.93,13.21,39.43,19,42.93,49.8,85.2,49.8,85.2s-30.41,2.31-73,9.31c-29.21-59.48-70.57-85.13-99.77-100.28,7.74-14.84,8.57-52.73,8.17-78.37a53.67,53.67,0,0,1-19.75,3.71c-26.54,0-48.08-18.79-48.08-42s21.54-42,48.08-42a54.05,54.05,0,0,1,17.67,3c0-.21,0-.42,0-.63,0,0,51.1-16.9,63.88-71.13s39.25-40.24,39.25-40.24,35.59-17.49,49.28,21c9.49,26.63,39.06,28.13,56.4,26.53a131,131,0,0,1,16.32,63.85C1872.92,2105.29,1822.54,2160.39,1760.37,2160.39Z"/></clipPath><clipPath id="clip-path-23"><path class="cls-2" d="M1816.81,2089.59a4.36,4.36,0,0,0-5.64-3.57c-5.47,1.56-17.17,3.32-41.68,2.63-41.37-1.16-7.91,44.9,23.73,33.24C1815.7,2113.6,1817.6,2098,1816.81,2089.59Z"/></clipPath></defs><title>04</title><g id="_04" data-name="04"><rect id="_04-2" data-name="04" class="cls-3" width="4680" height="3120"/><ellipse class="cls-4" cx="2713.46" cy="2678.82" rx="645.6" ry="70.69"/><path class="cls-5" d="M3528.2,1218.24a591.52,591.52,0,0,1-144.74-286.13h0a591.42,591.42,0,0,0-379-442.18l-261.16-94.58a591.41,591.41,0,0,0-497.47,44.1l-970.74,561.39c-261.46,151.2-367,475.11-244.76,751.31l130.19,294.2a591.43,591.43,0,0,0,531.9,352l1305.17,19.73a591.41,591.41,0,0,0,514.53-284.5l110.41-181.91a591.42,591.42,0,0,0-70-706.89Z"/><path class="cls-6" d="M3508.09,1399.74a526.5,526.5,0,0,0-93.86-143.26l-21.65-23.57a521.48,521.48,0,0,1-127.65-252.35,527.63,527.63,0,0,0-338.08-394.48L2695.2,502.19a527.64,527.64,0,0,0-443.8,39.34l-861.09,498,1.5,2.6-1.5-2.6A527.62,527.62,0,0,0,1172,1709.75l115.49,261a527.59,527.59,0,0,0,474.51,314l1157.73,17.5q4,.06,7.93.06a527.62,527.62,0,0,0,451.09-253.86l97.94-161.37a527.84,527.84,0,0,0,31.44-487.36Zm26.66,327.17A520.33,520.33,0,0,1,3471.52,1884l-97.94,161.36a521.59,521.59,0,0,1-446,251c-2.6,0-5.23,0-7.84-.06l-1157.73-17.5a521.65,521.65,0,0,1-469.12-310.47l-115.48-261a521.61,521.61,0,0,1,215.87-662.62l861.08-498a518,518,0,0,1,215.07-68q23.43-2.07,46.7-2.07a517.45,517.45,0,0,1,177,31.21l231.66,83.9a521.6,521.6,0,0,1,334.23,390A527.42,527.42,0,0,0,3388.16,1237l21.65,23.57a521.84,521.84,0,0,1,124.94,466.37Z"/><path class="cls-7" d="M2641,2639.56l-9.81-22.06H2440.85l-4,65.33-3.36,54.8a21.08,21.08,0,0,0,21,22.37h207.64a21.08,21.08,0,0,0,19.26-29.64Z"/><path class="cls-7" d="M2414.16,2625.33l-15.54-69.69-187.94,30-14.3,14.88-124,129.11c-8.15,8.5-.81,22.49,10.81,20.64L2416.79,2697a12.27,12.27,0,0,0,10-14.81Z"/><path class="cls-8" d="M2592.87,1568.75l12.35,82.81s24.72-17.31,93.93-56.85,69.21-60.56,69.21-60.56C2742.4,1467.41,2592.87,1568.75,2592.87,1568.75Z"/><path class="cls-9" d="M2167.73,2005c3.71,137.18,26.08,588.36,26.08,588.36s42.88,30,123.78,18.32c25.46-3.71,54.7-11.52,87.55-25.73,7.42-174.23-11.12-504.2-3.71-585.77s33.37-241,33.37-241-3.71,415.22-3.71,441.18,3.71,437.46,3.71,437.46l211.33,3.71,29.64-1138.17-422.64-85.25S2164,1867.83,2167.73,2005Z"/><g class="cls-10"><g class="cls-11"><path d="M2505.26,1403.46l-33.15,33.17a433.65,433.65,0,0,1,47.28,139.6c2.72,17.35,4.46,35.16,11.56,51.22s20.9,30.46,38.32,32.71c26.7,3.46,47.6-20.8,67.13-39.33a211.92,211.92,0,0,1,109.6-54.77c21.27-3.61,46.28-5.79,57.85-24,12.26-19.31,1.52-44.86-12-63.33C2728.88,1392.35,2602.58,1359.19,2505.26,1403.46Z"/></g><g class="cls-11"><path d="M2292.55,1392.08c-21.18-10.8-48.26-.59-63.87,17.35s-22.35,41.71-28.23,64.75q-21.43,84-35.33,169.74c-.62,3.83-1.19,8,.61,11.41,2.33,4.47,7.79,6.2,12.76,7.07,30.94,5.39,62.93-6.65,87.81-25.81s43.74-44.92,61.64-70.72c31.52-45.44,62.3-96.3,59.5-151.53Z"/></g><g class="cls-11"><polygon points="2566.46 1473.69 2570.53 2060.1 2547.73 2667.45 2551.73 2667.6 2574.52 2060.16 2570.46 1473.66 2566.46 1473.69"/></g></g><path class="cls-6" d="M2398.42,844.13S2382,954.54,2377,1099.54s-126.88,390.53-126.88,390.53,14.83,74.15,143.36,67.56,295-62.61,295-62.61L2644,895.22S2523.66,761.74,2398.42,844.13Z"/><g class="cls-12"><path class="cls-13" d="M2859.65,949.74c-14.16-11.32-34.45-10.63-52.41-6.66-59.59,13.17-109.68,55.34-153.13,99.93s-83.77,93.68-135.61,127.44c-79.54,51.8-183.09,61.22-267.58,24.34l-64.38,5.33c-42.16,13.73-80.43,40.87-108,76.6-17.57,22.75-31.25,50.78-28.5,79.08,3.24,33.3,28.15,59.29,54.17,78.94,55.55,42,98.89,112.24,164.31,136,42.71,15.51,108.14-14.31,151.17.35,26,8.87,52.65,17.7,80.36,18,67.22.61,127.15-49.46,166.26-106.69,26.45-38.71,46.38-81.47,66.16-124,49.25-105.84,98.63-212,134.54-323C2876.49,1006,2882.92,968.35,2859.65,949.74Z"/></g><path class="cls-9" d="M2295.37,911.46c-27.88,16.51-54,32.8-66.66,43.08-34.6,28-41.2,118.64-47.8,179.62s-47.78,95.55-61,225.74S2215.51,1467,2215.51,1467l-28,140.08s-19.78,23.06,57.66-34.61c44-32.75,83.2-155.84,108.53-267.88,19.31-85.25,30.6-164.1,29.89-191.85-1.64-64.27,13.2-258.72,13.2-258.72S2343.37,883,2295.37,911.46Z"/><g class="cls-14"><path class="cls-15" d="M2261.07,1503.28c-23.78,39.62-54.51,78.74-98.29,93.53l-30.12,29.71c4,23.14,31.08,36.43,54.33,33.14s42.88-18.54,60.28-34.3c65.36-59.21,117.57-135.66,136.14-221.87,7.75-36,9.58-72.9,11.38-109.65,5.28-107.87,10.57-215.93,5.55-323.82C2379.4,1154.05,2356.37,1344.47,2261.07,1503.28Z"/></g><g class="cls-11"><path d="M2295.37,911.46l-4,125.46,42.83-3.29-42.83,36.26s19.77,123.59,57.66,222.45c1.66,4.31,3.22,8.38,4.72,12.24,19.31-85.25,30.6-164.1,29.89-191.85-1.64-64.27,13.2-258.72,13.2-258.72S2343.37,883,2295.37,911.46Z"/></g><g class="cls-16"><path class="cls-8" d="M2434.75,990.61a.77.77,0,0,1,.53-.19c.21,0,.15,0,.1,0a4.25,4.25,0,0,1-.37-.37l-.19.47Z"/><path class="cls-8" d="M2439.68,982.33a28.69,28.69,0,0,0-3.37,4.87A23.84,23.84,0,0,0,2435,990l0,.08a4.25,4.25,0,0,0,.37.37s.11,0-.1,0a.77.77,0,0,0-.53.19h0l.07-.1.19-.47a9.44,9.44,0,0,1-1-1.35c-.46-.73-.9-1.53-1.31-2.34-.83-1.62-1.62-3.3-2.35-5-1.48-3.42-2.82-6.92-4.11-10.45q-3.91-10.56-7.35-21.33c-2.37-7.15-4.61-14.34-6.78-21.55s-4.29-14.45-6.37-21.7-4-14.52-5.76-21.85c-.9-3.65-1.71-7.33-2.4-11-.35-1.85-.65-3.7-.86-5.57-.11-.93-.19-1.87-.22-2.8a9.42,9.42,0,0,1,.27-2.8,9.76,9.76,0,0,0-.57,2.79c-.08,1-.09,1.9-.09,2.85,0,1.9.18,3.8.37,5.69.37,3.78,1,7.53,1.58,11.27,1.31,7.47,2.89,14.88,4.66,22.24s3.73,14.68,5.75,22,4.3,14.52,6.62,21.73,4.86,14.36,7.62,21.44c1.39,3.53,2.84,7,4.45,10.53.8,1.73,1.64,3.47,2.59,5.17.49.85,1,1.7,1.57,2.54.3.42.6.84,1,1.26a6.63,6.63,0,0,0,1.38,1.26,3.07,3.07,0,0,0,1.41.5,2.39,2.39,0,0,0,1.8-.7,3.27,3.27,0,0,0,.7-1.08l.28-.76a19.7,19.7,0,0,1,1-2.43,30.12,30.12,0,0,1,2.86-4.58,55,55,0,0,1,7.61-8,122.58,122.58,0,0,1,18.3-13.13,99.79,99.79,0,0,0-19.55,11.63A55.09,55.09,0,0,0,2439.68,982.33Z"/></g><path class="cls-17" d="M2423.14,872.15s28,42.84,49.44,54.37,21.42,37.9,21.42,37.9,4.94-29.66,24.71-37.9,64.27-39.54,70.86-84S2423.14,872.15,2423.14,872.15Z"/><path class="cls-2" d="M2508.83,596.14s-59.32-28.42-114.94,12.36-44.49,90.22-37.07,98.87-81.57,59.32,54.38,79.09,231.1-40.78,231.1-40.78S2685.55,572.66,2508.83,596.14Z"/><g class="cls-18"><path class="cls-19" d="M2661.3,687.84a8.83,8.83,0,0,0-.4-5.27C2661,684.33,2661.17,686.08,2661.3,687.84Z"/><path class="cls-20" d="M2613.86,694.1c-8.36-1.21-17.19-2.06-24.14-6.86-8.47-5.85-12.35-16.29-19.22-24-7.9-8.83-19.61-13.63-31.38-15a89.21,89.21,0,0,0-23.36.66l-.43-.22c18.53-12.48,45.52-11.59,63.1,2.6,14.15,11.42,22.33,29.65,38.14,38.62,12.52,7.11,27.86,7.16,42.07,4.9-10.63.45-20.28-6.61-26.77-15s-10.71-18.4-16.63-27.24a84.06,84.06,0,0,0-34.44-29.35c-15.71-7.23-35.41-9-49.52,1-8.13,5.76-13.36,14.6-17.6,23.71a34.1,34.1,0,0,0-9.06-2.65c3.49-15.2,15-28.31,29.25-35.09,16.35-7.79,35.6-7.95,53.1-3.3,13.38,3.56,26.34,10.08,35.32,20.61,11.23,13.15,15.51,31.53,28.13,43.34,3-24,4.79-50.23-8.05-70.79-10.32-16.53-29.08-26.76-48.4-29.3s-39.08,2-56.81,10.08c-8.43,3.84-16.67,8.61-22.72,15.63a50.64,50.64,0,0,0-10,19.35c.07-14.7-10.46-28.69-24-35.09-14.94-7.07-32.49-6.38-48.56-2.52a134.61,134.61,0,0,0-79.51,55.3A121.83,121.83,0,0,1,2422,604.57c15.69-1.19,32,.83,45.79,8.37,11.51,6.28,21,16.77,25.05,29.12a41.81,41.81,0,0,0-13.64-7c-17.44-5.4-36.47-1.24-53.37,5.65s-32.68,16.44-49.92,22.41-36.95,8.07-53.31,0c7.61,10.41,21.09,14.67,33.88,16.29a124.76,124.76,0,0,0,81.76-18.29c8.31-5.28,16.2-11.64,25.66-14.36a36.78,36.78,0,0,1,20.12.08,63.45,63.45,0,0,0-11.34,4.35c-14.93,7.43-27.4,19.05-42.07,27C2411.7,688.33,2390,692,2368.53,693.8c-8.3.72-16.72,1.21-24.63,3.83-10.41,3.44-19.32,10.4-27.08,18.15-10.89,10.87-20.38,24.87-19.76,40.24.54,13.65,9.19,26,20.24,34s24.32,12.35,37.5,15.92a437.23,437.23,0,0,0,170.73,11.51c44.38-5.81,90.48-20.15,119.42-54.29,10-11.73,17.76-27.61,12.84-42.19C2652,703.85,2631.79,696.67,2613.86,694.1Z"/></g><path class="cls-21" d="M2637.82,745.14c-12.54-8.75-29.57-7.31-43.37,2.16a75.79,75.79,0,0,0-9-14s-48.2,1.24-56.85-12.36,0,16.07,0,16.07-25.95,18.54-40.78-13.6-29.66-48.19-35.84-30.89c0,0-23.48,21-64.27,24.71s-24.64,190,101.34,182.91c65.5-3.71,91.46-51.91,91.46-51.91a123,123,0,0,0,15.87-24.43c15.89,4.21,34.93-3.45,46.56-20.12C2657.19,783.26,2654.9,757,2637.82,745.14Z"/><g class="cls-22"><path class="cls-17" d="M2562.18,699c-20.67-6.43-43-10.15-60.06-23.54-8.09-6.37-14.67-14.73-23.69-19.7-16.59-9.14-37.39-4.69-54.73,2.93-25,11-47.88,28.93-59.37,53.65-1.94,4.18-3.58,8.75-2.9,13.31s4.35,9,9,9l-8.49,10.33c15.41-13.64,39.23-7.77,59.49-11.45A61.27,61.27,0,0,0,2454.09,716c1.17-1.21,2.44-2.54,4.11-2.73,1.85-.2,3.51,1.09,4.87,2.36,8.24,7.75,14,18,22.7,25.16,9.07,7.48,20.78,11.16,32.46,12.52,8.69,1,17.93.71,25.56-3.58,3.47-2,6.54-4.71,10.32-6,6.83-2.26,14.31.88,20.16,5.07s11,9.54,17.48,12.6a16.51,16.51,0,0,0,7.95,1.8c5.37-.34,10-4.62,11.79-9.68s1.26-10.73-.38-15.85C2604.52,717.08,2582.85,705.41,2562.18,699Z"/><path class="cls-17" d="M2367,774.91l.08-1.21A8.2,8.2,0,0,0,2367,774.91Z"/><path class="cls-17" d="M2591.6,786.07c-4.9-3.7-10.9-5.59-16.85-7.1-60.18-15.2-123,3.4-184.93,7.78-5,.35-10.28.58-14.93-1.36-4.28-1.79-7.88-5.95-7.86-10.48l-2.2,32.68c4.78,13.48,19.06,21.48,33.12,24.12s28.55,1.15,42.82,2.1c13.4.89,26.56,3.93,39.91,5.49a181.74,181.74,0,0,0,101-17.54c8.48-4.2,17.62-10.59,18.13-20C2600.17,795.59,2596.5,789.76,2591.6,786.07Z"/></g><polygon class="cls-23" points="2504.59 764.86 2532.63 826.58 2616.84 791.1 2614.17 753.74 2504.59 764.86"/><polygon class="cls-24" points="2607.78 754.39 2609.96 784.93 2529.17 818.97 2532.63 826.58 2616.84 791.1 2614.17 753.74 2607.78 754.39"/><path class="cls-25" d="M2537.29,733.48,2398,727.74c-.33,0-.66,0-1,0a41.84,41.84,0,0,0-8.74.7,42.63,42.63,0,0,0-5.76,1.49,36.06,36.06,0,0,0-10.43,5.45,31.05,31.05,0,0,0-3,2.49,27.72,27.72,0,0,0-3.34,3.8,24.51,24.51,0,0,0-5.05,14l-1.48,39.36c-.61,16.23,15.1,30.09,35.11,30.91l126.51,5.19,10.7.43,2,.09a36.17,36.17,0,0,0,5.22-.12,41.23,41.23,0,0,0,13.9-3.45,35.3,35.3,0,0,0,4.35-2.31,32.45,32.45,0,0,0,4.36-3.21c5.66-4.93,9.23-11.5,9.49-18.84l1.48-39.35C2573,748.14,2557.27,734.3,2537.29,733.48Z"/><path class="cls-6" d="M2372.1,735.37l166.72,96.19a41.23,41.23,0,0,0,13.9-3.45l-170.19-98.19A36.06,36.06,0,0,0,2372.1,735.37Z"/><path class="cls-6" d="M2365.79,741.66l155.09,89.5,10.7.43-162.45-93.73A27.72,27.72,0,0,0,2365.79,741.66Z"/><path class="cls-6" d="M2388.29,728.43l168.78,97.37a32.45,32.45,0,0,0,4.36-3.21L2397,727.73A41.84,41.84,0,0,0,2388.29,728.43Z"/><polygon class="cls-23" points="2511.35 830.77 2511.36 830.77 2507.02 830.59 2511.35 830.77"/><path class="cls-23" d="M2537.28,733.47l-22.25-.91c20,.82,35.72,14.66,35.11,30.91l-1.47,39.36c-.61,16.25-17.31,28.76-37.31,27.94l22.24.91c20,.83,36.71-11.68,37.32-27.93l1.47-39.36C2573,748.14,2557.28,734.3,2537.28,733.47Z"/><ellipse class="cls-26" cx="2623.96" cy="765.88" rx="44.6" ry="31.42" transform="translate(1796.02 3370.92) rotate(-88.64)"/><path class="cls-24" d="M2628.47,745.3c-8-.19-14.78,8.91-15,20.33s6,20.83,14.07,21,14.79-8.91,15.06-20.33S2636.52,745.49,2628.47,745.3Z"/><path class="cls-23" d="M2629,721.79a22.32,22.32,0,0,0-4-.5c-17.35-.41-31.88,19.22-32.47,43.84s13,44.92,30.35,45.33a22.63,22.63,0,0,0,4-.31c-15.38-3.18-26.88-22.15-26.34-44.83S2613.53,724.24,2629,721.79Z"/><path class="cls-2" d="M2489.8,847.91c-21.37,10.44-45.06-.11-45.06-.11,2,10,4.56,29.67,34.69,29.3S2511.16,837.47,2489.8,847.91Z"/><g class="cls-27"><ellipse class="cls-6" cx="2468.04" cy="842.49" rx="44.9" ry="19.77"/></g><g class="cls-16"><path class="cls-8" d="M2604.64,870.08c-.11.93-.27,1.86-.46,2.78-.37,1.84-.84,3.66-1.35,5.47q-1.53,5.43-3.37,10.78c-2.39,7.14-5,14.2-7.67,21.25s-5.4,14.07-8.26,21-5.67,14-8.66,20.87-6,13.81-9.2,20.6c-1.6,3.39-3.25,6.76-5,10-.89,1.63-1.81,3.24-2.78,4.79-.49.77-1,1.52-1.52,2.21a9.24,9.24,0,0,1-1.1,1.25l.15.49,0,.11h0a.74.74,0,0,0-.51-.24c-.2,0-.15,0-.1,0a2.21,2.21,0,0,0,.41-.34l0-.08a22.5,22.5,0,0,0-1-2.86,29.11,29.11,0,0,0-2.93-5.14,55.1,55.1,0,0,0-7.67-8.64,100.47,100.47,0,0,0-18.45-13.32,122.72,122.72,0,0,1,17.07,14.71,54.15,54.15,0,0,1,6.87,8.68,29.84,29.84,0,0,1,2.45,4.81,20.62,20.62,0,0,1,.78,2.5l.21.8a3.48,3.48,0,0,0,.6,1.13,2.37,2.37,0,0,0,1.74.85,2.93,2.93,0,0,0,1.44-.37,6.67,6.67,0,0,0,1.49-1.14,14.09,14.09,0,0,0,1.06-1.16c.65-.79,1.23-1.59,1.79-2.39,1.1-1.62,2.08-3.27,3-4.93,1.91-3.32,3.66-6.7,5.37-10.09,3.37-6.81,6.46-13.73,9.48-20.68s5.8-14,8.51-21.06,5.29-14.19,7.67-21.38,4.65-14.42,6.61-21.74c.95-3.67,1.87-7.35,2.57-11.09.35-1.86.66-3.74.87-5.63.09-1,.16-1.9.16-2.85a9.29,9.29,0,0,0-.32-2.83A9.13,9.13,0,0,1,2604.64,870.08Z"/><path class="cls-8" d="M2554.94,991.53a.74.74,0,0,1,.51.24l0-.11-.15-.49a2.21,2.21,0,0,1-.41.34C2554.79,991.54,2554.74,991.54,2554.94,991.53Z"/></g><polygon class="cls-28" points="2078.75 1167.1 2068.86 1198.41 2240.24 1506.55 2489.05 1437.34 2494 1410.98 2344.05 1106.13 2078.75 1167.1"/><ellipse class="cls-6" cx="2258.01" cy="1301.69" rx="53.08" ry="59.06" transform="translate(1.73 2606.37) rotate(-60)"/><path class="cls-6" d="M2330,1286.12c-29.16-16.84-65.24-9.13-80.42,17.17-7.38,12.78-8.79,28-4,42.78a64.16,64.16,0,0,0,29.3,35.45,65.53,65.53,0,0,0,32.75,8.92c19.59,0,37.93-9.22,47.67-26.09,7.38-12.77,8.78-28,3.95-42.77A64.16,64.16,0,0,0,2330,1286.12Zm21.87,76.23c-14.08,24.39-47.71,31.44-74.95,15.71a60.19,60.19,0,0,1-27.5-33.23c-4.47-13.72-3.18-27.76,3.62-39.54,9-15.59,26-24.09,44.19-24.09a61.7,61.7,0,0,1,30.77,8.38,60.2,60.2,0,0,1,27.49,33.24C2360,1336.53,2358.72,1350.57,2351.91,1362.35Z"/><polygon class="cls-29" points="2078.75 1167.1 2068.86 1198.41 2330.86 1135.8 2489.05 1437.34 2494 1410.98 2344.05 1106.13 2078.75 1167.1"/><path class="cls-9" d="M2765.88,1422.5c9.89-31.29,75.81-280.11,65.92-346-4.86-32.41-58.7-84.71-112.21-129.55-55.32-46.34-110.24-84.65-110.24-84.65s4.94,121.93-16.48,199.37S2555,1294,2555,1294l-10.82-1.86-84.76-14.61s-16.48,93.93-46.14,125.22c46.14,51.09,136.78,75.81,136.78,75.81s9.89,72.49,36.24,87.32,118.22-41.18,171-37.89c34.61,24.72-19.35-57.66-19.35-57.66S2756,1453.82,2765.88,1422.5Z"/><g class="cls-30"><path class="cls-15" d="M2443.36,1251.21A358.72,358.72,0,0,1,2402,1385.78c-8.38,15.49-18.18,31.2-18.91,48.8-.11,2.71,0,5.56,1.38,7.92,2.54,4.41,8.5,5.64,13.51,4.77,13.7-2.37,22.39-15.64,29-27.86,27-49.75,48.53-105.72,41.11-161.85Z"/><path class="cls-15" d="M2750.9,1504.24c-27.38-2.22-54.84,5-79.91,16.27-15,6.75-29.58,15-45.61,18.81s-34.41,2.43-46.82-8.41c-15.55-13.59-17.57-37.69-31.83-52.62l-22,28.15a583.18,583.18,0,0,0,9.44,62.66c3.21,15.53,7.84,32.18,20.49,41.75,19.43,14.71,47,5.86,69.55-3.52L2730,1563.25c29.29-12.2,60-24.64,91.62-21.86C2805.58,1519.07,2778.29,1506.47,2750.9,1504.24Z"/></g><path class="cls-8" d="M2704.38,1341.75c-12.47-8.31-41.34-19.2-85.82-32.38-33-9.79-62.81-17.25-63.11-17.33a2,2,0,0,0-1,3.88c1.18.3,118.64,29.8,147.68,49.16a2,2,0,0,0,1.11.34,2,2,0,0,0,1.66-.89A2,2,0,0,0,2704.38,1341.75Z"/><path class="cls-8" d="M2717.08,1302c-25.16-8.38-72,12.37-73.95,13.26a2,2,0,0,0,1.64,3.65c.47-.21,47.35-21,71.05-13.11a2,2,0,0,0,1.26-3.8Z"/><g class="cls-11"><path d="M2609.35,862.27s4.94,121.93-16.48,199.37S2555,1294,2555,1294l-10.82-1.86,2.57,1.86,51.09,11.54,74.15-98.87-28-51.09,39.54,18.14s40.74-149.91,36.09-226.78C2664.27,900.58,2609.35,862.27,2609.35,862.27Z"/></g><path class="cls-8" d="M2736.5,1468.85c-32.6,30.92-81.23,31.46-116.28,26.46a310.64,310.64,0,0,1-69.41-18.61,2,2,0,1,0-1.57,3.68,314.7,314.7,0,0,0,70.33,18.88,229.37,229.37,0,0,0,32.45,2.42c36.58,0,66.37-10.14,87.23-29.93a2,2,0,0,0-2.75-2.9Z"/><path class="cls-21" d="M2397.6,1222.3c-5.77,18.13,10.71,43.67,10.71,43.67s-56.85,4.12-94.75,32.13,45.32,9.07,45.32,9.07-55.28,12.48-44.08,25.54c7.41,8.65,35.72,1.58,47.76,3a2.1,2.1,0,0,1,.34,4.11c-15.83,4.51-38.92,6.65-30.39,15.18,7.42,7.42,28.18,4.77,36.24,5.91a1.18,1.18,0,0,1,.22,2.29c-9.3,3.29-28.08,10.69-16.68,13.22,14.83,3.3,65.91,19.78,65.91,19.78s36.25-54.38,36.25-102.17c0,0-6.59-19.77-23.07-44.49S2402.91,1205.61,2397.6,1222.3Z"/><g class="cls-31"><path class="cls-17" d="M2409.22,1237.2c-1.79-9.78-1.93-20.35,2.75-29.13l-1.14-4.68c-5.07-2.34-10.82,1.13-15.18,4.62a199.1,199.1,0,0,0-28.33,27.73c-3,3.54-5.84,7.26-7.46,11.58s-1.82,9.39.47,13.39c3.77,6.59,12.46,8.11,20,8.74q15.27,1.26,30.61,1.46c1.55,0,3.36-.1,4.22-1.38a4.55,4.55,0,0,0,.38-3.2C2414.29,1256.47,2411,1247,2409.22,1237.2Z"/><path class="cls-17" d="M2333.14,1307.4c-5.69,1.32-11.22,3.32-17,4.24s-12,.65-17-2.3l-1,4.83c-2.65,1.57-1.17,6.11,1.7,7.23s6.07.12,9.08-.55c5.67-1.27,11.54-1.32,17.34-1.7a148.06,148.06,0,0,0,45.18-10.29A73.45,73.45,0,0,0,2333.14,1307.4Z"/><path class="cls-17" d="M2377.4,1330.21c-21-.58-41.87,9.74-62.51,5.72-5-1-10.16-3-13-7.27l4.52,15.42a226.34,226.34,0,0,0,43.54,1.6c10.36-.62,21.42-2.27,29-9.32,1.45-1.35,2.79-3.66,1.48-5.16A4.12,4.12,0,0,0,2377.4,1330.21Z"/><path class="cls-17" d="M2376.24,1353.81c-6.1-.14-12,2.08-18,3-12.75,2-25.63-1.75-38-5.46l8.88,7.74c1.44,3.08,5.13,4.28,8.43,5.07,14.18,3.39,29.42,5.21,43.1.14a6.93,6.93,0,0,0,3.33-2.1c1.41-1.89.66-4.78-1.12-6.33A10.2,10.2,0,0,0,2376.24,1353.81Z"/><path class="cls-17" d="M2435.33,1369.72c-13.83,8.82-30.84,11.55-47.22,10.68s-32.37-5.1-48.22-9.32l-6.72,12.07a110.2,110.2,0,0,0,55.65,24c12.7,1.61,26.1.87,37.53-4.9s20.48-17.3,20.75-30.11a6.37,6.37,0,0,0-.51-3.12C2444.63,1365.19,2438.93,1367.43,2435.33,1369.72Z"/></g><path class="cls-21" d="M2161.77,1388.94c-4.16,10.91,6.62-5,13.81-20.16A55,55,0,0,0,2161.77,1388.94Z"/><path class="cls-21" d="M2146.27,1364.35c-4,3-6.69,5.2-6.69,5.2S2142.44,1367.48,2146.27,1364.35Z"/><path class="cls-21" d="M2211,1395.49c-13.9-7.39-26.2,21.52-26.2,21.52s10.16-33.42,7.32-48.32c-1.64-8.59-9.16-6.61-16.57.09-7.19,15.15-18,31.07-13.81,20.16a55,55,0,0,1,13.81-20.16c4.83-10.19,8.05-20,4-21.11-7-1.9-23.88,9.62-33.31,16.68-3.83,3.13-6.69,5.2-6.69,5.2s2.68-2.19,6.69-5.2c8.88-7.27,23-20.29,18.81-26.71-6-9.19-45.32,5.88-48.69,22.76s17.94,27.57,21.12,39.07,32,33.25,39.43,36.56c.47.2,1,.4,1.48.59,12,4.45,25.45-1.4,30.91-13C2214.57,1412.58,2218.6,1399.51,2211,1395.49Z"/><g class="cls-32"><path class="cls-17" d="M2169.13,1333.94l-1.73-5.52c.62,3.7-1.78,7.21-4.37,9.93-10.29,10.85-25.53,17.05-33,30a4.31,4.31,0,0,0-.79,3,3.16,3.16,0,0,0,3.4,2.06,9.06,9.06,0,0,0,3.93-1.7,193.86,193.86,0,0,0,34.32-28.26c1.8-1.87,3.69-4.08,3.58-6.68S2170.9,1332,2169.13,1333.94Z"/><path class="cls-17" d="M2183.32,1345.9l-3.28-6.7c-3.4,19.34-24.64,31.84-27.82,51.22a5,5,0,0,0,.42,3.71,3.7,3.7,0,0,0,4.32,1,10.16,10.16,0,0,0,3.7-3,122.19,122.19,0,0,0,23.33-38.24C2185,1351.2,2185.69,1347.56,2183.32,1345.9Z"/><path class="cls-17" d="M2190,1358.4a18.76,18.76,0,0,0-.9-3.46Z"/><path class="cls-17" d="M2191.49,1364.12l-1.47-5.72c1.29,8.19-2.79,16.8-5.23,25-2.93,9.91-3.47,20.34-4,30.66a4.18,4.18,0,0,0,.34,2.36c.75,1.25,2.66,1.32,3.88.53a7.79,7.79,0,0,0,2.51-3.51A96.09,96.09,0,0,0,2196,1378C2196.16,1373,2195.6,1367.11,2191.49,1364.12Z"/><path class="cls-17" d="M2210,1406.34c-2.48,5.3-6.4,9.78-10.27,14.18s-8,9-13.49,11.13a28.29,28.29,0,0,1-6.5,1.5,62.32,62.32,0,0,1-19.18-.45c4.53,7.25,13.09,11.09,21.53,12.43,9.19,1.46,19.66,0,25.8-7a31.37,31.37,0,0,0,5-8.52,96.12,96.12,0,0,0,7.71-32.58l-9.56-7.68C2213.36,1394.69,2212.46,1401,2210,1406.34Z"/></g><g class="cls-16"><path d="M2434.8,1759.22s-81.69,179-91.58,290.28c-8.1,91.11-21.15,439.17-25.63,562.19,25.46-3.71,54.7-11.52,87.55-25.73,7.42-174.23-11.12-504.2-3.71-585.77S2434.8,1759.22,2434.8,1759.22Z"/></g><path class="cls-4" d="M3541.39,1163.24l-538.79,85.64a86.36,86.36,0,0,0-72.8,84.77L2926,1973.29a86.34,86.34,0,0,0,82.93,86.8l538.81,21.41a86.36,86.36,0,0,0,89.79-85.85L3641.3,1249A86.36,86.36,0,0,0,3541.39,1163.24Z"/><path class="cls-33" d="M3698.64,1086.46l-109.17-3.08-1.11,39.38,94.15,2.65c8.52.24,15.26,8.34,15,18l-2.91,103.26,39.22,1.11,3.25-115.21C3737.75,1107.83,3720.46,1087.07,3698.64,1086.46Z"/><path class="cls-6" d="M3698.69,1084.46l-111.17-3.13-1.22,43.37,96.15,2.71a12.55,12.55,0,0,1,9.31,4.75,16.69,16.69,0,0,1,3.74,11.2l-3,105.27,43.22,1.21,3.3-117.2C3739.79,1106.72,3721.68,1085.1,3698.69,1084.46Zm36.37,48.06-3.19,113.21-35.22-1,2.85-101.27a20.69,20.69,0,0,0-4.66-13.87,16.55,16.55,0,0,0-12.28-6.19l-92.15-2.59,1-35.38,107.17,3C3719.36,1089,3735.72,1108.81,3735.06,1132.52Z"/><path class="cls-33" d="M2845.15,1230.22l-3.24,115.21,39.21,1.1,2.91-103.26c.27-9.66,7.47-17.37,16-17.13l89.63,2.52,1.11-39.38-104.66-3C2864.28,1185.72,2845.85,1205.47,2845.15,1230.22Z"/><path class="cls-6" d="M2843.15,1230.17l-3.3,117.2,43.22,1.22,3-105.27c.24-8.58,6.49-15.4,13.93-15.18l91.63,2.58,1.22-43.38-106.65-3C2863.19,1183.69,2843.88,1204.25,2843.15,1230.17Zm144.56-3.57-87.64-2.46c-9.64-.29-17.73,8.28-18,19.07l-2.85,101.27-35.22-1,3.19-113.21c.67-23.71,18.11-42.53,38.9-42l102.65,2.89Z"/><path class="cls-33" d="M3701.33,2091.49c-.27,9.66-7.46,17.37-16,17.13L3591.2,2106l-1.11,39.38,109.17,3.07c21.83.62,40.26-19.13,40.95-43.89l2.92-103.53-39.22-1.1Z"/><path class="cls-6" d="M3699.33,2091.43c-.24,8.59-6.48,15.38-13.93,15.19l-96.14-2.71-1.23,43.38,111.17,3.13,1.06,0c10.75,0,21-4.62,28.86-13.09a49.88,49.88,0,0,0,13.09-32.76l3-105.53-43.21-1.22Zm6.52-89.48,35.22,1-2.86,101.54a45.92,45.92,0,0,1-12,30.15c-7.36,7.88-16.89,12.07-26.89,11.79l-107.16-3,1-35.39,92.15,2.6c9.64.28,17.74-8.29,18-19.08Z"/><path class="cls-33" d="M2855.6,2076.31l2.58-91.59-39.22-1.11-2.91,103.53c-.7,24.76,16.59,45.51,38.42,46.13l104.65,2.94,1.11-39.38-89.63-2.52C2862.08,2094.07,2855.33,2086,2855.6,2076.31Z"/><path class="cls-6" d="M2861.34,2087.56a16.67,16.67,0,0,1-3.74-11.2l2.64-93.59-43.22-1.21-3,105.53a49.89,49.89,0,0,0,11.22,33.45c7.66,9.18,18,14.41,29.14,14.73l106.65,3,1.22-43.38-91.63-2.58A12.55,12.55,0,0,1,2861.34,2087.56Zm95.84,46.6-102.66-2.89c-10-.28-19.27-5-26.17-13.29a45.87,45.87,0,0,1-10.3-30.78l2.86-101.53,35.21,1-2.52,89.59a20.68,20.68,0,0,0,4.67,13.87,16.48,16.48,0,0,0,12.27,6.19l87.63,2.47Z"/><g class="cls-34"><path class="cls-25" d="M3499.46,1726.67c-89.38-26.07-221.58-27.93-221.58-27.93s-156.41,7.45-216,29.79-156.41,193.65-156.41,193.65l-147.1-57.72s-16.76,95-65.17,104.27c81.93,95,173.17,199.23,247.65,180.61s117.3-74.48,117.3-74.48l11.18,176.89s224.68,89.38,403.43-9.31c5.58-130.34,17.38-219.71,17.38-219.71s63.3,81.92,65.17,98.68S3451,2298.92,3451,2298.92s24.21,75.72,98.69,75.72c62.69-28.55,219.72-199.23,204.82-310.95S3588.83,1752.74,3499.46,1726.67Z"/><g class="cls-35"><g class="cls-16"><circle class="cls-6" cx="2763.03" cy="1689.38" r="24.69"/><circle class="cls-6" cx="2903.88" cy="1689.38" r="24.69" transform="translate(-344.04 2548.16) rotate(-45)"/><circle class="cls-6" cx="3044.74" cy="1689.38" r="24.69"/><circle class="cls-6" cx="3185.59" cy="1689.38" r="24.69" transform="translate(-302.92 777.09) rotate(-13.28)"/><circle class="cls-6" cx="3326.45" cy="1689.38" r="24.69"/><circle class="cls-6" cx="3467.3" cy="1689.38" r="24.69"/><circle class="cls-6" cx="3608.16" cy="1689.38" r="24.69" transform="translate(-137.77 3046.16) rotate(-45)"/><circle class="cls-6" cx="3749.01" cy="1689.38" r="24.69"/><circle class="cls-6" cx="3889.87" cy="1689.38" r="24.69"/><circle class="cls-6" cx="2690.42" cy="1783.77" r="24.69"/><circle class="cls-6" cx="2831.28" cy="1783.77" r="24.69" transform="translate(-334.09 698.21) rotate(-13.28)"/><circle class="cls-6" cx="2972.13" cy="1783.77" r="24.69"/><circle class="cls-6" cx="3112.99" cy="1783.77" r="24.69" transform="translate(-349.54 2723.67) rotate(-45)"/><circle class="cls-6" cx="3253.84" cy="1783.77" r="24.69"/><circle class="cls-6" cx="3394.7" cy="1783.77" r="24.69" transform="translate(-319.01 827.66) rotate(-13.28)"/><circle class="cls-6" cx="3535.55" cy="1783.77" r="24.69"/><circle class="cls-6" cx="3676.41" cy="1783.77" r="24.69" transform="translate(-184.52 3122.07) rotate(-45)"/><circle class="cls-6" cx="3817.26" cy="1783.77" r="24.69" transform="translate(-157.19 384.83) rotate(-5.65)"/><circle class="cls-6" cx="2763.03" cy="1883.96" r="24.69"/><circle class="cls-6" cx="2903.88" cy="1883.96" r="24.69" transform="matrix(0.38, -0.92, 0.92, 0.38, 52.06, 3845.84)"/><circle class="cls-6" cx="3044.74" cy="1883.96" r="24.69"/><circle class="cls-6" cx="3185.59" cy="1883.96" r="24.69" transform="translate(-260.64 534.6) rotate(-9.22)"/><circle class="cls-6" cx="3326.45" cy="1883.96" r="24.69"/><circle class="cls-6" cx="3467.3" cy="1883.96" r="24.69"/><circle class="cls-6" cx="3608.16" cy="1883.96" r="24.69" transform="matrix(0.38, -0.92, 0.92, 0.38, 486.82, 4496.5)"/><circle class="cls-6" cx="3749.01" cy="1883.96" r="24.69"/><circle class="cls-6" cx="3889.87" cy="1883.96" r="24.69"/><circle class="cls-6" cx="2690.42" cy="1978.35" r="24.69"/><circle class="cls-6" cx="2831.28" cy="1978.35" r="24.69" transform="translate(-541.56 1234.08) rotate(-22.5)"/><circle class="cls-6" cx="2972.13" cy="1978.35" r="24.69"/><circle class="cls-6" cx="3112.99" cy="1978.35" r="24.69" transform="translate(-520.12 1341.88) rotate(-22.5)"/><circle class="cls-6" cx="3253.84" cy="1978.35" r="24.69"/><circle class="cls-6" cx="3394.7" cy="1978.35" r="24.69" transform="translate(-498.68 1449.69) rotate(-22.5)"/><circle class="cls-6" cx="3535.55" cy="1978.35" r="24.69"/><circle class="cls-6" cx="3676.41" cy="1978.35" r="24.69" transform="translate(-477.23 1557.49) rotate(-22.5)"/><circle class="cls-6" cx="3817.26" cy="1978.35" r="24.69" transform="translate(-267.61 637) rotate(-9.22)"/><circle class="cls-6" cx="2763.03" cy="2077.09" r="24.69"/><circle class="cls-6" cx="2903.88" cy="2077.09" r="24.69" transform="translate(-190.54 296.25) rotate(-5.66)"/><circle class="cls-6" cx="3044.74" cy="2077.09" r="24.69"/><circle class="cls-6" cx="3185.59" cy="2077.09" r="24.69" transform="translate(625.04 4888.84) rotate(-80.78)"/><circle class="cls-6" cx="3326.45" cy="2077.09" r="24.69"/><circle class="cls-6" cx="3467.3" cy="2077.09" r="24.69"/><circle class="cls-6" cx="3608.16" cy="2077.09" r="24.69" transform="translate(-187.11 365.65) rotate(-5.66)"/><circle class="cls-6" cx="3749.01" cy="2077.09" r="24.69"/><circle class="cls-6" cx="3889.87" cy="2077.09" r="24.69"/><circle class="cls-6" cx="2690.42" cy="2171.48" r="24.69"/><circle class="cls-6" cx="2831.28" cy="2171.48" r="24.69" transform="matrix(0.38, -0.92, 0.92, 0.38, -258.39, 3956.25)"/><circle class="cls-6" cx="2972.13" cy="2171.48" r="24.69"/><circle class="cls-6" cx="3112.99" cy="2171.48" r="24.69" transform="translate(-307.64 526.68) rotate(-9.22)"/><circle class="cls-6" cx="3253.84" cy="2171.48" r="24.69"/><circle class="cls-6" cx="3394.7" cy="2171.48" r="24.69" transform="matrix(0.38, -0.92, 0.92, 0.38, 89.42, 4476.78)"/><circle class="cls-6" cx="3535.55" cy="2171.48" r="24.69"/><circle class="cls-6" cx="3676.41" cy="2171.48" r="24.69" transform="translate(-300.36 616.93) rotate(-9.22)"/><circle class="cls-6" cx="3817.26" cy="2171.48" r="24.69" transform="translate(350.27 4867.18) rotate(-67.5)"/><circle class="cls-6" cx="2763.03" cy="2271.68" r="24.69"/><circle class="cls-6" cx="2903.88" cy="2271.68" r="24.69" transform="matrix(0.38, -0.92, 0.92, 0.38, -306.14, 4085.18)"/><circle class="cls-6" cx="3044.74" cy="2271.68" r="24.69"/><circle class="cls-6" cx="3185.59" cy="2271.68" r="24.69" transform="translate(-322.75 539.61) rotate(-9.22)"/><circle class="cls-6" cx="3326.45" cy="2271.68" r="24.69"/><circle class="cls-6" cx="3467.3" cy="2271.68" r="24.69"/><circle class="cls-6" cx="3608.16" cy="2271.68" r="24.69" transform="matrix(0.38, -0.92, 0.92, 0.38, 128.62, 4735.85)"/><circle class="cls-6" cx="3749.01" cy="2271.68" r="24.69"/><circle class="cls-6" cx="3889.87" cy="2271.68" r="24.69"/><circle class="cls-6" cx="2690.42" cy="2366.06" r="24.69"/><circle class="cls-6" cx="2831.28" cy="2366.06" r="24.69" transform="matrix(0.38, -0.92, 0.92, 0.38, -438.16, 4076.37)"/><circle class="cls-6" cx="2972.13" cy="2366.06" r="24.69"/><circle class="cls-6" cx="3112.99" cy="2366.06" r="24.69" transform="translate(-338.8 529.2) rotate(-9.22)"/><circle class="cls-6" cx="3253.84" cy="2366.06" r="24.69"/><circle class="cls-6" cx="3394.7" cy="2366.06" r="24.69" transform="matrix(0.38, -0.92, 0.92, 0.38, -90.36, 4596.9)"/><circle class="cls-6" cx="3535.55" cy="2366.06" r="24.69"/><circle class="cls-6" cx="3676.41" cy="2366.06" r="24.69" transform="translate(-331.53 619.45) rotate(-9.22)"/><circle class="cls-6" cx="3817.26" cy="2366.06" r="24.69" transform="translate(170.5 4987.3) rotate(-67.5)"/></g><g class="cls-16"><path d="M3064.63,1897.87c-42.41,49.48-7.07,141.37-7.07,141.37s-38.88,49.47-123.7,67.15-272.13-159-272.13-159c-42.41,42.41,242.15,324.33,242.15,324.33s153.68-101.68,153.68-129.95S3107,1848.39,3064.63,1897.87Z"/></g><g class="cls-16"><path d="M3490.15,2022.73l-5,97.79,21.2,102.49-74.21,67.15-38.88,116.63,81.29,91.88s123.69-321.6,134.29-371.08-113.09-180.24-113.09-180.24Z"/></g></g><path class="cls-36" d="M3513.11,1591.36c28.83-53.68,74.48-217.23-75.72-194.89-8.69-50.89-74.48-54.61-74.48-54.61s-17.38-42.21-60.83-42.21-103,32.27-145.23,31-78.2,150.2-12.41,167.58,232.12,98.07,232.12,98.07,33.52-16.14,49.66-50.9c-17.38,55.86-68.28,44.69-73.24,100.55s84.41,77,50.89,127.86,65.79,67,65.79,67l52.14-23.58s52.14-54.62,18.62-91.86S3477.11,1658.4,3513.11,1591.36Z"/><g class="cls-37"><path class="cls-38" d="M3415.68,1538.22c1.74-4.75,3.37-9.59,4.84-14.48-5.2,14.68-9.33,25.63-9.33,25.63C3412.82,1545.7,3414.31,1542,3415.68,1538.22Z"/><path class="cls-38" d="M3425,1656.22c-9.16-22.44-7.5-44.44,4.74-65.35s29.58-38.32,44-57.8c14.81-20,27-44.87,21.12-69.06-2.75-11.4-10-22.23-20.92-26.62s-25.18-.59-30.44,9.89c-1.74,3.46-2.43,7.34-3.11,11.16-2.63,14.91-12.39,44-19.92,65.3-1.47,4.89-3.1,9.73-4.84,14.48-1.37,3.74-2.86,7.48-4.49,11.15,0,0,4.13-10.95,9.33-25.63,6.8-22.75,10-46.78,3.5-69.39-7.86-27.48-33.59-51.42-62.06-49-7.38.61-15.29,2.8-21.84-.63-11.44-6-9.5-23-15.91-34.19s-21.39-15.43-34.35-13.64-24.75,8.17-36.79,13.28c-49.51,21-107.63,20.81-157-.6l-22.17,40.37c-4.85,4.7-3.79,12.61-2.31,19.21,8.18,36.29,19.44,74,46.28,99.75,16.4,15.73,37.39,25.74,58.53,34.07,20.41,8,41.31,14.79,62.19,21.52,17.62,5.68,35.46,11.4,53.94,12.54,15.87,1,31.73-1.46,47.44-3.9,11.26-1.74,22.94-3.68,33.62-7.54l-83.48,80.39c13.7,25.63,26.44,52.86,27.56,81.9,1.07,27.9-8.48,57.31,2.59,83,7.89,18.26,25.42,31.15,44.41,37.08s39.39,5.62,59.15,3.27c23.09-2.74,47.81-9.41,61.73-28,10.83-14.49,31.3-25.07,31.35-43.16.06-20.82-20.79-51-31.94-68.59C3467.67,1704,3437.26,1686.17,3425,1656.22Z"/></g><g class="cls-39"><path class="cls-6" d="M3349.79,1404.69c-.08-.63-.18-1.24-.28-1.85-.63.12-1.25.23-1.87.37Z"/><path class="cls-6" d="M3399.51,1416a41.93,41.93,0,0,0-8.62-7,50.92,50.92,0,0,0-21-6.86,72.32,72.32,0,0,0-11.11-.35,70.59,70.59,0,0,0-9.22,1.07c.1.61.2,1.22.28,1.85l-2.15-1.48c.62-.14,1.24-.25,1.87-.37-.27-1.52-.61-3-1-4.46-.54-2.05-1.15-4.08-1.86-6.07a71.06,71.06,0,0,0-5.29-11.53,66.71,66.71,0,0,0-16.51-19.25,68.62,68.62,0,0,0-10.76-6.83,77.18,77.18,0,0,0-11.82-4.66,91.93,91.93,0,0,0-24.93-3.62,117.56,117.56,0,0,0-25,2l-3.07.62c-1,.23-2,.49-3.06.74-2,.45-4,1.1-6,1.66a111.9,111.9,0,0,0-11.73,4.41,118.83,118.83,0,0,0-11.12,5.7,108.24,108.24,0,0,0-10.33,7,88.15,88.15,0,0,0-17.6,17.44,82.62,82.62,0,0,1,8.7-8.75,102.82,102.82,0,0,1,9.72-7.56,113.81,113.81,0,0,1,21.59-11.56,116.76,116.76,0,0,1,47.82-8.1l3.05.12,3,.26c1,.1,2,.15,3,.28l3,.43c2,.22,4,.71,5.95,1.08,1,.18,2,.49,2.93.72s2,.47,2.91.81a72.79,72.79,0,0,1,11.16,4.47,70.39,70.39,0,0,1,10.1,6.42,62.58,62.58,0,0,1,15.63,18,70.35,70.35,0,0,1,5.17,10.88c.71,1.88,1.32,3.8,1.86,5.73a50.43,50.43,0,0,1,1.28,5.8l.28,1.93,1.87-.45a67.23,67.23,0,0,1,10.43-1.56,68.45,68.45,0,0,1,10.62,0,50,50,0,0,1,20.2,5.86,41.7,41.7,0,0,1,15.12,14.66,64.69,64.69,0,0,1,7.6,20.15A60.67,60.67,0,0,0,3406,1425,44.93,44.93,0,0,0,3399.51,1416Z"/></g><g class="cls-39"><path class="cls-6" d="M3504,1755.46a264.16,264.16,0,0,0-15.39-23.11c-5.47-7.46-11.17-14.73-17-21.91s-11.63-14.3-17.45-21.43-11.66-14.25-17.34-21.47l-2.12-2.71c-.7-.91-1.34-1.83-2-2.74-1.32-1.84-2.7-3.63-3.83-5.58l-1.79-2.87-.45-.72-.39-.75-.77-1.49-1.55-3c-.48-1-.86-2.06-1.31-3.08a58.53,58.53,0,0,1-3.75-12.78l-.36-3.3c-.06-.55-.14-1.1-.18-1.65v-1.66c0-1.11-.06-2.21,0-3.32l.29-3.31a53.27,53.27,0,0,1,3.19-12.91l.58-1.57.69-1.54c.46-1,.88-2,1.39-3.06,1.05-2,2-4,3.24-5.92,4.57-7.8,10.32-14.94,16.25-21.91s12.24-13.71,18.17-20.83c3-3.55,5.86-7.21,8.51-11.06,1.36-1.9,2.56-3.91,3.78-5.91l1.66-3.12c.56-1,1-2.16,1.46-3.23a43.71,43.71,0,0,0,3.35-13.74,39.56,39.56,0,0,0-1.57-14,48.91,48.91,0,0,0-6-12.67,70.41,70.41,0,0,0-8.84-10.76,94.33,94.33,0,0,0-22.18-16.46,94.42,94.42,0,0,1,11.31,7.88,92,92,0,0,1,10.11,9.31,69.25,69.25,0,0,1,8.33,10.84,46.73,46.73,0,0,1,5.38,12.4,37.88,37.88,0,0,1,1.17,13.31,41.09,41.09,0,0,1-3.47,12.89c-.49,1-.89,2-1.46,3l-1.64,3c-1.21,1.91-2.4,3.83-3.75,5.66-2.64,3.7-5.52,7.24-8.53,10.69-6,6.93-12.36,13.59-18.44,20.56s-12,14.2-16.85,22.26c-1.26,2-2.33,4.08-3.44,6.16-.53,1-1,2.15-1.48,3.22l-.72,1.62-.62,1.67a56.82,56.82,0,0,0-3.47,13.82l-.32,3.57c-.07,1.2,0,2.4,0,3.59l0,1.8c0,.59.11,1.19.17,1.78l.38,3.57a62.6,62.6,0,0,0,4,13.68c.46,1.09.89,2.2,1.39,3.27l1.64,3.14.82,1.57.42.78.47.75,1.87,3a70.13,70.13,0,0,0,4,5.79c.69.94,1.37,1.91,2.08,2.82l2.15,2.72q8.61,10.85,17.47,21.46c11.8,14.15,23.69,28.21,34.83,42.8,5.55,7.31,10.87,14.78,15.65,22.58s9,16,11.62,24.67a49.27,49.27,0,0,1,2.15,13.35,36.26,36.26,0,0,1-.61,6.74,32.67,32.67,0,0,1-2,6.46,35.73,35.73,0,0,1-7.8,11.1,58.82,58.82,0,0,1-10.94,8.32,59,59,0,0,0,11.36-7.88,36.62,36.62,0,0,0,8.35-11.1,33.66,33.66,0,0,0,2.3-6.64,38.06,38.06,0,0,0,.86-7,50.13,50.13,0,0,0-1.78-13.9C3512.8,1771.9,3508.63,1763.48,3504,1755.46Z"/></g><path class="cls-21" d="M3341.1,1522a67.56,67.56,0,0,0-12.29,3c-15.67-17.67-42.7-56.13-37.52-106.48,0,0-19,7.29-53.92,8.55-9.6-11.59-9-19.76-7.53-23.94a.83.83,0,0,0-1.26-1c-11,8-49.1,34.64-66.95,31.07-21-4.21-40.45,49.27-39.47,110,.47,29.17,7.56,55.61,23.31,75.42a.19.19,0,0,1,.07.07c17,21.46,44.28,35.13,84.34,36.07-2.68,23-9.21,35-11.81,45.49l-5.36,5.2-38.48,2.48,11.17,122.89,149,5,53-126.28-46.77-22.06-3.16-77.79,0-1.8a68.52,68.52,0,0,0,16.07-.4c29.64-4.3,50.9-26.92,47.49-50.55S3370.77,1517.74,3341.1,1522Z"/><g class="cls-40"><path class="cls-17" d="M3333.6,1510.41q.62-37.37,1.22-74.75c.29-17.66.29-36.41-8.94-51.47-13.34-21.74-41.54-28.85-67-30-34.82-1.53-74.47,7.61-91.81,37.84l-38.83,50.8a89.87,89.87,0,0,0,65.9-2.24c9-4,20.67-9.11,27.63-2.09,2.76,2.78,3.89,6.91,6.8,9.53,11.48,10.31,32.45-12.81,43.37-1.91,2.81,2.82,3.59,7,4.39,10.91a102.76,102.76,0,0,0,12.29,31.82l-188.78,7.24,6.28,45.66c7.28,16.63,28.2,21.38,46.19,23.82q39.51,5.37,79.15,9.56c24.86,2.62,50.51,4.84,74.41-2.47a97.91,97.91,0,0,0,59.33-51.62C3357.84,1512.27,3345.33,1511.4,3333.6,1510.41Z"/><path class="cls-17" d="M3191,1654.74l10.56,17.1c-3.15,7-5.51,17,1.05,21,2.66,1.63,6,1.57,9.11,1.45,18-.68,36.58-1.81,52.79-9.69s29.63-24.23,28.59-42.23A213.62,213.62,0,0,1,3191,1654.74Z"/></g><path class="cls-17" d="M3365.92,1566.68a12.88,12.88,0,0,1-3.54,4.44,20.34,20.34,0,0,1-10.29,4.23,21.46,21.46,0,0,1-10.64-1.3c-3.21-1.31-5.79-3.74-6.37-6.66s.86-6.16,3.32-8.6a21.43,21.43,0,0,1,9.31-5.3,20.43,20.43,0,0,1,11.13-.07,13,13,0,0,1,5,2.75,9.22,9.22,0,0,1,2.88,4.89,10,10,0,0,0-2.78-5,14.89,14.89,0,0,0-4.88-3.15,23.47,23.47,0,0,0-11.71-1.39,22.32,22.32,0,0,0-11.25,4.71,14.85,14.85,0,0,0-4,5.12,10.65,10.65,0,0,0,2.55,12.76,15,15,0,0,0,5.68,3.18,22.24,22.24,0,0,0,12.19,0,23.42,23.42,0,0,0,10.27-5.77,14.75,14.75,0,0,0,3.29-4.79,10,10,0,0,0,.65-5.68A9.29,9.29,0,0,1,3365.92,1566.68Z"/><path d="M3198.7,1503.31c-1.27-.8-3.87-1.77-7,.62l-.28.21-.19.29c-.76,1.15-18.7,28.54-13.46,42.43a11.75,11.75,0,0,0,8.46,7.34,29.3,29.3,0,0,0,7.59,1.15,13,13,0,0,0,7-1.79c4.62-2.88,5.7-8.43,6.57-12.89C3208.52,1534.91,3206.72,1508.32,3198.7,1503.31Zm4.77,36.59c-.76,3.9-1.62,8.31-4.77,10.26-2.44,1.52-6.3,1.58-11.46.18a7.84,7.84,0,0,1-5.76-4.89c-3.71-9.81,7.83-30.82,12.85-38.51,1.27-.85,1.9-.46,2.25-.24C3202,1510.1,3204.66,1533.8,3203.47,1539.9Z"/><path class="cls-2" d="M3244.44,1575.05s-37.94,9.58-60.46-3.63c-4.19-2.46-10.5-.53-11.52,3.54-9.1,36.39,29.88,49.73,56,33.9C3246.3,1598,3253.79,1579.89,3244.44,1575.05Z"/><g class="cls-41"><ellipse class="cls-6" cx="3209.64" cy="1572.58" rx="42.8" ry="21.6"/></g><circle class="cls-42" cx="3281.49" cy="1551.69" r="22.4" transform="translate(-206.18 545.67) rotate(-9.22)"/><polygon class="cls-23" points="3293.94 1546.76 3366.18 1524.84 3376.52 1477.27 3294.01 1461.85 3293.94 1546.76"/><polygon class="cls-24" points="3363.25 1515.25 3293.95 1536.29 3293.94 1546.76 3366.18 1524.84 3376.52 1477.27 3371.71 1476.37 3363.25 1515.25"/><path class="cls-25" d="M3292.4,1437.58l-151,.36a9.75,9.75,0,0,0-1.08,0,39.1,39.1,0,0,0-9.43,1.35,39.87,39.87,0,0,0-6.17,2.17,38.78,38.78,0,0,0-11.06,7.38,37,37,0,0,0-3.1,3.28,34.65,34.65,0,0,0-3.45,4.93,34.29,34.29,0,0,0-4.85,17.85l.14,49.31c0,20.34,17.66,36.83,39.37,36.78l137.19-.35,11.59,0h2.2a34,34,0,0,0,5.65-.43,40.39,40.39,0,0,0,14.9-5.07,39.51,39.51,0,0,0,4.6-3.12,36.89,36.89,0,0,0,4.57-4.26,35.35,35.35,0,0,0,9.46-24.08l-.14-49.32C3331.72,1454,3314.07,1437.53,3292.4,1437.58Z"/><path class="cls-6" d="M3113.64,1448.88l184.74,111.33a40.39,40.39,0,0,0,14.9-5.07L3124.7,1441.5A38.78,38.78,0,0,0,3113.64,1448.88Z"/><path class="cls-6" d="M3107.09,1457.09l171.85,103.59,11.59,0-180-108.48A34.65,34.65,0,0,0,3107.09,1457.09Z"/><path class="cls-6" d="M3130.87,1439.33l187,112.69a36.89,36.89,0,0,0,4.57-4.26L3140.3,1438A39.1,39.1,0,0,0,3130.87,1439.33Z"/><polygon class="cls-23" points="3268.6 1560.7 3268.61 1560.7 3263.9 1560.71 3268.6 1560.7"/><path class="cls-23" d="M3292.39,1437.58l-24.13.06c21.69-.06,39.32,16.41,39.38,36.77l.14,49.32c0,20.36-17.48,36.91-39.17,37l24.12-.06c21.69-.05,39.23-16.6,39.17-37l-.13-49.32C3331.71,1454,3314.08,1437.52,3292.39,1437.58Z"/><path class="cls-26" d="M3396.09,1454.76c-17.7-2-34.29,16.85-37.06,42s9.35,47.08,27,49,34.3-16.85,37.06-42S3413.79,1456.71,3396.09,1454.76Z"/><path class="cls-24" d="M3397.52,1479.61c-8.21-.9-15.91,7.82-17.19,19.47s4.34,21.83,12.54,22.73,15.91-7.81,17.19-19.46S3405.72,1480.52,3397.52,1479.61Z"/><path class="cls-23" d="M3400.15,1455.62a22.89,22.89,0,0,0-4.06-.86c-17.7-2-34.29,16.85-37.06,42s9.35,47.08,27,49a23.14,23.14,0,0,0,4.16,0c-15.45-4.6-25.54-25-23-48.16S3384.08,1456.76,3400.15,1455.62Z"/></g><path class="cls-4" d="M1849.84,624.54l-479.9-76.28a76.92,76.92,0,0,0-89,76.35l3.34,665.09a76.92,76.92,0,0,0,80,76.47l479.93-19.07a76.92,76.92,0,0,0,73.87-77.31l-3.38-569.74A76.91,76.91,0,0,0,1849.84,624.54Z"/><path class="cls-33" d="M1229.87,479.86c-19.44.55-34.84,19-34.22,41.09l2.89,102.61,34.93-1-2.59-92c-.24-8.61,5.77-15.82,13.36-16l83.86-2.36-1-35.07Z"/><path class="cls-6" d="M1229.81,477.87c-10,.28-19.25,5-26.11,13.19a44.71,44.71,0,0,0-10,29.94l2.95,104.62,38.93-1.1-2.65-94a14.69,14.69,0,0,1,3.28-9.83,11,11,0,0,1,8.14-4.15l85.85-2.41-1.1-39.08Zm14.37,34.69a14.92,14.92,0,0,0-11.09,5.59,18.65,18.65,0,0,0-4.21,12.51l2.54,90-30.94.87-2.83-100.62a40.67,40.67,0,0,1,9.12-27.27c6.11-7.33,14.34-11.51,23.16-11.76l95.24-2.68.87,31.08Z"/><path class="cls-33" d="M1953.61,568.83l-93.22,2.62,1,35.08,79.84-2.25c7.58-.21,14,6.65,14.23,15.26l2.59,92,34.94-1-2.89-102.62C1989.47,585.87,1973.05,568.28,1953.61,568.83Z"/><path class="cls-6" d="M1980.37,578.54c-7.31-7.83-16.83-12-26.82-11.71l-95.21,2.68,1.1,39.07,81.83-2.3a11,11,0,0,1,8.36,3.69,14.64,14.64,0,0,1,3.82,9.63l2.65,94,38.93-1.1-2.94-104.61A44.69,44.69,0,0,0,1980.37,578.54ZM1960,709.47l-2.54-90a18.62,18.62,0,0,0-4.9-12.24,14.94,14.94,0,0,0-11-5h-.41l-77.84,2.19-.87-31.08,91.21-2.56c8.81-.25,17.27,3.46,23.78,10.44A40.65,40.65,0,0,1,1988.09,608l2.83,100.61Z"/><path class="cls-33" d="M1241.71,1390.32c-7.59.22-14-6.65-14.24-15.26l-2.3-81.58-34.93,1,2.6,92.22c.62,22,17,39.64,36.48,39.1l97.23-2.74-1-35.08Z"/><path class="cls-6" d="M1241.65,1388.32a11,11,0,0,1-8.35-3.68,14.64,14.64,0,0,1-3.83-9.63l-2.35-83.58-38.93,1.09,2.65,94.22c.64,22.85,17.41,41,37.59,41l.94,0,99.24-2.79-1.1-39.07Zm-12.39,35.46c-18.38.52-33.83-16.15-34.42-37.15l-2.54-90.22,30.93-.87,2.24,79.58a18.66,18.66,0,0,0,4.9,12.25,14.92,14.92,0,0,0,11.4,5l81.85-2.3.88,31.08Z"/><path class="cls-33" d="M2013.41,1279l-34.93,1,2.3,81.58c.24,8.61-5.77,15.83-13.36,16l-79.84,2.25,1,35.07,93.22-2.62c19.44-.55,34.84-19,34.22-41.09Z"/><path class="cls-6" d="M2015.35,1276.92l-38.93,1.1,2.36,83.58c.21,7.52-4.91,13.8-11.42,14l-81.83,2.3,1.1,39.08,95.21-2.68c20.6-.58,36.82-19.93,36.17-43.14Zm-33.62,133.36-91.22,2.57-.87-31.08,77.84-2.19c8.71-.25,15.57-8.36,15.3-18.09l-2.24-79.59,30.93-.87,2.54,90.22C2014.6,1392.25,2000.12,1409.76,1981.73,1410.28Z"/><path class="cls-1" d="M1849.84,624.54l-479.9-76.28a76.92,76.92,0,0,0-89,76.35l3.34,665.09a76.92,76.92,0,0,0,80,76.47l479.93-19.07a76.92,76.92,0,0,0,73.87-77.31l-3.38-569.74A76.91,76.91,0,0,0,1849.84,624.54Z"/><g class="cls-43"><path class="cls-9" d="M1705,1053.92c-8.44-10.13-67.49-38.81-67.49-38.81s-65.64,4.44-114.57,34.81c37.12,57.36,82.52,508.44,84.2,567.49,21.94,6.75,145.1,0,145.1,0s-11.81-177.15-16.88-303.68S1713.44,1064,1705,1053.92Z"/><g class="cls-44"><g class="cls-11"><path d="M1708.33,1248.63c-12.43,19.73-32.09,41.07-54.74,35.55-10.42-2.54-18.57-10.42-26.1-18q-58.23-59-110.5-123.6l-52.18,263.76c-11.57,8.1-11.85,24.82-11,38.91,3,47.17,6.05,94.43,13.91,141,4,23.55,9.45,47.56,23,67.26,22.88,33.37,64.46,48.39,104.27,55.61a422.47,422.47,0,0,0,132.54,2.8c31.87-4.4,65.19-13.58,86.82-37.4,21.89-24.11,27.66-58.45,31-90.85A1057.11,1057.11,0,0,0,1776,1087.12,533.45,533.45,0,0,1,1708.33,1248.63Z"/></g></g><path class="cls-36" d="M1732.26,713.26s26.79-51-56.72-55.77c-90-5.11-108.52,57-108.52,57-177.57,32-64.12,174.44-64.12,174.44s257.72-67.64,272.52-70,45.63-26.1,28.36-68.82S1732.26,713.26,1732.26,713.26Z"/><g class="cls-45"><path class="cls-46" d="M1768.26,735.47a95,95,0,0,0-79.62,11.94q9.21-20.71,18.44-41.43c2.69-6.05,5.06-14,.22-18.55-2.8-2.63-7-2.91-10.87-2.83-42.38.92-82.46,31.5-94.55,72.13-37.78-6.81-77.1,9-105.68,34.64-18.53,16.61-34.17,40.31-30.08,64.86l11.37,52.2,190.41-33c25.34-4.39,50.78-8.81,75.32-16.49,18.74-5.87,37.35-13.93,51.35-27.69s22.7-34.16,18.36-53.31C1808.17,757,1788.86,741.75,1768.26,735.47Z"/></g><path class="cls-21" d="M1769.46,817.7s-37.58,8.54-45.51-21.46-1-12.75-27.81,10.46-49.33,4.89-49.33,4.89l-.47-22S1633,816.79,1607.1,822c-25.48,5.06-51.9,35.77-52.37,35.77a46.78,46.78,0,0,0-5.87-1.72c-24.4-5.54-48.08,7.25-52.91,28.58s11,43,35.43,48.59c10.49,2.39,14.88,5.19,23.69,1.55l-21.65,109.94s55.12,46.69,86.6,52.29,73.12-31.48,56.25-45c-4.66-3.74-8-10.66-10.29-18.72-3.11-10.73-4.46-23.52-5-33.44a110.39,110.39,0,0,0,21.29-.64c62.93-8.14,97.75-67.83,93.43-135C1774.32,842.94,1774.76,831.77,1769.46,817.7Z"/><g class="cls-47"><path class="cls-17" d="M1553.64,854.47a8,8,0,0,0-1.53,5Z"/><path class="cls-17" d="M1780.48,773.36c-25.33-23.13-63.21-26.63-97.13-21.51A238.61,238.61,0,0,0,1569.6,802l-16,52.51c3.15-4.38,10.49-6.22,15.92-4,7.2,3,11.7,10,16.49,16.17,19,24.44,48.17,39.31,78.23,46.68s61.31,7.94,92.25,8.47c8.19.15,16.72.22,24.15-3.26,7.71-3.62,13.28-10.66,17.5-18.06,13-22.72,15.6-50.51,10-76.07C1804,805.21,1795,786.62,1780.48,773.36Z"/></g><path class="cls-17" d="M1555,884.2a25.32,25.32,0,0,0-13.11-4.41,26.75,26.75,0,0,0-13.19,2.53,16.34,16.34,0,0,0-5.29,4,11.28,11.28,0,0,0-2.72,5.94,10.61,10.61,0,0,1,2.83-5.85,15.41,15.41,0,0,1,5.41-3.6,23.52,23.52,0,0,1,12.72-1,24.7,24.7,0,0,1,11.23,5.13c3.1,2.57,5.11,6.21,4.7,9.74s-3.23,6.6-6.84,8.37a24.68,24.68,0,0,1-12.13,2.36,23.4,23.4,0,0,1-12.12-4,15.16,15.16,0,0,1-4.42-4.77,10.62,10.62,0,0,1-1.38-6.34,11.26,11.26,0,0,0,1.26,6.41,16.25,16.25,0,0,0,4.2,5.14,26.76,26.76,0,0,0,12.22,5.54,25.46,25.46,0,0,0,13.78-1.21,17.27,17.27,0,0,0,6.08-4.09,12,12,0,0,0,1.72-14.47A17.13,17.13,0,0,0,1555,884.2Z"/><path class="cls-42" d="M1711.05,906.45c2.24,8.29,5.06,18.18,22.33,12.14,23.46-8.21-10.83-52.81-10.83-52.81C1710.19,857.77,1708.81,898.16,1711.05,906.45Z"/><path class="cls-2" d="M1713.61,937.18s-28.21,10.52-46.16-1.78a5.51,5.51,0,0,0-8.53,3.82c-4.59,35.95,27.6,33.67,42.48,28.68C1717.56,962.47,1721,941.65,1713.61,937.18Z"/><g class="cls-48"><ellipse class="cls-6" cx="1688.51" cy="937.58" rx="34.56" ry="13.35"/></g><path class="cls-42" d="M1613,876.32a24.93,24.93,0,1,0,27.93,21.53A24.94,24.94,0,0,0,1613,876.32Z"/><path class="cls-17" d="M1607.07,972.46c-7.25-10.49-30.7,74.61,58.61,62.26-3.1-10.73-3.2-25.34-3.78-35.26C1646.28,993.42,1614.66,983.43,1607.07,972.46Z"/><path class="cls-6" d="M1851.15,1092.46c-15.55-13.49-36.2-23-57.36-29.66-47.68-15.08-97.85-15.89-97.85-15.89s27,214.26,30.37,327.3c.71,23.72,2,56.18,4,92.83,7.25,137.93,23.38,334.78,50,344.13,33.74,11.81,99.53,10.12,99.53-3.37s-13.49-269.94-15.18-291.87,285.12,59,285.12,59l67.49-119.79-275-129.91S1901.77,1136.33,1851.15,1092.46Z"/><path class="cls-6" d="M1600.89,1406.84c-18-162-72-358.81-72-358.81s-54-12.83-119.11,15.52c-25.44,11.06-52.57,28.44-78.86,55.33-94.48,96.74,31.52,398.16,31.52,398.16s-54,213.72-56.25,236.2,13.5,45,87.73,36,180,42.75,195.7,36c12.18-5.23,23-155.58,19-298.41C1607.43,1484.89,1605,1443.62,1600.89,1406.84Z"/><path class="cls-5" d="M1726.31,1374.21c.71,23.72,2,56.18,4,92.83q3.69-8.65,7.86-18.6c48.22-115.23,55-310.19,55.67-385.64-47.68-15.08-97.85-15.89-97.85-15.89S1722.93,1261.17,1726.31,1374.21Z"/><path class="cls-5" d="M1528.92,1048s-54-12.83-119.11,15.52c40.59,91.54,157.3,355.71,198.81,463.28-1.19-41.94-3.65-83.21-7.73-120C1582.9,1244.88,1528.92,1048,1528.92,1048Z"/><polygon class="cls-23" points="1546.24 819.89 1556.59 867.45 1628.82 889.38 1628.75 804.47 1546.24 819.89"/><polygon class="cls-24" points="1559.51 857.87 1551.06 818.99 1546.24 819.89 1556.59 867.45 1628.82 889.38 1628.81 878.91 1559.51 857.87"/><path class="cls-25" d="M1808.86,800.36a32.1,32.1,0,0,0-2.89-3.06,35.83,35.83,0,0,0-10.3-6.87,38.26,38.26,0,0,0-5.74-2,37.45,37.45,0,0,0-8.79-1.26c-.34,0-.67,0-1,0l-140.69-.33c-20.18,0-36.63,15.28-36.68,34.26l-.12,45.94a32.94,32.94,0,0,0,8.8,22.44,34.08,34.08,0,0,0,4.27,4,36.26,36.26,0,0,0,4.28,2.92,37.51,37.51,0,0,0,13.88,4.71,32.65,32.65,0,0,0,5.26.41h2l10.8,0,127.81.33c20.22.05,36.63-15.31,36.68-34.26l.13-45.94a32.05,32.05,0,0,0-4.52-16.63A32.69,32.69,0,0,0,1808.86,800.36Z"/><path class="cls-6" d="M1620,896.3a37.51,37.51,0,0,0,13.88,4.71L1806,797.3a35.83,35.83,0,0,0-10.3-6.87Z"/><path class="cls-6" d="M1641.18,901.41l10.8,0,160.1-96.5a32.69,32.69,0,0,0-3.22-4.59Z"/><path class="cls-6" d="M1611.44,889.42a34.08,34.08,0,0,0,4.27,4l174.22-105a37.45,37.45,0,0,0-8.79-1.26Z"/><path class="cls-23" d="M1625.12,867l.13-45.94c0-19,16.48-34.31,36.68-34.26l-22.47-.06c-20.21,0-36.64,15.29-36.69,34.26l-.13,46c-.05,19,16.28,34.39,36.49,34.44l22.47.06C1641.4,901.42,1625.07,886,1625.12,867Z"/><polygon class="cls-23" points="1661.61 901.48 1665.99 901.49 1661.6 901.48 1661.61 901.48"/><path class="cls-26" d="M1526.67,797.38c-17.7,1.94-29.81,23.89-27.05,49s19.36,43.93,37.06,42,29.81-23.9,27-49S1544.37,795.43,1526.67,797.38Z"/><path class="cls-24" d="M1525.25,822.23c-8.21.9-13.83,11.08-12.54,22.74s9,20.36,17.18,19.46,13.82-11.08,12.54-22.73S1533.46,821.33,1525.25,822.23Z"/><path class="cls-23" d="M1526.67,797.38a23.08,23.08,0,0,0-4.06.86c16.07,1.14,30.36,18.87,32.9,42s-7.54,43.56-23,48.16a22.15,22.15,0,0,0,4.15,0c17.7-1.94,29.81-23.9,27-49S1544.37,795.43,1526.67,797.38Z"/></g><path class="cls-4" d="M1925.24,1732l-479.91-76.28a76.92,76.92,0,0,0-89,76.35l3.34,665.09a76.92,76.92,0,0,0,80,76.47l479.93-19.07a76.92,76.92,0,0,0,73.86-77.32l-3.37-569.73A76.91,76.91,0,0,0,1925.24,1732Z"/><g class="cls-49"><path class="cls-2" d="M1850.41,1908.46c-5.48-19.24-36.51-110.21-131.42-98s-124.12,71.72-124.12,71.72-52.94-1.75-71.19,52.48,29.21,96.22,7.3,131.21-62.06,45.48-40.15,98,38.33,84,16.42,103.21-69.36,38.49-67.53,136.45l45.63,5.25,10.34-36.74,9.74,40.24,18.25,3.5,315.78-12.25s21.9-84,1.82-155.69-58.41-131.21-100.39-134.71-93.09-75.8-93.09-75.8,43.81,0,58.41-64.15,80.32-28.86,80.32-28.86,42,70,112.25-1.75C1862.28,1942.58,1855.89,1927.71,1850.41,1908.46Z"/><g class="cls-50"><path class="cls-51" d="M1882.78,1999.91l66.06-61c-29.39,3.54-59.2,7.08-88.5,2.83s-58.53-17.28-76.11-41.1c-7-9.46-12.79-21.07-23.78-25.23-5.12-2-10.77-2-16.23-1.45a90,90,0,0,0-47.65,19.38c-5.14,4.14-10.11,9-16.51,10.59-7,1.76-14.34-.79-21.49-2.1-31-5.69-64.59,15.9-72.28,46.49-10.48,41.66,21.92,89.6-.13,126.48-6.36,10.64-16.46,18.42-24.66,27.72-13.12,14.87-21.47,36.26-14.21,54.72,5.24,13.32,17.36,22.47,26.34,33.61,24.73,30.69,22.66,79.69-4.58,108.17-29.94,31.32-83.36,38.22-102.36,77.16-7.46,15.27-8,32.88-8.18,49.87l54.29,36.73a796.7,796.7,0,0,0,268.2,15c45.37-5.18,93.33-15.88,125-48.78,38.92-40.44,42.42-104.76,25.66-158.32s-50.33-99.92-79.17-148.07c-7.62-12.73-15.1-26.14-16.54-40.91C1832.8,2049.21,1858.81,2022.05,1882.78,1999.91Z"/></g><path class="cls-28" d="M1641.72,2193.62s-88.83,28-110.74,80.47-5.88,234.26-5.88,234.26l-61.65,166.35,377.83,85.72s45.85-168.75,57.34-263.56a455.27,455.27,0,0,0,103.44,14.36L2022.17,2336,1821,2223.9Z"/><path class="cls-21" d="M1800.2,1947c-13.69-38.48-49.28-21-49.28-21s-26.47-14-39.25,40.24-63.88,71.13-63.88,71.13c0,.21,0,.42,0,.63a54.05,54.05,0,0,0-17.67-3c-26.54,0-48.07,18.83-48.07,42s21.53,42,48.07,42a53.67,53.67,0,0,0,19.75-3.71c.4,25.64-.43,63.53-8.17,78.37,29.2,15.15,70.56,40.8,99.77,100.28,42.6-7,73-9.31,73-9.31s-30.78-42.27-49.8-85.2c-6.06-13.5-10.87-27.08-13.21-39.43,2.92.25,5.88.42,8.87.42,62.17,0,112.55-55.11,112.55-123a131,131,0,0,0-16.32-63.85C1839.26,1975.09,1809.69,1973.59,1800.2,1947Z"/><g class="cls-52"><path class="cls-17" d="M1844.12,1951.69c-9.69-.62-20.06.33-28.48-4.51-9.69-5.57-13.91-17.08-20.62-26-13.93-18.56-41.26-25.58-62.41-16.05-18.9,8.51-30.9,27.51-38.69,46.72s-12.56,39.73-22.69,57.81c-3.8,6.79-8.55,13.36-15.29,17.24s-15.85,4.46-22-.32l-6.72,6.78a73.45,73.45,0,0,0,58,16.47c4.81-.75,9.62-2,14.48-1.63,9.83.72,17.92,7.68,27,11.63,15.34,6.71,32.93,4.54,49.52,2.25l73.6-10.16c13.19-1.82,27-3.91,37.61-12,16.85-12.91,20-39.11,9.56-57.62S1865.31,1953.06,1844.12,1951.69Z"/></g><path class="cls-17" d="M1700.1,2140.52c-17.34-14.87-9.13,39.36,51.11,56a110.45,110.45,0,0,0,13.5,2.9c-6.06-13.5-10.25-29-12.59-41.39C1752.12,2158,1717.44,2155.39,1700.1,2140.52Z"/><path class="cls-17" d="M1656,2067.05a14.15,14.15,0,0,0-5.15-3.23,21.75,21.75,0,0,0-11.33-.78,22.93,22.93,0,0,0-10,4.45,13.83,13.83,0,0,0-3.52,4.1,8.71,8.71,0,0,0-1.08,5.18,8.12,8.12,0,0,1,1.2-5.11,12,12,0,0,1,3.73-3.73,19.85,19.85,0,0,1,9.92-2.9,21.29,21.29,0,0,1,9.74,2c2.9,1.39,5.15,3.74,5.48,6.36s-1.29,5.42-3.8,7.42a20.78,20.78,0,0,1-9.06,4.08,19.86,19.86,0,0,1-10.33-.64,12.21,12.21,0,0,1-4.48-2.77,8.21,8.21,0,0,1-2.4-4.68,8.87,8.87,0,0,0,2.3,4.78,14.17,14.17,0,0,0,4.37,3.17,23.2,23.2,0,0,0,10.76,2.12,21.57,21.57,0,0,0,10.87-3.28,13.86,13.86,0,0,0,4.28-4.34,10.14,10.14,0,0,0,1.46-6.36A10.29,10.29,0,0,0,1656,2067.05Z"/><path class="cls-42" d="M1793.24,2050.31c2.32,6.41,5.2,14.05,19.06,8.34,18.82-7.76-11.94-41-11.94-41C1789.74,2012,1790.91,2043.9,1793.24,2050.31Z"/><path class="cls-42" d="M1715,2032.78c-13.2-1.94-25.55,6.74-27.57,19.4s7,24.49,20.24,26.43,25.55-6.75,27.57-19.4S1728.2,2034.72,1715,2032.78Z"/><path class="cls-6" d="M1811.17,2086c-5.47,1.56-17.17,3.32-41.68,2.63-41.37-1.16-7.91,44.9,23.73,33.24,22.48-8.29,24.38-23.94,23.59-32.3A4.36,4.36,0,0,0,1811.17,2086Z"/><path class="cls-2" d="M1816.81,2089.59a4.36,4.36,0,0,0-5.64-3.57c-5.47,1.56-17.17,3.32-41.68,2.63-41.37-1.16-7.91,44.9,23.73,33.24C1815.7,2113.6,1817.6,2098,1816.81,2089.59Z"/><g class="cls-53"><ellipse class="cls-6" cx="1785.92" cy="2086.32" rx="38.61" ry="17.22" transform="translate(-257.87 251.88) rotate(-7.53)"/></g><path class="cls-6" d="M1729.79,2385.23c-11.84-37.38-25.08-67.26-39.34-88.82-18.08-27.33-37.94-41.4-59-41.81a2,2,0,1,0-.07,4c45,.88,76.3,70,94.63,127.8,18.13,57.22,27.43,115,29.1,125.83l-210,48.17L1527,2507.7a2,2,0,0,0-3.78,1.3l19.24,56.09,217.11-49.8-.26-1.82C1759.21,2512.83,1749.92,2448.72,1729.79,2385.23Z"/><g class="cls-39"><path class="cls-6" d="M1685.2,1909.54c-.38.07-.74.16-1.11.25-.12.35-.25.7-.36,1.06Z"/><path class="cls-6" d="M1855.5,1955.55c-1.42.07-2.83.24-4.25.21l-4.26,0c-1.41,0-2.83-.13-4.25-.19s-2.83-.11-4.24-.3a83.89,83.89,0,0,1-8.37-1.12,13.66,13.66,0,0,1-2-.52c-.66-.21-1.33-.37-2-.61a29.56,29.56,0,0,1-3.74-1.74,28.29,28.29,0,0,1-6.55-4.93l-1.42-1.5c-.48-.5-.89-1.07-1.33-1.6-.9-1-1.66-2.22-2.47-3.36a103.54,103.54,0,0,1-7.89-14.93c-2.34-5.18-4.53-10.47-6.94-15.7a138,138,0,0,0-8.13-15.33,81.72,81.72,0,0,0-10.73-13.83,67.43,67.43,0,0,0-13.79-10.91,64.57,64.57,0,0,0-16.18-7,42.71,42.71,0,0,0-17.8-1.15,41.52,41.52,0,0,0-16.58,6.67,60.84,60.84,0,0,0-12.82,12.19,91.46,91.46,0,0,0-9.39,14.77,101.37,101.37,0,0,0-6.31,15.11c.37-.09.73-.18,1.11-.25l-1.47,1.31c.11-.36.24-.71.36-1.06a79,79,0,0,0-8.74,2.51,84.29,84.29,0,0,0-9.38,3.9,65.18,65.18,0,0,0-16.79,11.51A47.89,47.89,0,0,0,1640,1940a45,45,0,0,0-2,4.74,49.87,49.87,0,0,0-1.48,4.93c-.29,1.69-.71,3.36-.83,5.06a51.24,51.24,0,0,0-.1,10.21l.26,4.9a44.78,44.78,0,0,1,.12,4.91l-.14,4.92c0,.41,0,.82,0,1.23l-.13,1.22-.27,2.45c-.26,3.27-.94,6.49-1.51,9.73-.31,1.61-.78,3.19-1.17,4.79l-.6,2.39-.77,2.35-.76,2.35a23.82,23.82,0,0,1-.82,2.33l-1.81,4.6-2.06,4.51c-.71,1.49-1.5,2.93-2.25,4.41a94.72,94.72,0,0,1-11.09,16.43,88.45,88.45,0,0,0,11.8-16c.8-1.46,1.65-2.89,2.42-4.37l2.23-4.48,2-4.6a24.43,24.43,0,0,0,.91-2.33l.85-2.35.85-2.36.7-2.41c.45-1.61,1-3.2,1.35-4.83l1.05-4.91c.41-1.63.52-3.31.78-5l.33-2.49.17-1.25c0-.42,0-.84.07-1.25l.27-5a47.07,47.07,0,0,0,0-5l-.15-5a50.23,50.23,0,0,1,.31-9.66,46.82,46.82,0,0,1,.85-4.73,45,45,0,0,1,1.46-4.57,47.49,47.49,0,0,1,2-4.38,45,45,0,0,1,8.77-11.34,63.33,63.33,0,0,1,16-10.71,81.1,81.1,0,0,1,9-3.64,74.46,74.46,0,0,1,9.32-2.52l1.12-.21.35-1.1c.82-2.59,1.84-5.26,2.93-7.84s2.29-5.13,3.58-7.62a87.1,87.1,0,0,1,9-14.1,56.45,56.45,0,0,1,12-11.34,36.59,36.59,0,0,1,31.15-5,60.5,60.5,0,0,1,15.22,6.54,66.11,66.11,0,0,1,13.12,10.2,78.15,78.15,0,0,1,10.38,13.11c6.06,9.48,10.43,20,15.3,30.42a105.16,105.16,0,0,0,8.39,15.21c.88,1.17,1.7,2.38,2.69,3.48.49.55.93,1.15,1.46,1.67l1.56,1.57a31.3,31.3,0,0,0,7.22,5.17,30.79,30.79,0,0,0,4.09,1.77c.69.25,1.42.41,2.13.61a14.91,14.91,0,0,0,2.15.51,76,76,0,0,0,8.66.91c1.43.15,2.88.13,4.31.17s2.88.09,4.32,0l4.32-.16c1.44,0,2.87-.24,4.3-.35a77.65,77.65,0,0,0,16.87-3.52c5.41-1.86,10.73-4.34,15-8.13-4.47,3.6-9.87,5.77-15.28,7.44A76.15,76.15,0,0,1,1855.5,1955.55Z"/></g><g class="cls-39"><path class="cls-6" d="M1614,1902.48a52.69,52.69,0,0,0-22.79,14.86,65.91,65.91,0,0,0-13.11,24,84.56,84.56,0,0,0-3.66,27.08,147.29,147.29,0,0,0,3.3,27c1.81,8.86,4.2,17.55,6.32,26.23,1,4.34,2,8.68,2.78,13a62,62,0,0,1,1,13,24.15,24.15,0,0,1-3.29,11.85,20.7,20.7,0,0,1-4,4.63c-.85.8-1.73,1.56-2.54,2.4s-1.62,1.66-2.38,2.52a86.68,86.68,0,0,0-8.26,11,125.39,125.39,0,0,0-6.77,11.86c-2,4.08-3.88,8.22-5.55,12.44s-3.16,8.51-4.46,12.86a139.73,139.73,0,0,0-5.39,26.66,107.12,107.12,0,0,0-.45,13.65,70.1,70.1,0,0,0,1.85,13.58,44.18,44.18,0,0,0,5.17,12.78c.63.95,1.28,2,1.89,2.87s1.28,1.78,1.8,2.75,1.15,1.87,1.61,2.87,1,2,1.4,3a46,46,0,0,1,2.9,26,62.21,62.21,0,0,1-3.58,12.86,64.6,64.6,0,0,1-6.08,11.95,64.24,64.24,0,0,0,10.7-24.62,47.48,47.48,0,0,0-2.13-26.9,33.69,33.69,0,0,0-1.37-3.15c-.46-1-1.06-2-1.61-3s-1.21-1.94-1.82-2.92-1.16-1.86-1.74-2.79a42.16,42.16,0,0,1-4.59-12.19,70.76,70.76,0,0,1-1.51-13.08,102.68,102.68,0,0,1,.67-13.23,144.29,144.29,0,0,1,5.63-26c1.32-4.24,2.85-8.41,4.5-12.53s3.53-8.14,5.54-12.08a130.53,130.53,0,0,1,6.63-11.48,84,84,0,0,1,7.93-10.48c.72-.82,1.5-1.57,2.24-2.37s1.58-1.47,2.36-2.21a24.54,24.54,0,0,0,4.79-5.48,28,28,0,0,0,3.93-13.77,65.32,65.32,0,0,0-1.11-13.82c-.78-4.5-1.8-8.91-2.88-13.29-2.18-8.74-4.53-17.38-6.41-26.08a143.37,143.37,0,0,1-3.51-26.32,84.44,84.44,0,0,1,3.14-26.1c.63-2.1,1.33-4.19,2.15-6.23.37-1,.88-2,1.31-3s.85-2,1.41-3l1.58-2.88a12.42,12.42,0,0,1,.85-1.4l.9-1.38a58.86,58.86,0,0,1,3.91-5.27,50.7,50.7,0,0,1,21.46-14.73,72.2,72.2,0,0,1,26.18-4,101.21,101.21,0,0,1,13.35,1.17,93.59,93.59,0,0,1,13.12,2.87,97.68,97.68,0,0,0-26.43-5.1A74,74,0,0,0,1614,1902.48Z"/></g><path class="cls-6" d="M1918.73,2379.05l-14.36,93.38C1917.78,2441.79,1918.73,2379.05,1918.73,2379.05Z"/><path class="cls-6" d="M1918.77,2377.05a2,2,0,0,0-2,2c0,.63-1.11,62.68-14.2,92.61a2,2,0,0,0,1,2.64,2,2,0,0,0,.8.16,2,2,0,0,0,1.83-1.19c5.65-12.91,9.81-32.69,12.37-58.79,1.9-19.38,2.16-35.21,2.16-35.37A2,2,0,0,0,1918.77,2377.05Z"/><path class="cls-6" d="M1879.46,2377.36a2,2,0,0,0-.66,2.75c.36.59,35.7,59.31,18,116.17a2,2,0,0,0,1.31,2.5,2.08,2.08,0,0,0,.6.09,2,2,0,0,0,1.9-1.4c18.26-58.61-18-118.84-18.4-119.45A2,2,0,0,0,1879.46,2377.36Z"/><polygon class="cls-23" points="1617.2 1992.66 1634.72 2038.08 1709.46 2048.66 1696.36 1964.77 1617.2 1992.66"/><polygon class="cls-24" points="1636.14 2028.16 1621.82 1991.04 1617.2 1992.66 1634.72 2038.08 1709.46 2048.66 1707.85 2038.32 1636.14 2028.16"/><path class="cls-25" d="M1884.61,1952.85a31.92,31.92,0,0,0-7-15.73,33.91,33.91,0,0,0-7.21-6.63,36.24,36.24,0,0,0-11.23-5.21,39.57,39.57,0,0,0-6-1.12,36.72,36.72,0,0,0-8.88.11,6.66,6.66,0,0,0-1,.12l-139.08,21.26c-20,3-33.85,20.72-31,39.48l6.92,45.42a32.88,32.88,0,0,0,12.15,20.82,36.27,36.27,0,0,0,9.5,5.48,37.55,37.55,0,0,0,14.44,2.53,30.38,30.38,0,0,0,5.26-.41l2-.31,10.68-1.62,126.35-19.29c20-3,33.84-20.75,31-39.48Z"/><path class="cls-6" d="M1701.8,2056.85a37.55,37.55,0,0,0,14.44,2.53l154.15-128.89a36.24,36.24,0,0,0-11.23-5.21Z"/><path class="cls-6" d="M1873.71,1933.07l-150.19,125.59,10.68-1.62,143.4-119.92A33,33,0,0,0,1873.71,1933.07Z"/><path class="cls-6" d="M1844.29,1924.27l-152,127.1a34.53,34.53,0,0,0,4.82,3.26l156.05-130.47A36.72,36.72,0,0,0,1844.29,1924.27Z"/><path class="cls-23" d="M1702.37,2027.15l-6.92-45.42c-2.86-18.76,11-36.43,31-39.49l-22.22,3.4c-20,3-33.86,20.73-31,39.48l6.92,45.42c2.86,18.76,21.37,31.49,41.35,28.44l22.21-3.4C1723.74,2058.63,1705.23,2045.9,1702.37,2027.15Z"/><polygon class="cls-23" points="1743.72 2055.58 1748.05 2054.92 1743.71 2055.58 1743.72 2055.58"/><path class="cls-26" d="M1594.41,1973.42c-17.2,4.64-25.8,28.19-19.21,52.6s25.86,40.43,43.06,35.79,25.79-28.19,19.2-52.6S1611.6,1968.78,1594.41,1973.42Z"/><path class="cls-24" d="M1596.81,1998.2c-8,2.15-12,13.07-8.9,24.39s12,18.75,20,16.6,12-13.08,8.91-24.39S1604.79,1996.05,1596.81,1998.2Z"/><path class="cls-23" d="M1594.41,1973.42a22.77,22.77,0,0,0-3.89,1.48c16.06-1.35,32.9,14,39,36.47s-.78,44.2-15.33,51.12a23.24,23.24,0,0,0,4.1-.68c17.19-4.64,25.79-28.19,19.2-52.6S1611.6,1968.78,1594.41,1973.42Z"/></g><path class="cls-33" d="M1326.47,1583.75c-19.44.55-34.84,19-34.22,41.08l2.89,102.62,34.93-1-2.59-92c-.24-8.6,5.77-15.82,13.36-16l83.86-2.36-1-35.08Z"/><path class="cls-6" d="M1326.42,1581.75c-10,.28-19.26,5-26.12,13.2a44.71,44.71,0,0,0-10,29.94l3,104.61,38.93-1.09-2.65-94a14.71,14.71,0,0,1,3.28-9.83,11,11,0,0,1,8.14-4.15l85.86-2.42-1.1-39.07Zm14.37,34.7a14.89,14.89,0,0,0-11.1,5.59,18.6,18.6,0,0,0-4.2,12.5l2.53,90-30.93.87-2.84-100.61a40.71,40.71,0,0,1,9.13-27.27c6.11-7.34,14.33-11.51,23.15-11.76l95.24-2.68.87,31.07Z"/><path class="cls-33" d="M2050.21,1672.71l-93.21,2.63,1,35.07,79.84-2.24c7.59-.22,14,6.65,14.24,15.25l2.59,92,34.93-1-2.89-102.61C2086.07,1689.76,2069.65,1672.17,2050.21,1672.71Z"/><path class="cls-6" d="M2050.16,1670.71l-95.22,2.68,1.1,39.08,81.84-2.31a11,11,0,0,1,8.35,3.69,14.69,14.69,0,0,1,3.83,9.63l2.64,94,38.93-1.09-2.94-104.62C2088,1688.54,2070.76,1670.12,2050.16,1670.71Zm6.43,142.64-2.53-90a18.66,18.66,0,0,0-4.9-12.25,15,15,0,0,0-11-5h-.41l-77.83,2.19-.88-31.08,91.22-2.57c18.37-.51,33.83,16.15,34.42,37.15l2.83,100.62Z"/><path class="cls-33" d="M1338.31,2494.21c-7.59.21-14-6.66-14.24-15.26l-2.29-81.58-34.93,1,2.59,92.22c.62,22,17,39.64,36.48,39.09l97.24-2.74-1-35.07Z"/><path class="cls-6" d="M1338.26,2492.21c-6.5.18-12-5.79-12.19-13.32l-2.35-83.58-38.93,1.1,2.65,94.21a44.71,44.71,0,0,0,11.72,29.33c7.08,7.58,16.23,11.72,25.87,11.72h1l99.23-2.79-1.1-39.08Zm-12.4,35.45c-8.81.24-17.26-3.46-23.77-10.44a40.67,40.67,0,0,1-10.65-26.71l-2.54-90.22,30.93-.87,2.25,79.59c.27,9.73,7.6,17.46,16.29,17.2l81.86-2.31.87,31.08Z"/><path class="cls-33" d="M2110,2382.86l-34.94,1,2.3,81.59c.24,8.6-5.77,15.82-13.36,16l-79.83,2.25,1,35.08,93.22-2.63c19.44-.54,34.84-19,34.22-41.08Z"/><path class="cls-6" d="M2112,2380.81,2073,2381.9l2.35,83.58c.21,7.53-4.91,13.8-11.41,14l-81.84,2.31,1.1,39.07,95.22-2.68c20.59-.58,36.81-19.93,36.16-43.14Zm-33.63,133.35-91.21,2.57-.88-31.08,77.84-2.19c8.71-.24,15.57-8.36,15.3-18.09l-2.24-79.58,30.93-.87,2.54,90.22C2111.2,2496.14,2096.72,2513.65,2078.33,2514.16Z"/><path class="cls-1" d="M1925.24,1732l-479.91-76.28a76.92,76.92,0,0,0-89,76.35l3.34,665.09a76.92,76.92,0,0,0,80,76.47l479.93-19.07a76.92,76.92,0,0,0,73.86-77.32l-3.37-569.73A76.91,76.91,0,0,0,1925.24,1732Z"/><path class="cls-4" d="M3024.48,815.9a43.93,43.93,0,1,0,42.42,43.92,41,41,0,0,1-12.72,29.7,41,41,0,1,1,0-59.39,41,41,0,0,1,12.72,29.69,44,44,0,0,0-42.42-43.92Z"/><circle class="cls-6" cx="2897.25" cy="666.61" r="28.27"/><circle class="cls-4" cx="3679.51" cy="892.81" r="56.55" transform="translate(446.39 2863.31) rotate(-45)"/><circle class="cls-6" cx="1700.29" cy="1524.28" r="37.7" transform="translate(-579.82 1648.74) rotate(-45)"/><path class="cls-4" d="M1018.23,1942.25a44,44,0,0,0-58.53-17.33,40.89,40.89,0,0,1,57.59,49.58,40.93,40.93,0,0,1-78-24.58,41,41,0,0,1,20.46-25,43.91,43.91,0,0,0,6.08,80.53,43.92,43.92,0,0,0,52.45-63.2Z"/></g></svg>