<svg width="164" height="43" viewBox="0 0 164 43" fill="none" xmlns="http://www.w3.org/2000/svg">
    <g clip-path="url(#clip0_241_15)">
        <path d="M82.1008 8.95843V34.0418C82.0996 34.1364 82.0613 34.2268 81.9941 34.2938C81.9269 34.3607 81.8361 34.3989 81.7412 34.4001H79.1229C78.5219 34.4006 77.9305 34.2508 77.4027 33.9645C76.8749 33.6782 76.4276 33.2645 76.1019 32.7613L64.2191 14.4624L64.6267 23.6023V34.0418C64.626 34.0894 64.616 34.1365 64.5971 34.1804C64.5782 34.2242 64.5508 34.2639 64.5165 34.2971C64.4822 34.3304 64.4417 34.3566 64.3973 34.3743C64.3528 34.392 64.3053 34.4007 64.2574 34.4001H60.7952C60.7002 34.3989 60.6094 34.3607 60.5423 34.2938C60.4751 34.2268 60.4368 34.1364 60.4355 34.0418V8.95843C60.4368 8.86378 60.4751 8.77335 60.5423 8.70642C60.6094 8.63949 60.7002 8.60134 60.7952 8.6001H63.3991C63.9993 8.60042 64.59 8.75003 65.1176 9.03536C65.6451 9.3207 66.0928 9.73273 66.4201 10.2341L78.3029 28.5043L77.9337 19.3979V8.95843C77.9337 8.8634 77.9716 8.77225 78.039 8.70505C78.1065 8.63785 78.1979 8.6001 78.2933 8.6001H81.7555C81.848 8.60495 81.9352 8.64469 81.9993 8.71124C82.0634 8.7778 82.0997 8.86618 82.1008 8.95843V8.95843Z" fill="white"/>
        <path d="M117.486 34.3999H113.822C113.765 34.3994 113.709 34.3853 113.658 34.3587C113.607 34.3321 113.564 34.2938 113.531 34.2471C113.498 34.2004 113.477 34.1465 113.469 34.09C113.461 34.0335 113.467 33.9759 113.486 33.9222L123.192 8.94394C123.234 8.83936 123.307 8.75015 123.401 8.68855C123.496 8.62696 123.607 8.59601 123.72 8.59994H128.309C128.417 8.60088 128.523 8.63411 128.613 8.69539C128.703 8.75667 128.772 8.84321 128.812 8.94394L138.489 33.9222C138.508 33.9759 138.514 34.0335 138.506 34.09C138.499 34.1465 138.478 34.2004 138.445 34.2471C138.412 34.2938 138.368 34.3321 138.318 34.3587C138.267 34.3853 138.211 34.3994 138.154 34.3999H134.49C134.417 34.4003 134.345 34.3786 134.284 34.3377C134.223 34.2967 134.176 34.2385 134.149 34.1706L126.328 13.6262C126.303 13.557 126.257 13.4972 126.197 13.455C126.136 13.4127 126.064 13.3901 125.99 13.3901C125.916 13.3901 125.844 13.4127 125.784 13.455C125.723 13.4972 125.677 13.557 125.652 13.6262L117.831 34.1706C117.804 34.2393 117.756 34.298 117.694 34.339C117.633 34.38 117.56 34.4012 117.486 34.3999V34.3999Z" fill="white"/>
        <path d="M163.923 33.822L156.644 24.5579C160.754 23.7839 163.156 21.0223 163.156 16.7844C163.156 11.9159 159.977 8.6001 154.352 8.6001H144.2C144.129 8.60009 144.059 8.61409 143.994 8.64128C143.928 8.66847 143.869 8.70832 143.819 8.75851C143.769 8.80871 143.729 8.86827 143.703 8.93374C143.676 8.99922 143.662 9.06931 143.663 9.13999C143.663 10.0523 144.027 10.9273 144.674 11.5724C145.322 12.2176 146.2 12.58 147.116 12.58H153.93C157.33 12.58 158.96 14.3143 158.96 16.8179C158.96 19.3214 157.368 21.094 153.93 21.094H144.2C144.057 21.0952 143.921 21.1527 143.82 21.2538C143.72 21.3549 143.663 21.4915 143.663 21.6339V34.0561C143.663 34.1511 143.701 34.2423 143.768 34.3095C143.836 34.3767 143.927 34.4144 144.023 34.4144H147.485C147.58 34.4132 147.671 34.375 147.738 34.3081C147.805 34.2412 147.843 34.1507 147.845 34.0561V24.7824H151.839L158.155 32.9954C158.493 33.4349 158.929 33.7904 159.428 34.0341C159.927 34.2778 160.476 34.4031 161.032 34.4001H163.66C163.725 34.3965 163.788 34.375 163.843 34.3381C163.897 34.3012 163.94 34.2502 163.967 34.1906C163.994 34.131 164.005 34.0652 163.997 34.0002C163.989 33.9352 163.964 33.8736 163.923 33.822V33.822Z" fill="white"/>
        <path d="M106.538 8.6001H90.4737C90.3465 8.6001 90.2245 8.65043 90.1346 8.74004C90.0447 8.82964 89.9941 8.95116 89.9941 9.07788C89.9941 9.53778 90.0851 9.99318 90.2617 10.4181C90.4383 10.843 90.6973 11.229 91.0237 11.5542C91.35 11.8794 91.7375 12.1374 92.164 12.3134C92.5904 12.4894 93.0475 12.58 93.5091 12.58H106.538C106.585 12.5806 106.632 12.5718 106.676 12.554C106.72 12.5362 106.76 12.5099 106.794 12.4765C106.827 12.4431 106.854 12.4033 106.872 12.3595C106.889 12.3158 106.898 12.2689 106.898 12.2217V8.95843C106.898 8.91137 106.888 8.86478 106.87 8.8213C106.852 8.77783 106.826 8.73833 106.792 8.70505C106.759 8.67178 106.719 8.64538 106.676 8.62737C106.632 8.60937 106.585 8.6001 106.538 8.6001V8.6001ZM106.538 30.4202H94.5497C94.4547 30.419 94.3639 30.3808 94.2968 30.3139C94.2296 30.247 94.1913 30.1565 94.19 30.0619V23.5928C94.19 23.4977 94.2279 23.4066 94.2954 23.3394C94.3628 23.2722 94.4543 23.2344 94.5497 23.2344H105.632C105.727 23.2344 105.819 23.1967 105.886 23.1295C105.953 23.0623 105.991 22.9711 105.991 22.8761V19.589C105.991 19.494 105.953 19.4028 105.886 19.3356C105.819 19.2684 105.727 19.2307 105.632 19.2307H90.5312C90.3883 19.2319 90.2517 19.2894 90.1512 19.3905C90.0506 19.4916 89.9941 19.6282 89.9941 19.7705V33.865C89.9941 34.0069 90.0507 34.143 90.1515 34.2434C90.2522 34.3437 90.3888 34.4001 90.5312 34.4001H106.538C106.633 34.4001 106.725 34.3623 106.792 34.2951C106.86 34.2279 106.898 34.1368 106.898 34.0418V30.7785C106.898 30.7313 106.889 30.6844 106.872 30.6407C106.854 30.5969 106.827 30.5571 106.794 30.5237C106.76 30.4903 106.72 30.464 106.676 30.4462C106.632 30.4284 106.585 30.4196 106.538 30.4202V30.4202Z" fill="white"/>
        <path d="M34.6414 2.18344L25.6166 15.5278C25.4704 15.7204 25.4028 15.961 25.4274 16.2013C25.452 16.4415 25.567 16.6636 25.7492 16.8228C25.9315 16.982 26.1675 17.0665 26.4098 17.0594C26.6521 17.0523 26.8827 16.954 27.0552 16.7843L35.9218 9.116C35.973 9.06922 36.0368 9.03844 36.1054 9.02748C36.174 9.01652 36.2443 9.02587 36.3076 9.05436C36.371 9.08285 36.4245 9.12923 36.4616 9.18775C36.4987 9.24627 36.5177 9.31435 36.5164 9.38356V33.411C36.5157 33.4839 36.4926 33.5549 36.4503 33.6145C36.408 33.674 36.3485 33.7193 36.2797 33.7442C36.2108 33.7692 36.136 33.7726 36.0652 33.754C35.9944 33.7354 35.931 33.6958 35.8834 33.6403L9.02959 1.62922C8.60017 1.12152 8.06514 0.712871 7.46153 0.431559C6.85793 0.150247 6.20017 0.00299596 5.5338 0L4.59871 0C3.37906 0 2.20936 0.482733 1.34693 1.342C0.484506 2.20128 0 3.3667 0 4.58189L0 38.4181C0 39.6333 0.484506 40.7987 1.34693 41.658C2.20936 42.5173 3.37906 43 4.59871 43V43C5.38458 42.9999 6.15731 42.7992 6.84316 42.4169C7.52902 42.0347 8.10512 41.4837 8.51649 40.8166L17.5413 27.4722C17.6875 27.2796 17.7551 27.039 17.7305 26.7987C17.7059 26.5585 17.5909 26.3364 17.4087 26.1772C17.2264 26.018 16.9904 25.9335 16.7481 25.9406C16.5058 25.9477 16.2752 26.046 16.1027 26.2157L7.23614 33.884C7.18494 33.9308 7.12108 33.9616 7.05248 33.9725C6.98388 33.9835 6.91357 33.9741 6.85025 33.9456C6.78694 33.9172 6.73341 33.8708 6.6963 33.8123C6.6592 33.7537 6.64015 33.6857 6.64152 33.6164V9.589C6.64224 9.51605 6.6653 9.44506 6.7076 9.38552C6.7499 9.32597 6.80943 9.28071 6.87825 9.25578C6.94706 9.23085 7.02187 9.22743 7.09268 9.246C7.16348 9.26456 7.22692 9.30422 7.2745 9.35967L34.1283 41.3708C34.5577 41.8785 35.0928 42.2871 35.6964 42.5684C36.3 42.8498 36.9577 42.997 37.6241 43H38.5832C39.7987 42.9937 40.9622 42.5082 41.8195 41.6496C42.6767 40.791 43.1579 39.6292 43.1579 38.4181V4.58189C43.1579 3.3667 42.6734 2.20128 41.811 1.342C40.9485 0.482733 39.7788 0 38.5592 0V0C37.7733 9.39352e-05 37.0006 0.200839 36.3147 0.583079C35.6289 0.965319 35.0528 1.5163 34.6414 2.18344V2.18344Z" fill="white"/>
    </g>
    <defs>
        <clipPath id="clip0_241_15">
            <rect width="164" height="43" fill="white"/>
        </clipPath>
    </defs>
</svg>
