<svg width="340" height="47" viewBox="0 0 340 47" fill="none" xmlns="http://www.w3.org/2000/svg">
    <path d="M80.197 10.8083V35.4016C80.197 35.5889 80.0564 35.7763 79.8222 35.7763H77.2458C76.0747 35.7763 74.9504 35.1673 74.2946 34.1836L62.6772 16.2423L63.052 25.1895V35.4484C63.052 35.6358 62.9114 35.8232 62.6772 35.8232H59.3044C59.1171 35.8232 58.9297 35.6826 58.9297 35.4484V10.8083C58.9297 10.621 59.0702 10.4336 59.3044 10.4336H61.834C63.0051 10.4336 64.1294 11.0426 64.7852 12.0263L76.4026 29.9208L76.0278 20.9735V10.8083C76.0278 10.621 76.1684 10.4336 76.4026 10.4336H79.7754C80.0564 10.4336 80.197 10.5741 80.197 10.8083Z" fill="white"/>
    <path d="M108.606 35.7295H105.046C104.812 35.7295 104.624 35.4953 104.718 35.261L114.181 10.7615C114.274 10.5741 114.462 10.4336 114.649 10.4336H119.146C119.38 10.4336 119.568 10.5741 119.614 10.7615L129.124 35.261C129.218 35.4953 129.03 35.7295 128.796 35.7295H125.236C125.095 35.7295 124.955 35.6358 124.908 35.4953L117.272 15.3522C117.179 15.0712 116.71 15.0712 116.616 15.3522L108.981 35.4953C108.887 35.6358 108.747 35.7295 108.606 35.7295Z" fill="white"/>
    <path d="M151.912 35.1673L144.791 26.0796C148.82 25.3301 151.162 22.6131 151.162 18.444C151.162 13.6658 148.071 10.4336 142.543 10.4336H132.612C132.331 10.4336 132.097 10.6678 132.097 10.9489C132.097 12.8226 133.596 14.3217 135.469 14.3217H142.168C145.494 14.3217 147.087 16.0081 147.087 18.4908C147.087 20.9735 145.541 22.6599 142.168 22.6599H132.706C132.425 22.6599 132.19 22.8942 132.19 23.1752V35.3547C132.19 35.5421 132.331 35.7295 132.565 35.7295H135.938C136.125 35.7295 136.313 35.5889 136.313 35.3547V26.3138H140.201L146.384 34.371C147.04 35.261 148.071 35.7295 149.195 35.7295H151.771C151.959 35.7295 152.099 35.4016 151.912 35.1673Z" fill="white"/>
    <path d="M101.277 10.4336H85.5847C85.3036 10.4336 85.1162 10.621 85.1162 10.902C85.1162 12.7758 86.6621 14.3217 88.5358 14.3217H101.277C101.465 14.3217 101.652 14.1811 101.652 13.9469V10.7615C101.605 10.5741 101.465 10.4336 101.277 10.4336ZM101.277 31.8414H89.5664C89.379 31.8414 89.1917 31.7009 89.1917 31.4667V25.1427C89.1917 24.9553 89.3322 24.7679 89.5664 24.7679H100.387C100.575 24.7679 100.762 24.6274 100.762 24.3932V21.2078C100.762 21.0204 100.622 20.833 100.387 20.833H85.6315C85.3504 20.833 85.1162 21.0672 85.1162 21.3483V35.1673C85.1162 35.4484 85.3504 35.6826 85.6315 35.6826H101.277C101.465 35.6826 101.652 35.5421 101.652 35.3079V32.1225C101.605 31.9819 101.465 31.8414 101.277 31.8414Z" fill="white"/>
    <path d="M33.8215 4.15483L25.0148 17.2244C24.4058 18.1144 25.5769 19.1918 26.4201 18.4423L35.0863 10.9004C35.3205 10.713 35.6485 10.8536 35.6485 11.1815V34.7441C35.6485 35.072 35.2269 35.2126 35.0395 34.9783L8.80671 3.5927C7.96352 2.56213 6.74557 2 5.38709 2H4.4502C2.0143 2 0 4.0143 0 6.49705V39.6628C0 42.1455 2.0143 44.1598 4.49705 44.1598C6.04291 44.1598 7.49508 43.3635 8.33827 42.005L17.145 28.9354C17.754 28.0454 16.5829 26.968 15.7397 27.7175L7.07348 35.2126C6.83926 35.3999 6.51135 35.2594 6.51135 34.9315V11.4157C6.51135 11.0878 6.93295 10.9472 7.12032 11.1815L33.3531 42.5671C34.1963 43.5977 35.4611 44.1598 36.7727 44.1598H37.7096C40.1923 44.1598 42.2066 42.1455 42.2066 39.6628V6.49705C42.1598 4.0143 40.1455 2 37.6628 2C36.1169 2 34.6647 2.79635 33.8215 4.15483Z" fill="white"/>
    <path d="M180.988 36.4321C179.188 36.4321 177.556 36.0841 176.092 35.3881C174.652 34.6681 173.5 33.5761 172.636 32.1121C171.796 30.6481 171.376 28.7881 171.376 26.5321V10.8001H175.192V26.5681C175.192 28.7761 175.72 30.3961 176.776 31.4281C177.832 32.4601 179.26 32.9761 181.06 32.9761C182.836 32.9761 184.252 32.4601 185.308 31.4281C186.364 30.3961 186.892 28.7761 186.892 26.5681V10.8001H190.708V26.5321C190.708 28.7881 190.264 30.6481 189.376 32.1121C188.512 33.5761 187.336 34.6681 185.848 35.3881C184.384 36.0841 182.764 36.4321 180.988 36.4321ZM195.459 36.0001V18.1441H198.843L199.131 21.2761C199.683 20.1721 200.487 19.3081 201.543 18.6841C202.623 18.0361 203.859 17.7121 205.251 17.7121C207.411 17.7121 209.103 18.3841 210.327 19.7281C211.575 21.0721 212.199 23.0761 212.199 25.7401V36.0001H208.419V26.1361C208.419 22.6801 207.003 20.9521 204.171 20.9521C202.755 20.9521 201.579 21.4561 200.643 22.4641C199.731 23.4721 199.275 24.9121 199.275 26.7841V36.0001H195.459ZM218.853 14.7601C218.133 14.7601 217.533 14.5441 217.053 14.1121C216.597 13.6561 216.369 13.0921 216.369 12.4201C216.369 11.7481 216.597 11.1961 217.053 10.7641C217.533 10.3081 218.133 10.0801 218.853 10.0801C219.573 10.0801 220.161 10.3081 220.617 10.7641C221.097 11.1961 221.337 11.7481 221.337 12.4201C221.337 13.0921 221.097 13.6561 220.617 14.1121C220.161 14.5441 219.573 14.7601 218.853 14.7601ZM216.945 36.0001V18.1441H220.761V36.0001H216.945ZM230.803 36.0001L224.107 18.1441H228.103L233.071 32.3641L238.039 18.1441H241.999L235.339 36.0001H230.803ZM252.573 36.4321C250.821 36.4321 249.261 36.0481 247.893 35.2801C246.549 34.4881 245.493 33.3961 244.725 32.0041C243.957 30.6121 243.573 28.9921 243.573 27.1441C243.573 25.2721 243.945 23.6281 244.689 22.2121C245.457 20.7961 246.513 19.6921 247.857 18.9001C249.225 18.1081 250.809 17.7121 252.609 17.7121C254.361 17.7121 255.885 18.1081 257.181 18.9001C258.477 19.6681 259.485 20.7001 260.205 21.9961C260.925 23.2921 261.285 24.7201 261.285 26.2801C261.285 26.5201 261.273 26.7841 261.249 27.0721C261.249 27.3361 261.237 27.6361 261.213 27.9721H247.317C247.437 29.7001 248.001 31.0201 249.009 31.9321C250.041 32.8201 251.229 33.2641 252.573 33.2641C253.653 33.2641 254.553 33.0241 255.273 32.5441C256.017 32.0401 256.569 31.3681 256.929 30.5281H260.745C260.265 32.2081 259.305 33.6121 257.865 34.7401C256.449 35.8681 254.685 36.4321 252.573 36.4321ZM252.573 20.8441C251.301 20.8441 250.173 21.2281 249.189 21.9961C248.205 22.7401 247.605 23.8681 247.389 25.3801H257.469C257.397 23.9881 256.905 22.8841 255.993 22.0681C255.081 21.2521 253.941 20.8441 252.573 20.8441ZM265.244 36.0001V18.1441H268.664L268.988 21.5281C269.612 20.3521 270.476 19.4281 271.58 18.7561C272.708 18.0601 274.064 17.7121 275.648 17.7121V21.7081H274.604C273.548 21.7081 272.6 21.8881 271.76 22.2481C270.944 22.5841 270.284 23.1721 269.78 24.0121C269.3 24.8281 269.06 25.9681 269.06 27.4321V36.0001H265.244ZM286.048 36.4321C283.792 36.4321 281.932 35.8801 280.468 34.7761C279.004 33.6721 278.164 32.2081 277.948 30.3841H281.8C281.992 31.2001 282.448 31.9081 283.168 32.5081C283.888 33.0841 284.836 33.3721 286.012 33.3721C287.164 33.3721 288.004 33.1321 288.532 32.6521C289.06 32.1721 289.324 31.6201 289.324 30.9961C289.324 30.0841 288.952 29.4721 288.208 29.1601C287.488 28.8241 286.48 28.5241 285.184 28.2601C284.176 28.0441 283.168 27.7561 282.16 27.3961C281.176 27.0361 280.348 26.5321 279.676 25.8841C279.028 25.2121 278.704 24.3121 278.704 23.1841C278.704 21.6241 279.304 20.3281 280.504 19.2961C281.704 18.2401 283.384 17.7121 285.544 17.7121C287.536 17.7121 289.144 18.1921 290.368 19.1521C291.616 20.1121 292.348 21.4681 292.564 23.2201H288.892C288.772 22.4521 288.412 21.8521 287.812 21.4201C287.236 20.9881 286.456 20.7721 285.472 20.7721C284.512 20.7721 283.768 20.9761 283.24 21.3841C282.712 21.7681 282.448 22.2721 282.448 22.8961C282.448 23.5201 282.808 24.0121 283.528 24.3721C284.272 24.7321 285.244 25.0561 286.444 25.3441C287.644 25.6081 288.748 25.9201 289.756 26.2801C290.788 26.6161 291.616 27.1201 292.24 27.7921C292.864 28.4641 293.176 29.4481 293.176 30.7441C293.2 32.3761 292.564 33.7321 291.268 34.8121C289.996 35.8921 288.256 36.4321 286.048 36.4321ZM299.502 14.7601C298.782 14.7601 298.182 14.5441 297.702 14.1121C297.246 13.6561 297.018 13.0921 297.018 12.4201C297.018 11.7481 297.246 11.1961 297.702 10.7641C298.182 10.3081 298.782 10.0801 299.502 10.0801C300.222 10.0801 300.81 10.3081 301.266 10.7641C301.746 11.1961 301.986 11.7481 301.986 12.4201C301.986 13.0921 301.746 13.6561 301.266 14.1121C300.81 14.5441 300.222 14.7601 299.502 14.7601ZM297.594 36.0001V18.1441H301.41V36.0001H297.594ZM313.935 36.0001C312.183 36.0001 310.791 35.5801 309.759 34.7401C308.727 33.8761 308.211 32.3521 308.211 30.1681V21.3481H305.151V18.1441H308.211L308.679 13.6081H312.027V18.1441H317.067V21.3481H312.027V30.1681C312.027 31.1521 312.231 31.8361 312.639 32.2201C313.071 32.5801 313.803 32.7601 314.835 32.7601H316.887V36.0001H313.935ZM323.09 43.9201L327.374 34.5241H326.33L319.274 18.1441H323.414L328.886 31.3561L334.61 18.1441H338.642L327.122 43.9201H323.09Z" fill="white"/>
</svg>
