<svg width="196" height="52" viewBox="0 0 196 52" fill="none" xmlns="http://www.w3.org/2000/svg">
    <path d="M24.1721 37.4704C24.1721 35.8723 23.7168 35.4158 22.1235 35.4158H19.119C15.7049 35.4158 14.1571 35.3701 12.3817 34.9592C11.5168 34.7309 10.925 34.4569 10.5608 34.1373C9.87796 33.5438 9.24064 31.9457 9.10408 30.3477C9.05855 29.5258 9.05855 28.3843 9.05855 26.9689V24.1381C9.05855 21.2616 9.05855 19.9375 9.60483 18.5221C9.92348 17.7916 10.2421 17.2893 10.5608 16.9697C11.2892 16.3761 13.2466 15.8282 15.1131 15.7826C16.069 15.7369 17.4347 15.6913 19.119 15.6913H22.1235C23.7168 15.6913 24.1721 15.2347 24.1721 13.6366V9.25342H18.8459C14.2937 9.25342 11.4713 9.48171 8.7399 10.2579C7.41974 10.6688 6.3272 11.2167 5.55332 11.9016C3.00405 14.0476 1.95703 17.7002 1.95703 24.1381V26.9689C1.95703 33.4068 3.00405 37.0138 5.55332 39.2511C7.14661 40.5752 10.0145 41.3514 13.1101 41.671C14.6578 41.808 16.5698 41.8536 18.8459 41.8536H24.1721V37.4704ZM35.877 29.4801C35.877 27.0602 36.2412 25.4165 36.9241 24.5947C37.6069 23.7728 38.836 23.3619 40.5203 23.3619H42.5689C44.1622 23.3619 44.6174 22.9053 44.6174 21.3073V17.2893H40.3383C38.1077 17.2893 37.1062 17.8829 36.2412 19.5266L35.4673 21.216L35.1032 19.344C34.739 17.7002 34.3293 17.2893 33.0091 17.2893H28.73V39.799C28.73 41.397 29.1852 41.8536 30.824 41.8536H35.877V29.4801ZM47.4796 20.8507C47.4796 21.6269 47.6162 22.677 47.8438 24.0011L50.7117 36.4202C51.5766 40.2099 53.3976 42.1732 56.9028 42.1732C57.7222 42.1732 58.5416 42.0819 59.361 41.9449L59.1334 43.269C58.9058 44.8671 58.3595 45.415 56.7207 45.415H51.4856C49.8923 45.415 49.3916 45.8716 49.3916 47.4696V51.168H57.0394C62.6386 51.168 64.8237 48.9307 65.8707 43.0864L69.4215 24.3664C69.6491 23.0423 69.7857 21.8552 69.7857 20.8507V17.2437H65.4155C63.458 17.2437 62.9573 17.7459 62.6386 19.4353L60.0439 35.8723H57.4946L54.6267 19.3896C54.308 17.7002 53.8528 17.2437 51.8498 17.2437H47.4796V20.8507ZM85.2712 22.951C87.2742 22.951 87.957 22.9966 88.6854 23.9555C89.4593 24.8686 89.5503 26.3297 89.5503 29.5715C89.5503 32.8132 89.4593 34.2743 88.6854 35.1875C87.957 36.1006 87.2742 36.1463 85.2712 36.1463C83.5413 36.1463 82.4488 35.781 81.9936 35.0505C81.5383 34.2743 81.3107 32.6762 81.3107 30.2107V28.9322C81.3107 26.421 81.5383 24.7773 81.9936 24.0468C82.4488 23.3162 83.5413 22.951 85.2712 22.951ZM81.3107 38.064L82.0846 39.7077C82.5854 40.7578 83.1772 41.4427 83.9055 41.7623C84.6339 42.0819 85.863 42.2645 87.5929 42.2645C91.1891 42.2645 93.5563 41.3514 94.7854 39.5707C96.0145 37.79 96.6518 34.4569 96.6518 29.5715C96.6518 24.686 96.0145 21.3529 94.7854 19.5722C93.5563 17.7916 91.1891 16.8784 87.5929 16.8784C85.9085 16.8784 84.6794 17.061 83.9055 17.3806C83.1316 17.7002 82.4943 18.4308 81.948 19.5266L81.1742 21.216L80.7645 19.344C80.4003 17.7002 80.0361 17.2893 78.7159 17.2893H74.1637V49.1133C74.1637 50.7114 74.6189 51.168 76.2577 51.168H81.3107V38.064ZM112.078 23.3619C113.717 23.3619 114.172 22.9053 114.172 21.2616V17.2893H108.072V13.1344C108.072 11.5363 107.617 11.0341 106.023 11.0341H100.97V31.0325C100.97 35.1418 101.744 37.9726 103.292 39.525C104.885 41.0774 107.662 41.8536 111.714 41.8536H114.809V37.8357C114.809 36.2376 114.354 35.781 112.715 35.781C110.576 35.781 109.301 35.5527 108.8 35.0962C108.3 34.5939 108.072 33.2698 108.072 31.0325V23.3619H112.078Z" fill="white"/>
    <path d="M124.901 27.3801C124.946 25.4168 125.128 24.2297 125.538 23.7274C125.948 23.2252 126.904 22.9512 128.361 22.9512C129.818 22.9512 130.728 23.1795 131.138 23.5905C131.548 24.0014 131.73 24.9602 131.73 26.467V27.3801H124.901ZM137.693 37.8359C137.693 36.2379 137.238 35.7813 135.599 35.7813H129.681C126.084 35.7813 124.901 34.9594 124.901 31.8547H136.373C138.012 31.8547 138.467 31.3981 138.467 29.8V26.7409C138.467 23.0426 137.602 20.4857 135.918 19.0703C134.233 17.6549 131.73 16.9243 128.361 16.9243C124.673 16.9243 122.033 17.8831 120.485 19.7551C118.983 21.6271 118.209 24.9146 118.209 29.5717C118.209 33.955 118.937 37.1054 120.44 39.023C121.942 40.895 124.81 41.8539 129.044 41.8539H137.693V37.8359ZM149.996 29.4804C149.996 27.0605 150.36 25.4168 151.043 24.595C151.725 23.7731 152.955 23.3622 154.639 23.3622H156.687C158.281 23.3622 158.736 22.9056 158.736 21.3075V17.2896H154.457C152.226 17.2896 151.225 17.8831 150.36 19.5269L149.586 21.2162L149.222 19.3442C148.858 17.7005 148.448 17.2896 147.128 17.2896H142.849V39.7992C142.849 41.3973 143.304 41.8539 144.943 41.8539H149.996V29.4804ZM174.644 33.2244C174.644 35.6443 173.323 36.7858 170.046 36.7858C167.451 36.7858 166.814 36.2379 166.814 34.1832C166.814 32.4939 167.269 32.0829 168.953 32.0829H174.644V33.2244ZM181.381 28.1107C181.381 24.0014 180.607 21.1706 179.105 19.6182C177.603 18.0658 174.644 17.2896 170.319 17.2896H162.034V21.3075C162.034 22.9056 162.489 23.3622 164.082 23.3622H170.82C173.733 23.3622 174.598 24.0927 174.598 26.6496V27.5171C171.411 27.2888 168.953 27.1975 167.178 27.1975C162.717 27.1975 160.486 29.1151 160.486 32.9961V33.9549C160.486 37.0597 160.987 39.2057 162.034 40.4385C163.081 41.6712 164.993 42.2648 167.724 42.2648C169.682 42.2648 171.047 42.1278 171.867 41.8082C172.732 41.4886 173.414 40.7581 173.915 39.7079L174.689 38.2012L175.053 39.7992C175.463 41.4429 175.827 41.8539 177.147 41.8539H181.381V28.1107Z" fill="white"/>
    <path d="M32.2451 41.8535V44.3901" stroke="white"/>
    <path d="M104.322 8.87793V11.4145" stroke="#26A69A"/>
    <path d="M104.322 5.07324V11.4147" stroke="white"/>
    <path d="M146.052 13.9512V19.0243" stroke="white"/>
    <path d="M146.052 41.8535V48.195" stroke="white"/>
    <path d="M77.7676 13.9512V17.756" stroke="white"/>
</svg>
