<svg width="829" height="499" viewBox="0 0 829 499" fill="none" xmlns="http://www.w3.org/2000/svg">
    <path d="M428.75 405.727C524.101 405.727 601.399 326.787 601.399 229.411C601.399 132.034 524.101 53.095 428.75 53.095C333.399 53.095 256.102 132.034 256.102 229.411C256.102 326.787 333.399 405.727 428.75 405.727Z" fill="#DADFFE"/>
    <path d="M449.244 445.27C562.665 445.27 654.611 437.497 654.611 427.908C654.611 418.32 562.665 410.547 449.244 410.547C335.824 410.547 243.878 418.32 243.878 427.908C243.878 437.497 335.824 445.27 449.244 445.27Z" fill="#DADFFE"/>
    <path d="M552.393 250.975H437.444V296.642H552.393V250.975Z" fill="#3044FF"/>
    <path d="M543.619 417.363H542.205L531.624 296.642H537.006L543.619 417.363Z" fill="#3044FF"/>
    <g style="mix-blend-mode:multiply">
        <g style="mix-blend-mode:multiply">
            <path d="M566.389 282.881H400.939V299.381H566.389V282.881Z" fill="#3044FF"/>
        </g>
    </g>
    <path d="M486.82 417.363H488.234L498.815 296.642H493.433L486.82 417.363Z" fill="#3044FF"/>
    <g style="mix-blend-mode:multiply">
        <g style="mix-blend-mode:multiply">
            <path d="M566.389 282.881H400.939V299.381H566.389V282.881Z" fill="#3044FF"/>
        </g>
    </g>
    <path d="M557.93 133.848H461.979V253.15H557.93V133.848Z" fill="#3044FF"/>
    <g style="mix-blend-mode:multiply">
        <g style="mix-blend-mode:multiply">
            <path d="M557.93 31.3091H461.979V150.612H557.93V31.3091Z" fill="#3044FF"/>
        </g>
    </g>
    <path d="M354.049 68.1146H233.909C228.439 68.1146 224.005 72.6429 224.005 78.2289V141.282C224.005 146.868 228.439 151.396 233.909 151.396H354.049C359.519 151.396 363.953 146.868 363.953 141.282V78.2289C363.953 72.6429 359.519 68.1146 354.049 68.1146Z" fill="#AAB7F6"/>
    <path d="M353.945 75.9272H331.93C329.835 75.9272 328.136 77.6621 328.136 79.8023V96.8936C328.136 99.0338 329.835 100.769 331.93 100.769H353.945C356.041 100.769 357.74 99.0338 357.74 96.8936V79.8023C357.74 77.6621 356.041 75.9272 353.945 75.9272Z" fill="#818DF9"/>
    <path d="M353.908 106.575H331.968C330.48 106.575 329.274 107.806 329.274 109.326V111.964C329.274 113.483 330.48 114.715 331.968 114.715H353.908C355.395 114.715 356.601 113.483 356.601 111.964V109.326C356.601 107.806 355.395 106.575 353.908 106.575Z" fill="#818DF9"/>
    <path d="M260.91 75.9272H236.991C234.849 75.9272 233.113 77.7 233.113 79.8869C233.113 82.0738 234.849 83.8467 236.991 83.8467H260.91C263.052 83.8467 264.788 82.0738 264.788 79.8869C264.788 77.7 263.052 75.9272 260.91 75.9272Z" fill="#818DF9"/>
    <path d="M260.909 86.5493H236.991C235.962 86.5493 234.976 86.9665 234.249 87.7091C233.522 88.4517 233.113 89.4589 233.113 90.5091C233.113 91.5593 233.522 92.5665 234.249 93.3091C234.976 94.0517 235.962 94.4688 236.991 94.4688H260.909C261.937 94.4688 262.924 94.0517 263.651 93.3091C264.378 92.5665 264.786 91.5593 264.786 90.5091C264.786 89.4589 264.378 88.4517 263.651 87.7091C262.924 86.9665 261.937 86.5493 260.909 86.5493Z" fill="#818DF9"/>
    <path d="M280.14 77.4318C280.034 77.3664 279.907 77.3464 279.787 77.3763C279.666 77.4062 279.562 77.4836 279.498 77.5916C279.402 77.7513 269.935 93.9018 260.94 98.9606C259.94 99.5212 258.676 100.179 257.211 100.94C252.752 103.257 246.645 106.433 241.257 110.429C234.75 115.256 230.965 120.004 229.683 124.944C228.588 129.187 229.432 133.514 232.202 137.806C232.245 137.872 232.303 137.927 232.372 137.964C232.441 138.002 232.517 138.022 232.595 138.021C232.687 138.021 232.777 137.993 232.853 137.942C232.905 137.907 232.949 137.862 232.983 137.81C233.018 137.758 233.042 137.699 233.054 137.638C233.067 137.576 233.067 137.512 233.055 137.45C233.044 137.389 233.02 137.33 232.986 137.277C230.368 133.225 229.562 129.156 230.59 125.189C231.794 120.536 235.568 115.831 241.804 111.206C247.135 107.252 253.204 104.098 257.636 101.794C259.106 101.029 260.378 100.369 261.39 99.8007C265.267 97.6188 269.631 93.298 274.36 86.9567C276.486 84.103 278.47 81.141 280.303 78.082C280.365 77.9734 280.382 77.8445 280.352 77.723C280.321 77.6014 280.246 77.4969 280.14 77.4318Z" fill="#4A44C8"/>
    <path d="M284.971 82.3132C290.487 82.3132 294.959 77.7463 294.959 72.1127C294.959 66.4791 290.487 61.9122 284.971 61.9122C279.454 61.9122 274.982 66.4791 274.982 72.1127C274.982 77.7463 279.454 82.3132 284.971 82.3132Z" fill="#4A44C8"/>
    <path d="M320.444 86.5046C320.411 85.9471 320.353 85.3976 320.273 84.8546C320.206 83.707 319.936 82.5814 319.476 81.5321C316.66 73.2165 308.224 67.1802 298.257 67.1802C289.465 67.1802 281.867 71.8763 278.263 78.6889C278.263 78.6889 275.967 81.628 272.448 92.8332C268.929 104.038 238.91 110.274 240.049 133.003C241.188 155.731 301.224 148.337 301.224 148.337L345.423 139.668C345.423 139.668 322.915 105.027 320.444 86.5046Z" fill="#4A44C8"/>
    <g style="mix-blend-mode:multiply">
        <g style="mix-blend-mode:multiply">
            <path d="M318.86 104.744C307.48 105.12 307.966 92.009 307.966 92.009L291.188 94.4688C285.831 108 282.016 98.4941 258.292 118.352C234.567 138.21 240.886 103.122 240.886 103.122L234.766 101.618L226.565 150.747L254.106 160.122L350.558 148.247L353.495 120.869C353.495 120.869 330.242 104.369 318.86 104.744Z" fill="#4A44C8"/>
        </g>
    </g>
    <path d="M284.972 87.3352C284.972 87.3352 282.039 83.4601 279.555 87.618C277.071 91.7758 283.212 99.7384 287.283 95.7228L284.972 87.3352Z" fill="#FCCFCF"/>
    <g style="mix-blend-mode:multiply">
        <g style="mix-blend-mode:multiply">
            <path d="M283.914 81.743C283.914 81.743 281.353 90.9148 286.607 98.1188H290.527L288.198 80.93L283.914 81.743Z" fill="#FCCFCF"/>
        </g>
    </g>
    <path d="M311.649 87.3352C311.649 87.3352 314.581 83.4601 317.067 87.618C319.552 91.7758 313.408 99.7384 309.337 95.7228L311.649 87.3352Z" fill="#FCCFCF"/>
    <g style="mix-blend-mode:multiply">
        <g style="mix-blend-mode:multiply">
            <path d="M309.62 83.8467L304.458 97.3377L309.333 98.9653C314.376 92.6863 312.853 83.8467 312.853 83.8467H309.62Z" fill="#FCCFCF"/>
        </g>
    </g>
    <path d="M292.873 100.726V105.104L284.385 107.006C284.385 107.006 287.077 116.52 295.427 118.212C303.778 119.903 311.225 106.583 311.225 106.583L304.887 105.73V100.726H292.873Z" fill="#FCCFCF"/>
    <g style="mix-blend-mode:multiply">
        <g style="mix-blend-mode:multiply">
            <path d="M291.592 102.307C291.592 102.307 296.857 107.557 305.469 102.307V98.6187L291.592 99.0564V102.307Z" fill="#FCCFCF"/>
        </g>
    </g>
    <path d="M298.257 103.122C305.918 103.122 312.128 96.1803 312.128 87.6179C312.128 79.0555 305.918 72.1143 298.257 72.1143C290.597 72.1143 284.387 79.0555 284.387 87.6179C284.387 96.1803 290.597 103.122 298.257 103.122Z" fill="#FCCFCF"/>
    <g style="mix-blend-mode:multiply">
        <g style="mix-blend-mode:multiply">
            <path d="M288.674 101.6C290.976 101.247 292.562 99.0544 292.215 96.7034C291.869 94.3523 289.723 92.733 287.42 93.0864C285.118 93.4399 283.533 95.6323 283.879 97.9834C284.225 100.334 286.372 101.954 288.674 101.6Z" fill="#FCCFCF"/>
        </g>
    </g>
    <g style="mix-blend-mode:multiply">
        <g style="mix-blend-mode:multiply">
            <path d="M308.595 101.642C310.879 101.642 312.731 99.7152 312.731 97.3377C312.731 94.9602 310.879 93.0329 308.595 93.0329C306.311 93.0329 304.46 94.9602 304.46 97.3377C304.46 99.7152 306.311 101.642 308.595 101.642Z" fill="#FCCFCF"/>
        </g>
    </g>
    <path d="M282.108 84.8689C299.568 87.5476 303.635 71.4786 303.635 71.4786C285.834 66.1291 282.108 84.8689 282.108 84.8689Z" fill="#4A44C8"/>
    <path d="M300.947 69.9292C300.947 69.9292 298.914 81.521 312.365 86.666C312.364 86.666 316.474 75.0023 300.947 69.9292Z" fill="#4A44C8"/>
    <path d="M290.527 80.4427C289.014 80.4427 287.536 80.9008 286.278 81.7589C285.021 82.617 284.041 83.8366 283.462 85.2636C282.883 86.6905 282.732 88.2607 283.027 89.7756C283.322 91.2905 284.05 92.6819 285.12 93.7741C286.189 94.8662 287.552 95.61 289.035 95.9113C290.518 96.2127 292.056 96.058 293.453 95.4669C294.85 94.8759 296.045 93.8749 296.885 92.5907C297.725 91.3065 298.174 89.7966 298.174 88.2521C298.172 86.1816 297.365 84.1965 295.932 82.7324C294.498 81.2683 292.554 80.4449 290.527 80.4427ZM290.527 95.1014C289.2 95.1014 287.903 94.6996 286.8 93.9467C285.696 93.1938 284.837 92.1238 284.329 90.8718C283.821 89.6199 283.688 88.2423 283.947 86.9133C284.206 85.5843 284.845 84.3636 285.784 83.4056C286.722 82.4475 287.918 81.7952 289.219 81.531C290.52 81.2668 291.869 81.4027 293.095 81.9215C294.321 82.4403 295.368 83.3186 296.105 84.4455C296.842 85.5723 297.236 86.897 297.235 88.2521C297.234 90.0684 296.526 91.8098 295.268 93.094C294.011 94.3782 292.305 95.1001 290.527 95.1014Z" fill="white"/>
    <path d="M306.312 80.4427C304.8 80.4427 303.321 80.9008 302.064 81.7589C300.806 82.617 299.826 83.8366 299.247 85.2636C298.668 86.6905 298.517 88.2607 298.812 89.7756C299.107 91.2905 299.835 92.6819 300.905 93.7741C301.974 94.8662 303.337 95.61 304.82 95.9113C306.303 96.2127 307.841 96.058 309.238 95.4669C310.636 94.8759 311.83 93.8749 312.67 92.5907C313.51 91.3065 313.959 89.7966 313.959 88.2521C313.957 86.1816 313.15 84.1965 311.717 82.7324C310.283 81.2683 308.339 80.4449 306.312 80.4427ZM306.312 95.1014C304.985 95.1014 303.688 94.6996 302.585 93.9467C301.482 93.1938 300.622 92.1238 300.114 90.8718C299.606 89.6199 299.474 88.2423 299.733 86.9133C299.991 85.5843 300.631 84.3636 301.569 83.4056C302.507 82.4475 303.703 81.7952 305.004 81.531C306.306 81.2668 307.654 81.4027 308.88 81.9215C310.106 82.4403 311.154 83.3186 311.891 84.4455C312.627 85.5723 313.021 86.897 313.02 88.2521C313.018 90.0683 312.311 91.8094 311.053 93.0935C309.795 94.3776 308.09 95.0997 306.312 95.1014Z" fill="white"/>
    <path d="M291.592 87.3352C291.269 87.3352 291.006 87.9358 291.006 88.6754C291.006 89.4149 291.269 90.0139 291.592 90.0139C291.916 90.0139 292.179 89.4149 292.179 88.6754C292.179 87.9358 291.921 87.3352 291.592 87.3352Z" fill="#333333"/>
    <path d="M304.886 87.3352C304.563 87.3352 304.3 87.9358 304.3 88.6754C304.3 89.4149 304.563 90.0139 304.886 90.0139C305.21 90.0139 305.473 89.4149 305.473 88.6754C305.473 87.9358 305.21 87.3352 304.886 87.3352Z" fill="#333333"/>
    <path d="M300.369 95.4896C299.983 96.055 299.553 96.3473 299.091 96.3601C298.253 96.3873 297.557 95.4912 297.551 95.4832C297.525 95.4497 297.488 95.428 297.446 95.4227C297.405 95.4175 297.364 95.4292 297.331 95.4552C297.298 95.4813 297.277 95.5196 297.272 95.5617C297.267 95.6037 297.278 95.6462 297.304 95.6797C297.336 95.7212 298.086 96.6812 299.057 96.6812H299.098C299.665 96.6668 300.178 96.3266 300.626 95.6749C300.638 95.6577 300.646 95.6383 300.651 95.6177C300.656 95.5971 300.656 95.5759 300.653 95.5551C300.649 95.5343 300.642 95.5144 300.631 95.4966C300.62 95.4788 300.605 95.4633 300.588 95.4512C300.571 95.439 300.552 95.4303 300.532 95.4255C300.512 95.4208 300.491 95.4202 300.471 95.4238C300.451 95.4274 300.431 95.435 300.414 95.4463C300.396 95.4576 300.381 95.4723 300.369 95.4896Z" fill="#333333"/>
    <path d="M287.283 106.348C287.283 106.348 289.575 115.03 298.257 113.763C306.939 112.496 306.952 106.005 306.952 106.005C306.952 106.005 344.284 104.145 348.526 151.396H246.673C246.673 151.396 250.011 112.102 287.283 106.348Z" fill="white"/>
    <path d="M257.195 114.876C266.926 144.586 263.718 163.186 263.718 163.186L292.131 161.705C294.046 122.911 280.302 102.614 280.302 102.614L257.195 114.876Z" fill="#F87B8D"/>
    <path d="M303.821 160.576L332.235 162.056C332.235 162.056 329.027 143.451 338.756 113.747L315.649 101.484C315.649 101.484 301.915 121.78 303.821 160.576Z" fill="#F87B8D"/>
    <path d="M298.86 90.7487C298.844 90.7627 298.831 90.7797 298.822 90.7987C298.813 90.8177 298.808 90.8384 298.807 90.8595C298.806 90.8806 298.809 90.9017 298.816 90.9216C298.823 90.9415 298.833 90.9599 298.847 90.9755C299.085 91.2455 299.667 92.0585 299.513 92.5585C299.451 92.7677 299.252 92.9147 298.927 92.9945C298.885 92.9996 298.848 93.0213 298.822 93.0549C298.796 93.0884 298.784 93.1311 298.789 93.1734C298.794 93.2158 298.815 93.2544 298.848 93.2808C298.881 93.3071 298.923 93.3191 298.964 93.314H299C299.441 93.2054 299.714 92.9945 299.812 92.6639C300.048 91.8876 299.121 90.8158 299.08 90.7711C299.067 90.7548 299.051 90.7413 299.033 90.7313C299.015 90.7214 298.995 90.7152 298.974 90.7131C298.954 90.711 298.933 90.7131 298.914 90.7192C298.894 90.7253 298.875 90.7354 298.86 90.7487Z" fill="#333333"/>
    <path d="M317.159 190.527H197.019C191.549 190.527 187.115 195.055 187.115 200.641V263.694C187.115 269.28 191.549 273.808 197.019 273.808H317.159C322.629 273.808 327.063 269.28 327.063 263.694V200.641C327.063 195.055 322.629 190.527 317.159 190.527Z" fill="#AAB7F6"/>
    <path d="M336.987 183.884H179.901V283.506H336.987V183.884Z" fill="#AAB7F6"/>
    <path d="M285.705 166.636C283.091 168.894 272.363 177.498 258.369 179.515C242.221 181.841 238.599 193.786 239.738 202.136C240.876 210.487 250.194 222.01 263.029 217.677C275.735 213.385 298.488 191.998 286.684 166.85C286.643 166.76 286.583 166.681 286.507 166.619C286.431 166.557 286.342 166.514 286.247 166.493C286.152 166.472 286.054 166.474 285.959 166.499C285.865 166.524 285.778 166.571 285.705 166.636Z" fill="#100389"/>
    <path d="M266.548 217.715V222.753C266.548 222.753 268.411 223.481 270.205 223.488C270.205 223.488 267.837 230.27 256.79 228.599C256.79 228.599 250.435 227.277 249.296 223.539L255.29 223.294V217.571L266.548 217.715Z" fill="#FCCFCF"/>
    <g style="mix-blend-mode:multiply">
        <g style="mix-blend-mode:multiply">
            <path d="M252.896 217.92C252.896 217.92 260.818 223.689 269.489 218.376L269.838 212.875L253.129 212.056L252.896 217.92Z" fill="#FCCFCF"/>
        </g>
    </g>
    <path d="M276.134 200.129C276.134 200.129 278.929 196.64 280.895 200.129C282.861 203.617 278.618 210.911 276.134 208.955V200.129Z" fill="#FCCFCF"/>
    <g style="mix-blend-mode:multiply">
        <g style="mix-blend-mode:multiply">
            <path d="M272.021 198.578L273.898 210L276.795 210.292C279.767 204.001 276.509 196.541 276.509 196.541L272.021 198.578Z" fill="#FCCFCF"/>
        </g>
    </g>
    <path d="M248.123 200.129C248.123 200.129 245.328 196.64 243.36 200.129C241.392 203.617 245.224 210.911 247.708 208.955L248.123 200.129Z" fill="#FCCFCF"/>
    <g style="mix-blend-mode:multiply">
        <g style="mix-blend-mode:multiply">
            <path d="M247.131 197.084C247.131 197.084 244.028 204.857 247.743 211.126L251.653 210.966L251.042 197.3L247.131 197.084Z" fill="#FCCFCF"/>
        </g>
    </g>
    <path d="M277.157 203.697C277.157 195.1 270.333 188.131 261.915 188.131C253.497 188.131 246.673 195.1 246.673 203.697C246.673 212.294 253.497 219.263 261.915 219.263C270.333 219.263 277.157 212.294 277.157 203.697Z" fill="#FCCFCF"/>
    <g style="mix-blend-mode:multiply">
        <g style="mix-blend-mode:multiply">
            <path d="M249.19 214.857C251.8 214.857 253.916 212.696 253.916 210.03C253.916 207.364 251.8 205.203 249.19 205.203C246.579 205.203 244.463 207.364 244.463 210.03C244.463 212.696 246.579 214.857 249.19 214.857Z" fill="#FCCFCF"/>
        </g>
    </g>
    <g style="mix-blend-mode:multiply">
        <g style="mix-blend-mode:multiply">
            <path d="M277.625 214.123C279.845 212.721 280.533 209.747 279.16 207.479C277.788 205.211 274.875 204.509 272.655 205.911C270.434 207.313 269.746 210.287 271.119 212.555C272.491 214.823 275.404 215.525 277.625 214.123Z" fill="#FCCFCF"/>
        </g>
    </g>
    <path d="M263.028 215.88C264.714 215.88 266.082 212.778 266.082 208.955H259.975C259.975 212.778 261.342 215.88 263.028 215.88Z" fill="#FF4D78"/>
    <path d="M269.488 202.983C270.033 202.983 270.475 202.163 270.475 201.151C270.475 200.139 270.033 199.319 269.488 199.319C268.943 199.319 268.501 200.139 268.501 201.151C268.501 202.163 268.943 202.983 269.488 202.983Z" fill="#333333"/>
    <path d="M256.101 202.983C256.646 202.983 257.088 202.163 257.088 201.151C257.088 200.139 256.646 199.319 256.101 199.319C255.556 199.319 255.114 200.139 255.114 201.151C255.114 202.163 255.556 202.983 256.101 202.983Z" fill="#333333"/>
    <path d="M261.915 183.532C248.744 185.54 246.052 196.217 246.052 196.217C246.052 196.217 265.603 197.908 269.488 193.891C269.488 193.891 274.207 200.023 277.83 197.485C277.828 197.485 275.086 181.523 261.915 183.532Z" fill="#100389"/>
    <path d="M268.501 223.384C265.107 226.419 259.974 226.379 259.974 226.379C259.974 226.379 254.84 226.416 251.448 223.384C251.448 223.384 211.272 223.491 204.958 273.808H314.991C308.677 223.491 268.501 223.384 268.501 223.384Z" fill="white"/>
    <path d="M196.675 282.054H248.122C252.262 230.46 234.67 210.276 234.67 210.276C195.537 230.026 196.675 282.054 196.675 282.054Z" fill="#76A7C9"/>
    <path d="M285.933 210.276C285.933 210.276 268.337 230.467 272.482 282.054H323.922C323.922 282.054 325.064 230.026 285.933 210.276Z" fill="#76A7C9"/>
    <g style="mix-blend-mode:multiply">
        <g style="mix-blend-mode:multiply">
            <path d="M223.382 277.826H225.554C225.969 264.189 224.106 261.864 224.106 261.864L223.382 277.826Z" fill="#76A7C9"/>
        </g>
    </g>
    <g style="mix-blend-mode:multiply">
        <g style="mix-blend-mode:multiply">
            <path d="M294.887 277.826H297.066L296.342 261.864C296.342 261.864 294.473 264.197 294.887 277.826Z" fill="#76A7C9"/>
        </g>
    </g>
    <path d="M263.099 202.86C263.07 202.89 263.054 202.93 263.054 202.973C263.054 203.015 263.07 203.055 263.099 203.085C263.109 203.095 263.984 204.053 263.839 204.853C263.778 205.173 263.545 205.446 263.146 205.641C263.113 205.656 263.087 205.682 263.071 205.715C263.055 205.748 263.05 205.786 263.058 205.821C263.066 205.857 263.086 205.889 263.114 205.912C263.142 205.935 263.177 205.947 263.213 205.946C263.237 205.946 263.26 205.94 263.281 205.93C263.776 205.689 264.063 205.345 264.146 204.911C264.321 203.953 263.364 202.91 263.326 202.866C263.312 202.85 263.295 202.837 263.275 202.828C263.256 202.819 263.235 202.814 263.214 202.813C263.193 202.813 263.172 202.817 263.152 202.825C263.132 202.833 263.114 202.845 263.099 202.86Z" fill="#333333"/>
    <path d="M193.411 214.474C203.366 214.474 211.436 206.233 211.436 196.067C211.436 185.9 203.366 177.659 193.411 177.659C183.457 177.659 175.387 185.9 175.387 196.067C175.387 206.233 183.457 214.474 193.411 214.474Z" fill="#DADFFE"/>
    <path d="M212.762 173.656C212.33 173.343 211.795 173.217 211.273 173.307C210.751 173.397 210.285 173.695 209.978 174.135L193.22 198.193L184.618 190.618C184.419 190.443 184.189 190.31 183.94 190.226C183.691 190.143 183.428 190.11 183.166 190.13C182.905 190.15 182.65 190.222 182.416 190.342C182.182 190.463 181.973 190.629 181.802 190.832C181.631 191.035 181.501 191.27 181.419 191.525C181.337 191.779 181.304 192.047 181.324 192.314C181.343 192.581 181.414 192.841 181.532 193.081C181.65 193.32 181.813 193.533 182.012 193.707L192.272 202.743C192.634 203.062 193.097 203.237 193.575 203.237C193.655 203.237 193.735 203.232 193.814 203.223C194.09 203.188 194.356 203.096 194.595 202.951C194.834 202.806 195.041 202.612 195.202 202.381L213.231 176.504C213.384 176.286 213.493 176.039 213.552 175.778C213.611 175.516 213.619 175.245 213.576 174.981C213.532 174.716 213.438 174.463 213.298 174.236C213.159 174.008 212.976 173.811 212.762 173.656Z" fill="#818DF9"/>
    <path d="M347.496 198.1H302.983C301.726 198.1 300.707 199.141 300.707 200.424V229.094C300.707 230.378 301.726 231.419 302.983 231.419H347.496C348.752 231.419 349.771 230.378 349.771 229.094V200.424C349.771 199.141 348.752 198.1 347.496 198.1Z" fill="#818DF9"/>
    <path d="M311.281 212.056H307.348V223.05H311.281V212.056Z" fill="white"/>
    <path d="M327.084 212.056H323.15V223.05H327.084V212.056Z" fill="white"/>
    <path d="M342.887 205.888H338.953V223.049H342.887V205.888Z" fill="white"/>
    <path d="M319.183 204.229H315.249V223.049H319.183V204.229Z" fill="white"/>
    <path d="M334.985 201.66H331.052V223.049H334.985V201.66Z" fill="white"/>
    <path d="M342.205 225.973H308.264C308.026 225.983 307.801 226.087 307.635 226.263C307.47 226.439 307.378 226.673 307.378 226.916C307.378 227.16 307.47 227.394 307.635 227.57C307.801 227.746 308.026 227.85 308.264 227.86H342.205C342.444 227.85 342.669 227.746 342.834 227.57C342.999 227.394 343.092 227.16 343.092 226.916C343.092 226.673 342.999 226.439 342.834 226.263C342.669 226.087 342.444 225.983 342.205 225.973Z" fill="#DADFFE"/>
    <path d="M600.165 370.1C600.165 370.1 588.063 292.174 623.681 270.293C623.82 270.206 623.986 270.175 624.146 270.207C624.306 270.238 624.448 270.33 624.546 270.463C626.329 272.941 633.675 285.44 625.422 314.284C616.106 346.843 600.165 370.1 600.165 370.1Z" fill="#C3C5FE"/>
    <path d="M621.63 280.95C621.571 280.931 621.508 280.925 621.447 280.931C621.386 280.937 621.326 280.956 621.271 280.985C621.217 281.015 621.169 281.055 621.129 281.104C621.09 281.153 621.061 281.209 621.043 281.269C620.869 281.848 603.581 339.602 598.562 376.005C598.545 376.131 598.577 376.259 598.652 376.36C598.727 376.462 598.838 376.529 598.961 376.547H599.027C599.141 376.548 599.251 376.506 599.337 376.431C599.424 376.355 599.48 376.25 599.496 376.134C604.501 339.806 621.772 282.124 621.946 281.546C621.981 281.424 621.968 281.293 621.908 281.181C621.849 281.069 621.749 280.986 621.63 280.95Z" fill="#959CF6"/>
    <g style="mix-blend-mode:multiply">
        <g style="mix-blend-mode:multiply">
            <path d="M603.855 349.531C607.165 332.652 601.399 292.826 601.399 292.826L594.157 320.155L585.344 374.144L609.336 371.269L629.264 335.01L628.554 310.633C614.477 320.008 603.855 349.531 603.855 349.531Z" fill="#C3C5FE"/>
        </g>
    </g>
    <path d="M598.922 370.1C598.922 370.1 559.194 321.238 587.701 278.651C587.748 278.582 587.809 278.524 587.879 278.48C587.949 278.436 588.028 278.407 588.109 278.396C588.191 278.384 588.274 278.39 588.353 278.413C588.432 278.437 588.506 278.476 588.569 278.53C591.68 281.159 607.642 298.017 602.021 363.388L598.922 370.1Z" fill="#C3C5FE"/>
    <path d="M590.753 330.532C588.472 311.844 588.062 296.925 588.058 296.776C588.054 296.649 588.002 296.529 587.912 296.441C587.821 296.354 587.7 296.306 587.576 296.31C587.452 296.313 587.334 296.367 587.248 296.459C587.162 296.551 587.116 296.675 587.119 296.802C587.119 296.95 587.535 311.906 589.82 330.643C591.932 347.948 596.122 372.114 604.09 388.964C604.144 389.079 604.24 389.167 604.358 389.209C604.476 389.25 604.605 389.243 604.717 389.188C604.829 389.132 604.915 389.034 604.956 388.914C604.997 388.794 604.99 388.662 604.936 388.547C597.025 371.817 592.856 347.764 590.753 330.532Z" fill="#959CF6"/>
    <g style="mix-blend-mode:multiply">
        <g style="mix-blend-mode:multiply">
            <path d="M566.39 311.007L561.842 317.945L566.39 376.136L604.196 376.387C587.304 311.638 566.39 311.007 566.39 311.007Z" fill="#D1E7FF"/>
        </g>
    </g>
    <path d="M599.026 368.301C599.026 368.301 584.494 321.035 568.412 314.716C568.294 314.668 568.168 314.648 568.042 314.655C567.916 314.662 567.793 314.698 567.682 314.758C567.57 314.819 567.473 314.904 567.397 315.007C567.321 315.11 567.268 315.229 567.242 315.355C566.042 321.413 561.4 354.208 597.687 370.1L599.026 368.301Z" fill="#C3C5FE"/>
    <path d="M606.198 379.658C595.276 370.946 586.657 357.379 581.35 347.529C575.588 336.84 572.376 328.104 572.345 328.017C572.301 327.899 572.212 327.804 572.1 327.753C571.987 327.701 571.859 327.697 571.743 327.741C571.628 327.785 571.534 327.874 571.482 327.988C571.43 328.103 571.424 328.233 571.466 328.352C571.497 328.44 574.727 337.23 580.519 347.978C585.871 357.909 594.569 371.598 605.62 380.404C605.668 380.445 605.724 380.476 605.784 380.494C605.844 380.513 605.907 380.519 605.97 380.512C606.032 380.506 606.092 380.486 606.147 380.455C606.202 380.424 606.251 380.382 606.289 380.331C606.328 380.281 606.356 380.223 606.373 380.161C606.389 380.099 606.393 380.035 606.385 379.971C606.377 379.908 606.356 379.846 606.324 379.791C606.292 379.736 606.249 379.688 606.198 379.65V379.658Z" fill="#959CF6"/>
    <path d="M599.44 370.739C599.44 370.739 609.108 316.795 641.767 305.684C641.871 305.649 641.982 305.637 642.091 305.65C642.2 305.662 642.306 305.699 642.399 305.758C642.493 305.816 642.574 305.895 642.635 305.988C642.696 306.081 642.737 306.187 642.754 306.298C643.536 311.357 646.595 336.73 631.633 349.068C614.967 362.805 599.44 370.739 599.44 370.739Z" fill="#C3C5FE"/>
    <path d="M631.784 326.512C631.68 326.444 631.553 326.421 631.431 326.448C631.31 326.475 631.204 326.55 631.137 326.657C631.067 326.769 623.98 338.046 615.402 350.085C607.508 361.167 596.706 375.176 590.081 378.984C589.99 379.036 589.92 379.117 589.88 379.215C589.839 379.312 589.832 379.421 589.858 379.523C589.885 379.625 589.944 379.716 590.026 379.781C590.108 379.845 590.209 379.88 590.312 379.88C590.393 379.88 590.472 379.859 590.542 379.818C595.979 376.693 604.599 366.879 616.164 350.646C624.757 338.584 631.856 327.287 631.927 327.175C631.96 327.122 631.983 327.063 631.994 327C632.005 326.938 632.003 326.875 631.99 326.813C631.977 326.752 631.952 326.693 631.917 326.642C631.881 326.59 631.836 326.546 631.784 326.512Z" fill="#959CF6"/>
    <path d="M614.488 419.476H584.861L578.248 366.41H621.101L614.488 419.476Z" fill="#C0C6FC"/>
    <g style="mix-blend-mode:multiply">
        <g style="mix-blend-mode:multiply">
            <path d="M629.264 358.51H570.901V383.011H629.264V358.51Z" fill="#C0C6FC"/>
        </g>
    </g>
    <path d="M622.464 366.41H576.886C575.465 366.41 574.313 367.586 574.313 369.038V375.516C574.313 376.967 575.465 378.144 576.886 378.144H622.464C623.885 378.144 625.037 376.967 625.037 375.516V369.038C625.037 367.586 623.885 366.41 622.464 366.41Z" fill="#C0C6FC"/>
    <path d="M588.192 82.8436H529.695C529.484 82.8436 529.282 82.9288 529.133 83.0807C528.984 83.2325 528.901 83.4385 528.9 83.6534V95.8394C528.9 95.9815 528.864 96.121 528.794 96.2441C528.725 96.3672 528.625 96.4694 528.504 96.5406L522.689 99.9685C522.569 100.04 522.469 100.142 522.399 100.265C522.33 100.389 522.293 100.528 522.293 100.67C522.293 100.813 522.33 100.952 522.399 101.076C522.469 101.199 522.569 101.301 522.689 101.373L528.504 104.8C528.625 104.872 528.725 104.974 528.795 105.098C528.864 105.221 528.9 105.361 528.9 105.503V117.675C528.901 117.89 528.984 118.096 529.133 118.248C529.282 118.4 529.484 118.486 529.695 118.486H588.192C588.403 118.486 588.605 118.401 588.754 118.249C588.903 118.096 588.987 117.89 588.987 117.675V83.6518C588.986 83.5455 588.966 83.4402 588.926 83.342C588.886 83.2438 588.827 83.1547 588.753 83.0796C588.679 83.0046 588.592 82.9451 588.496 82.9046C588.399 82.8641 588.296 82.8434 588.192 82.8436Z" fill="#959CF6"/>
    <path d="M582.027 86.7458H536.061C535.558 86.7604 535.08 86.9747 534.73 87.3432C534.379 87.7117 534.183 88.2054 534.183 88.7193C534.183 89.2332 534.379 89.7268 534.73 90.0953C535.08 90.4638 535.558 90.6781 536.061 90.6928H582.02C582.523 90.6781 583.001 90.4638 583.352 90.0953C583.702 89.7268 583.899 89.2332 583.899 88.7193C583.899 88.2054 583.702 87.7117 583.352 87.3432C583.001 86.9747 582.523 86.7604 582.02 86.7458H582.027Z" fill="white"/>
    <path d="M582.027 92.7182H536.061C535.558 92.7328 535.08 92.9471 534.73 93.3156C534.379 93.6842 534.183 94.1778 534.183 94.6917C534.183 95.2056 534.379 95.6992 534.73 96.0677C535.08 96.4362 535.558 96.6506 536.061 96.6652H582.02C582.523 96.6506 583.001 96.4362 583.352 96.0677C583.702 95.6992 583.899 95.2056 583.899 94.6917C583.899 94.1778 583.702 93.6842 583.352 93.3156C583.001 92.9471 582.523 92.7328 582.02 92.7182H582.027Z" fill="white"/>
    <path d="M582.027 98.6906H536.061C535.558 98.7052 535.08 98.9195 534.73 99.288C534.379 99.6565 534.183 100.15 534.183 100.664C534.183 101.178 534.379 101.672 534.73 102.04C535.08 102.409 535.558 102.623 536.061 102.638H582.02C582.523 102.623 583.001 102.409 583.352 102.04C583.702 101.672 583.899 101.178 583.899 100.664C583.899 100.15 583.702 99.6565 583.352 99.288C583.001 98.9195 582.523 98.7052 582.02 98.6906H582.027Z" fill="white"/>
    <path d="M582.027 104.663H536.061C535.558 104.678 535.08 104.892 534.73 105.26C534.379 105.629 534.183 106.123 534.183 106.636C534.183 107.15 534.379 107.644 534.73 108.012C535.08 108.381 535.558 108.595 536.061 108.61H582.02C582.523 108.595 583.001 108.381 583.352 108.012C583.702 107.644 583.899 107.15 583.899 106.636C583.899 106.123 583.702 105.629 583.352 105.26C583.001 104.892 582.523 104.678 582.02 104.663H582.027Z" fill="white"/>
    <path d="M582.402 110.637H562.397C561.538 110.637 560.841 111.349 560.841 112.226V112.995C560.841 113.872 561.538 114.584 562.397 114.584H582.402C583.262 114.584 583.958 113.872 583.958 112.995V112.226C583.958 111.349 583.262 110.637 582.402 110.637Z" fill="white"/>
    <path d="M631.423 219.079C645.256 204.952 645.256 182.047 631.423 167.92C617.59 153.793 595.162 153.793 581.329 167.92C567.495 182.047 567.495 204.952 581.329 219.079C595.162 233.206 617.59 233.206 631.423 219.079Z" fill="#959CF6"/>
    <path d="M627.134 179.6L612.82 188.201C612.627 188.317 612.408 188.379 612.184 188.38C611.961 188.382 611.741 188.322 611.547 188.209C611.353 188.095 611.192 187.931 611.08 187.734C610.968 187.536 610.909 187.312 610.91 187.083V179.736C610.91 179.392 610.776 179.063 610.538 178.821C610.3 178.578 609.978 178.442 609.641 178.442H584.974C584.638 178.442 584.316 178.578 584.078 178.821C583.84 179.063 583.707 179.392 583.707 179.736V207.253C583.707 207.423 583.739 207.591 583.803 207.748C583.867 207.905 583.96 208.048 584.078 208.168C584.195 208.288 584.335 208.383 584.489 208.448C584.643 208.513 584.808 208.547 584.974 208.546H609.641C609.808 208.547 609.973 208.513 610.127 208.448C610.281 208.384 610.421 208.288 610.538 208.168C610.656 208.048 610.75 207.905 610.813 207.748C610.877 207.591 610.91 207.423 610.91 207.253V199.905C610.909 199.677 610.968 199.452 611.08 199.254C611.192 199.057 611.353 198.893 611.547 198.779C611.741 198.666 611.961 198.607 612.184 198.608C612.408 198.609 612.627 198.671 612.82 198.787L627.134 207.39C627.327 207.506 627.546 207.568 627.77 207.569C627.994 207.57 628.213 207.511 628.407 207.398C628.601 207.284 628.762 207.12 628.874 206.922C628.986 206.725 629.045 206.5 629.044 206.272V180.715C629.044 180.487 628.985 180.263 628.873 180.065C628.761 179.868 628.6 179.705 628.406 179.591C628.212 179.478 627.992 179.419 627.769 179.421C627.546 179.422 627.327 179.484 627.134 179.6Z" fill="white"/>
    <path d="M597.308 200.333C601.004 200.333 604 197.274 604 193.5C604 189.726 601.004 186.666 597.308 186.666C593.613 186.666 590.617 189.726 590.617 193.5C590.617 197.274 593.613 200.333 597.308 200.333Z" fill="#959CF6"/>
    <path d="M298.978 394.239C314.258 378.635 314.258 353.334 298.978 337.729C283.697 322.124 258.923 322.124 243.643 337.729C228.363 353.334 228.363 378.635 243.643 394.239C258.923 409.844 283.697 409.844 298.978 394.239Z" fill="#959CF6"/>
    <path d="M271.308 374.973C276.368 374.973 280.469 366.88 280.469 356.896C280.469 346.913 276.368 338.819 271.308 338.819C266.249 338.819 262.147 346.913 262.147 356.896C262.147 366.88 266.249 374.973 271.308 374.973Z" fill="white"/>
    <path d="M284.816 333.746H257.075V356.896H284.816V333.746Z" fill="white"/>
    <path d="M256.215 357.775H285.676V332.868H256.215V357.775ZM257.935 334.625H283.956V356.018H257.935V334.625Z" fill="#959CF6"/>
    <path d="M286.474 355.951C286.228 355.951 285.992 356.05 285.819 356.228C285.645 356.405 285.548 356.645 285.548 356.896C285.548 363.415 284.019 369.529 281.245 374.115C278.556 378.558 275.027 381.005 271.309 381.005C267.592 381.005 264.065 378.565 261.374 374.115C258.598 369.529 257.07 363.413 257.07 356.896C257.075 356.769 257.055 356.642 257.011 356.523C256.967 356.403 256.899 356.295 256.813 356.203C256.726 356.111 256.623 356.037 256.508 355.987C256.393 355.937 256.27 355.912 256.145 355.912C256.02 355.912 255.896 355.937 255.782 355.987C255.667 356.037 255.563 356.111 255.477 356.203C255.39 356.295 255.323 356.403 255.279 356.523C255.235 356.642 255.214 356.769 255.22 356.896C255.22 363.765 256.845 370.229 259.799 375.106C262.838 380.126 266.925 382.893 271.309 382.893C275.694 382.893 279.781 380.126 282.82 375.106C285.773 370.226 287.399 363.765 287.399 356.896C287.399 356.645 287.302 356.405 287.128 356.228C286.955 356.05 286.719 355.951 286.474 355.951Z" fill="white"/>
    <path d="M271.309 381.005C271.063 381.005 270.828 381.104 270.654 381.282C270.48 381.459 270.383 381.699 270.383 381.95V391.675C270.383 391.926 270.48 392.166 270.654 392.343C270.828 392.521 271.063 392.62 271.309 392.62C271.554 392.62 271.79 392.521 271.963 392.343C272.137 392.166 272.235 391.926 272.235 391.675V381.95C272.235 381.699 272.137 381.459 271.963 381.282C271.79 381.104 271.554 381.005 271.309 381.005Z" fill="white"/>
    <path d="M281.815 391.258H260.803C260.557 391.258 260.322 391.357 260.148 391.535C259.975 391.712 259.877 391.953 259.877 392.203C259.877 392.454 259.975 392.695 260.148 392.872C260.322 393.049 260.557 393.149 260.803 393.149H281.815C282.061 393.149 282.296 393.049 282.47 392.872C282.643 392.695 282.741 392.454 282.741 392.203C282.741 391.953 282.643 391.712 282.47 391.535C282.296 391.357 282.061 391.258 281.815 391.258Z" fill="white"/>
    <path d="M318.672 293.005H293.951C290.841 293.005 288.32 295.579 288.32 298.755V312.52C288.32 315.695 290.841 318.27 293.951 318.27H318.672C321.781 318.27 324.302 315.695 324.302 312.52V298.755C324.302 295.579 321.781 293.005 318.672 293.005Z" fill="white"/>
    <path d="M325.991 289.306H287.913C287.225 289.306 286.565 289.585 286.078 290.082C285.592 290.579 285.318 291.253 285.318 291.956V295.329C285.318 295.86 285.474 296.378 285.766 296.818C286.058 297.257 286.473 297.596 286.956 297.792L305.383 305.261C305.981 305.504 306.646 305.511 307.249 305.28L326.9 297.773C327.395 297.584 327.822 297.246 328.123 296.802C328.425 296.359 328.586 295.832 328.586 295.292V291.957C328.586 291.609 328.519 291.264 328.389 290.943C328.259 290.621 328.068 290.329 327.827 290.082C327.586 289.836 327.3 289.641 326.985 289.507C326.67 289.374 326.332 289.306 325.991 289.306Z" fill="#959CF6"/>
    <path d="M385.93 105.995C385.722 105.995 385.515 106.037 385.323 106.118C385.13 106.199 384.955 106.319 384.807 106.47C384.66 106.62 384.543 106.799 384.463 106.996C384.384 107.193 384.343 107.403 384.343 107.616V154.737C384.343 155.167 384.51 155.58 384.808 155.884C385.105 156.188 385.509 156.359 385.93 156.359H417.056C417.264 156.359 417.471 156.317 417.664 156.235C417.856 156.154 418.031 156.034 418.179 155.884C418.326 155.733 418.443 155.555 418.523 155.358C418.602 155.161 418.644 154.95 418.644 154.737V118.202L406.697 106.002L385.93 105.995Z" fill="white"/>
    <path d="M385.93 105.835C385.468 105.836 385.025 106.024 384.698 106.358C384.371 106.691 384.187 107.144 384.187 107.616V154.737C384.187 155.21 384.371 155.662 384.698 155.996C385.025 156.33 385.468 156.518 385.93 156.518H417.056C417.519 156.518 417.962 156.33 418.289 155.996C418.616 155.662 418.8 155.21 418.8 154.737V118.128L406.757 105.829L385.93 105.835ZM418.489 154.744C418.488 155.131 418.338 155.503 418.069 155.777C417.801 156.051 417.437 156.205 417.058 156.205H385.932C385.553 156.205 385.189 156.051 384.921 155.777C384.652 155.503 384.501 155.131 384.501 154.744V107.623C384.501 107.235 384.652 106.863 384.92 106.589C385.188 106.315 385.552 106.161 385.932 106.161H406.636L418.49 118.267L418.489 154.744Z" fill="#818DF9"/>
    <path d="M406.699 116.207C406.698 116.469 406.748 116.728 406.846 116.97C406.943 117.212 407.086 117.432 407.267 117.617C407.448 117.803 407.663 117.95 407.9 118.05C408.137 118.15 408.39 118.202 408.647 118.202H418.646L406.699 106.002V116.207Z" fill="#818DF9"/>
    <path d="M393.385 119.523C395.329 119.523 396.905 117.914 396.905 115.929C396.905 113.944 395.329 112.335 393.385 112.335C391.442 112.335 389.866 113.944 389.866 115.929C389.866 117.914 391.442 119.523 393.385 119.523Z" fill="#818DF9"/>
    <path d="M411.368 123.385H391.623C390.653 123.385 389.866 124.188 389.866 125.179V126.417C389.866 127.408 390.653 128.211 391.623 128.211H411.368C412.338 128.211 413.124 127.408 413.124 126.417V125.179C413.124 124.188 412.338 123.385 411.368 123.385Z" fill="#818DF9"/>
    <path d="M412.846 132.899H389.866V150.024H412.846V132.899Z" fill="#DADFFE"/>
    <path d="M406.153 143.893L401.945 139.242L398.354 143.542L387.521 134.803L387.106 152.35L414.433 153.056V147.7L408.015 142.123L406.153 143.893Z" fill="#818DF9"/>
    <path d="M461.979 114.186C461.979 114.186 452.419 117.85 449.452 112.565C446.485 107.279 444.76 103.475 449.452 101.149C454.145 98.8232 438.687 88.3927 449.244 82.7557C459.802 77.1188 459.183 86.067 465.186 84.5879C471.189 83.1087 477.746 80.3582 483.3 89.3798C483.3 89.3798 485.474 92.1464 488.527 91.5107C491.58 90.8749 500.242 94.6654 498.381 100.935C496.52 107.204 496.035 107.842 498.035 111.295C500.036 114.748 499.967 120.361 493.895 121.997C487.823 123.633 486.027 121.095 480.913 125.671C475.798 130.247 461.979 114.186 461.979 114.186Z" fill="#581C21"/>
    <path d="M451.453 84.4808C451.338 84.5127 448.586 85.2651 447.747 87.5844C447.19 89.1274 447.62 90.9531 449.029 93.0153C449.065 93.0682 449.113 93.1115 449.169 93.1412C449.225 93.171 449.287 93.1864 449.35 93.1862C449.43 93.1858 449.508 93.1607 449.573 93.1143C449.658 93.0537 449.716 92.9611 449.735 92.8569C449.753 92.7526 449.73 92.6453 449.67 92.5584C448.419 90.7279 448.017 89.1497 448.48 87.8671C449.173 85.9407 451.627 85.2619 451.651 85.2555C451.751 85.2288 451.837 85.1625 451.889 85.0711C451.942 84.9797 451.957 84.8708 451.931 84.7683C451.904 84.6658 451.839 84.578 451.75 84.5244C451.661 84.4708 451.554 84.4557 451.453 84.4824V84.4808Z" fill="#A53434"/>
    <path d="M474.201 85.0622C474.101 85.0399 471.666 84.5175 465.84 86.364C460.403 88.0875 457.423 83.7061 457.3 83.5192C457.242 83.4313 457.152 83.3705 457.05 83.3501C456.948 83.3297 456.843 83.3515 456.757 83.4106C456.671 83.4697 456.611 83.5613 456.591 83.6652C456.571 83.7692 456.593 83.877 456.651 83.9649C456.679 84.008 459.075 87.5572 463.404 87.5572C464.309 87.5525 465.209 87.4077 466.071 87.1275C471.653 85.3577 474.009 85.8369 474.031 85.8417C474.132 85.8648 474.238 85.8459 474.326 85.7891C474.413 85.7323 474.475 85.6424 474.498 85.539C474.52 85.4357 474.502 85.3273 474.446 85.2379C474.391 85.1485 474.303 85.0853 474.201 85.0622Z" fill="#A53434"/>
    <path d="M490.298 93.2644C487.276 93.7293 484.658 93.0807 482.518 91.3381C481.563 90.5742 480.765 89.6241 480.172 88.5428C480.126 88.4477 480.045 88.375 479.947 88.3409C479.849 88.3067 479.741 88.3139 479.648 88.3607C479.555 88.4075 479.484 88.4901 479.451 88.5905C479.417 88.6909 479.424 88.8007 479.47 88.8958C480.102 90.0732 480.961 91.1081 481.994 91.9387C483.324 93.0296 485.46 94.2053 488.485 94.2053C489.128 94.2041 489.77 94.154 490.406 94.0551C490.458 94.0474 490.507 94.0293 490.551 94.0021C490.596 93.9749 490.635 93.9389 490.666 93.8964C490.697 93.8538 490.719 93.8054 490.732 93.754C490.744 93.7026 490.747 93.6491 490.739 93.5967C490.732 93.5442 490.714 93.4938 490.687 93.4484C490.661 93.4029 490.626 93.3632 490.584 93.3316C490.542 93.3 490.495 93.2771 490.444 93.2642C490.394 93.2513 490.342 93.2487 490.29 93.2565L490.298 93.2644Z" fill="#A53434"/>
    <path d="M471.719 88.0253C469.937 88.0389 468.177 88.4391 466.558 89.1993C466.465 89.2474 466.395 89.331 466.363 89.4318C466.331 89.5326 466.339 89.6423 466.386 89.7368C466.433 89.8313 466.515 89.9028 466.614 89.9356C466.713 89.9684 466.82 89.9598 466.913 89.9117C468.437 89.2074 470.088 88.8369 471.761 88.8239C475.407 88.8032 478.464 90.5586 480.833 94.036C480.861 94.0821 480.898 94.1218 480.942 94.1528C480.985 94.1839 481.034 94.2055 481.086 94.2165C481.138 94.2275 481.192 94.2275 481.244 94.2167C481.296 94.2058 481.345 94.1843 481.389 94.1533C481.432 94.1224 481.469 94.0827 481.497 94.0368C481.525 93.9908 481.544 93.9394 481.552 93.8859C481.56 93.8323 481.557 93.7776 481.544 93.7252C481.531 93.6727 481.507 93.6236 481.474 93.5808C478.317 88.9501 474.436 88.0029 471.719 88.0253Z" fill="#A53434"/>
    <path d="M471.81 125.955C471.81 125.955 472.984 133.707 467.601 134.201L479.677 161.897L487.82 132.932C487.82 132.932 480.712 132.972 482.783 120.443L471.81 125.955Z" fill="#FCCFCF"/>
    <g style="mix-blend-mode:multiply">
        <g style="mix-blend-mode:multiply">
            <path d="M469.451 121.577L469.872 130.58C482.48 131.496 482.766 119.037 482.766 119.037L481.144 115.245L469.451 121.577Z" fill="#FCCFCF"/>
        </g>
    </g>
    <path d="M485.604 113.763C485.604 113.763 488.407 112.768 489.096 114.975C489.786 117.183 486.337 121.92 483.3 119.991L485.604 113.763Z" fill="#FCCFCF"/>
    <g style="mix-blend-mode:multiply">
        <g style="mix-blend-mode:multiply">
            <path d="M482.398 111.285L479.337 118.782L482.934 122.615C487.426 118.747 487.218 111.498 487.218 111.498L482.398 111.285Z" fill="#FCCFCF"/>
        </g>
    </g>
    <path d="M468.291 106.089L456.282 110.215C456.314 111.899 456.547 113.573 456.975 115.199C457.521 117.331 458.499 119.831 460.249 121.989C461.903 124.046 464.101 125.574 466.582 126.39C477.038 129.931 486.818 122.055 486.25 111.749L468.291 106.089Z" fill="#FCCFCF"/>
    <g style="mix-blend-mode:multiply">
        <g style="mix-blend-mode:multiply">
            <path d="M458.251 114.975C457.816 114.975 457.384 115.053 456.975 115.205C457.52 117.338 458.498 119.838 460.248 121.996C460.933 121.555 461.46 120.899 461.747 120.127C462.035 119.354 462.069 118.507 461.843 117.713C461.617 116.919 461.145 116.222 460.497 115.726C459.849 115.231 459.06 114.965 458.251 114.967V114.975Z" fill="#FFC1C0"/>
        </g>
    </g>
    <g style="mix-blend-mode:multiply">
        <g style="mix-blend-mode:multiply">
            <path d="M477.951 114.975C477.214 114.975 476.493 115.199 475.88 115.617C475.266 116.036 474.789 116.63 474.506 117.326C474.224 118.022 474.15 118.788 474.294 119.527C474.438 120.266 474.794 120.944 475.315 121.477C475.837 122.009 476.502 122.372 477.225 122.518C477.948 122.665 478.698 122.589 479.379 122.301C480.061 122.013 480.643 121.524 481.052 120.898C481.462 120.271 481.68 119.535 481.68 118.782C481.68 118.282 481.584 117.787 481.396 117.325C481.209 116.863 480.934 116.443 480.588 116.09C480.242 115.736 479.831 115.456 479.378 115.265C478.926 115.073 478.441 114.975 477.951 114.975Z" fill="#FFC1C0"/>
        </g>
    </g>
    <path d="M469.094 119.248C468.541 120.063 467.937 120.48 467.3 120.483H467.291C466.196 120.483 465.322 119.259 465.312 119.247C465.287 119.216 465.251 119.197 465.212 119.192C465.173 119.187 465.134 119.197 465.102 119.221C465.071 119.244 465.049 119.278 465.04 119.318C465.032 119.357 465.039 119.397 465.059 119.432C465.098 119.488 466.029 120.802 467.291 120.802H467.302C468.046 120.802 468.736 120.336 469.351 119.43C469.372 119.395 469.379 119.354 469.371 119.314C469.363 119.274 469.34 119.238 469.307 119.215C469.274 119.191 469.234 119.182 469.194 119.188C469.155 119.194 469.119 119.216 469.094 119.248Z" fill="#333333"/>
    <path d="M465.774 111.584C465.743 111.556 465.703 111.542 465.662 111.544C465.62 111.546 465.581 111.565 465.554 111.597C465.494 111.662 464.123 113.245 464.489 114.233C464.637 114.632 465.028 114.871 465.652 114.945H465.67C465.711 114.947 465.752 114.933 465.783 114.905C465.814 114.877 465.833 114.837 465.835 114.795C465.838 114.752 465.824 114.711 465.796 114.679C465.769 114.647 465.73 114.628 465.688 114.625C465.189 114.566 464.884 114.395 464.781 114.119C464.533 113.448 465.422 112.223 465.787 111.808C465.814 111.776 465.828 111.735 465.825 111.693C465.823 111.652 465.805 111.612 465.774 111.584Z" fill="#333333"/>
    <path d="M468.705 131.875L479.106 156.102L485.405 130.747C485.405 130.747 523.5 133.851 532.609 147.311C541.719 160.772 543.647 237.022 543.647 237.022H446.14L453.386 137.02C453.386 137.02 461.355 132.65 468.705 131.875Z" fill="#EE4250"/>
    <g style="mix-blend-mode:multiply">
        <g style="mix-blend-mode:multiply">
            <path d="M499.582 200.905C488.438 220.148 471.419 222.424 471.419 222.424L475.472 242.496L551.251 242.288L555.91 158.692L508.092 168.837C508.092 168.837 510.723 181.66 499.582 200.905Z" fill="#EE4250"/>
        </g>
    </g>
    <g style="mix-blend-mode:multiply">
        <g style="mix-blend-mode:multiply">
            <path d="M454.704 158.383C448.726 163.973 448.219 202.56 448.219 202.56L453.693 202.456C450.654 192.835 455.82 165.417 455.82 165.417L454.704 158.383Z" fill="#EE4250"/>
        </g>
    </g>
    <path d="M455.717 135.862L465.962 141.772L464.565 148.696L479.211 156.363L469.223 131.52C465.704 131.206 455.717 135.862 455.717 135.862Z" fill="#FF8998"/>
    <path d="M484.853 130.413L479.211 156.365L492.819 145.634L487.078 139.287L494.769 131.907C494.769 131.907 487.233 130.201 484.853 130.413Z" fill="#FF8998"/>
    <path d="M454.852 136.456C454.852 136.456 446.14 137.654 434.961 155.305C423.782 172.955 431.234 188.602 415.707 201.605L422.12 216.939L451.828 213.874C451.828 213.874 447.278 184.909 455.712 164.401L454.852 136.456Z" fill="#EE4250"/>
    <path d="M483.207 170.563C483.574 168.972 482.61 167.378 481.052 167.003C479.494 166.627 477.933 167.613 477.565 169.204C477.197 170.795 478.162 172.389 479.72 172.764C481.278 173.14 482.839 172.154 483.207 170.563Z" fill="white"/>
    <path d="M483.08 186.779C483.692 185.269 482.99 183.538 481.511 182.912C480.032 182.287 478.337 183.004 477.724 184.514C477.112 186.024 477.814 187.756 479.293 188.381C480.772 189.007 482.467 188.29 483.08 186.779Z" fill="white"/>
    <path d="M483.078 202.53C483.69 201.02 482.988 199.288 481.509 198.663C480.03 198.037 478.335 198.754 477.722 200.265C477.11 201.775 477.812 203.506 479.291 204.132C480.77 204.757 482.465 204.04 483.078 202.53Z" fill="white"/>
    <path d="M445.725 386.813L453.592 408.483L479.367 402.351L476.572 373.492L445.725 386.813Z" fill="#FCCFCF"/>
    <g style="mix-blend-mode:multiply">
        <g style="mix-blend-mode:multiply">
            <path d="M442.104 385.65L446.347 395.762L482.267 389.667L479.368 370.111L442.104 385.65Z" fill="#FCCFCF"/>
        </g>
    </g>
    <path d="M370.369 379.519L363.95 403.338L386.999 412.007L400.94 386.178L370.369 379.519Z" fill="#FCCFCF"/>
    <g style="mix-blend-mode:multiply">
        <g style="mix-blend-mode:multiply">
            <path d="M365.711 387.657L400.939 396.77L406.184 382.056L367.987 375.396L365.711 387.657Z" fill="#FCCFCF"/>
        </g>
    </g>
    <path d="M418.646 287.71L437.29 394.424L486.82 386.178L472.535 278.354L418.646 287.71Z" fill="#4B6F99"/>
    <path d="M460.047 271.656L459.118 271.795L478.156 403.935L479.084 403.795L460.047 271.656Z" fill="white"/>
    <g style="mix-blend-mode:multiply">
        <g style="mix-blend-mode:multiply">
            <path d="M389.002 267.254L398.543 352.01L427.186 369.421L447.438 308.068C447.661 307.393 448.115 306.824 448.716 306.464C449.317 306.104 450.026 305.978 450.71 306.109L487.952 313.256L492.811 264.502L426.949 255.412L389.002 267.254Z" fill="#4B6F99"/>
        </g>
    </g>
    <path d="M430.053 239.119L545.283 240.86C545.374 240.861 545.463 240.893 545.534 240.951C545.606 241.009 545.657 241.089 545.679 241.18C546.993 246.312 562.679 313.146 486.999 308.485H486.956L446.476 301.776C446.381 301.76 446.284 301.779 446.2 301.828C446.117 301.878 446.054 301.955 446.021 302.047L411.484 396.499C411.448 396.597 411.377 396.679 411.285 396.727C411.194 396.776 411.088 396.788 410.988 396.761L356.535 381.971C356.479 381.956 356.426 381.928 356.38 381.89C356.335 381.853 356.298 381.806 356.271 381.752C356.245 381.699 356.23 381.64 356.227 381.581C356.224 381.521 356.234 381.461 356.255 381.406C359.357 373.392 403.635 259.34 413.223 256.688C422.407 254.148 428.762 241.296 429.673 239.364C429.706 239.29 429.759 239.227 429.827 239.184C429.894 239.14 429.973 239.118 430.053 239.119Z" fill="#4B6F99"/>
    <path d="M518.338 228.917C518.338 229.008 518.948 238.151 515.053 248.163C512.776 254.025 509.422 259.038 505.088 263.06C499.669 268.091 492.682 271.585 484.322 273.443C478.73 274.687 474.031 275.645 469.888 276.49C446.869 281.186 444.989 281.57 435.287 302.245C424.099 326.085 394.713 401.414 394.417 402.171L395.293 402.525C395.589 401.768 424.964 326.472 436.138 302.659C441.068 292.152 443.821 287.261 448.11 284.181C452.527 281.011 458.76 279.739 470.076 277.431C474.224 276.584 478.925 275.626 484.527 274.379C493.057 272.481 500.196 268.905 505.742 263.75C510.183 259.624 513.616 254.485 515.945 248.48C519.903 238.268 519.281 228.936 519.275 228.844L518.338 228.917Z" fill="white"/>
    <path d="M429.785 234.481V242.569H546.131L543.592 234.481H429.785Z" fill="#674D50"/>
    <path d="M460.107 400.081C459.126 399.327 446.251 389.64 445.874 400.561C445.872 400.634 445.877 400.707 445.889 400.779C446.007 401.434 446.693 404.765 448.928 406.971C449.106 407.144 449.214 407.378 449.231 407.628C449.247 407.878 449.172 408.126 449.019 408.322C445.834 412.366 431.04 431.41 433.222 433.24C435.457 435.124 477.118 420.471 483.927 418.066C484.048 418.022 484.16 417.955 484.256 417.867C484.352 417.779 484.43 417.673 484.486 417.554C484.542 417.435 484.574 417.306 484.581 417.175C484.588 417.043 484.569 416.912 484.526 416.788L480.483 405.401C480.428 405.247 480.412 405.083 480.434 404.921L481.451 397.523C481.485 397.282 481.431 397.037 481.301 396.834C481.17 396.631 480.972 396.484 480.742 396.42C479.538 396.087 477.225 395.919 475.351 398.58C475.295 398.66 475.228 398.731 475.152 398.791C474.203 399.535 467.676 404.273 460.235 400.163C460.19 400.139 460.148 400.112 460.107 400.081Z" fill="#FCBA44"/>
    <g style="mix-blend-mode:multiply">
        <g style="mix-blend-mode:multiply">
            <path d="M470.468 420.171L486.611 415.234L483.014 405.011C483.014 405.011 469.301 405.755 470.468 420.171Z" fill="#FCBA44"/>
        </g>
    </g>
    <g style="mix-blend-mode:multiply">
        <g style="mix-blend-mode:multiply">
            <path d="M442.238 411.595C442.149 411.609 442.064 411.642 441.989 411.692C441.913 411.741 441.848 411.806 441.798 411.883C441.749 411.959 441.715 412.046 441.7 412.136C441.685 412.227 441.688 412.32 441.71 412.409C441.732 412.498 441.771 412.581 441.827 412.654C441.882 412.726 441.951 412.786 442.03 412.83C442.109 412.874 442.197 412.9 442.286 412.907C442.376 412.915 442.466 412.903 442.551 412.873C442.645 412.85 452.036 410.584 456.45 414.369C456.581 414.482 456.751 414.537 456.922 414.522C457.094 414.507 457.252 414.423 457.362 414.289C457.473 414.154 457.527 413.981 457.512 413.806C457.497 413.631 457.415 413.47 457.283 413.357C452.36 409.148 442.648 411.493 442.238 411.595Z" fill="#FCBA44"/>
        </g>
    </g>
    <g style="mix-blend-mode:multiply">
        <g style="mix-blend-mode:multiply">
            <path d="M449.615 419.467C445.771 416.496 437.34 418.229 436.984 418.304C436.9 418.321 436.821 418.355 436.751 418.404C436.681 418.453 436.62 418.515 436.574 418.588C436.479 418.734 436.445 418.913 436.48 419.085C436.515 419.257 436.615 419.407 436.758 419.504C436.902 419.6 437.077 419.635 437.245 419.599C437.328 419.582 445.456 417.911 448.835 420.521C448.93 420.594 449.043 420.639 449.162 420.652C449.28 420.664 449.4 420.642 449.507 420.59C449.606 420.54 449.691 420.465 449.754 420.373C449.816 420.28 449.855 420.173 449.866 420.061C449.877 419.949 449.859 419.836 449.815 419.733C449.772 419.63 449.703 419.54 449.615 419.471V419.467Z" fill="#FCBA44"/>
        </g>
    </g>
    <path d="M430.044 430.421L486.489 413.421L487.941 421.95L430.327 438.027L430.044 430.421Z" fill="#FCBA44"/>
    <g style="mix-blend-mode:multiply">
        <g style="mix-blend-mode:multiply">
            <path d="M496.722 413.764H428.751V437.432H496.722V413.764Z" fill="#FCBA44"/>
        </g>
    </g>
    <path d="M372.976 397.521C372.711 396.297 369.074 380.393 361.842 388.443C361.794 388.498 361.751 388.557 361.715 388.621C361.386 389.197 359.793 392.186 360.091 395.344C360.117 395.592 360.051 395.841 359.906 396.043C359.762 396.244 359.549 396.383 359.309 396.433C354.317 397.392 330.958 402.078 331.448 404.913C331.95 407.827 372.956 424.297 379.668 426.974C379.789 427.022 379.918 427.046 380.047 427.043C380.177 427.04 380.305 427.011 380.424 426.957C380.543 426.903 380.649 426.825 380.738 426.729C380.827 426.632 380.897 426.518 380.942 426.394L385.103 415.077C385.158 414.924 385.25 414.788 385.37 414.681L390.845 409.729C391.022 409.568 391.136 409.345 391.164 409.104C391.193 408.863 391.135 408.62 391.001 408.419C390.296 407.368 388.644 405.704 385.527 406.49C385.433 406.513 385.337 406.523 385.241 406.519C384.046 406.455 376.07 405.733 373.022 397.674C373.003 397.624 372.988 397.573 372.976 397.521Z" fill="#F9BB45"/>
    <g style="mix-blend-mode:multiply">
        <g style="mix-blend-mode:multiply">
            <path d="M368.092 419.671L383.509 426.616L387.272 416.456C387.272 416.456 376.367 407.932 368.092 419.671Z" fill="#FCBA44"/>
        </g>
    </g>
    <g style="mix-blend-mode:multiply">
        <g style="mix-blend-mode:multiply">
            <path d="M352.066 394.435C351.99 394.392 351.906 394.364 351.82 394.355C351.733 394.346 351.645 394.354 351.562 394.38C351.478 394.406 351.401 394.449 351.334 394.506C351.268 394.564 351.213 394.634 351.173 394.714C351.134 394.793 351.111 394.88 351.105 394.969C351.099 395.058 351.111 395.147 351.14 395.231C351.168 395.315 351.214 395.392 351.272 395.458C351.331 395.524 351.402 395.577 351.481 395.614C351.567 395.659 360.153 400.16 361.104 405.966C361.124 406.091 361.179 406.208 361.262 406.302C361.345 406.396 361.453 406.463 361.573 406.496C361.662 406.52 361.755 406.524 361.845 406.509C362.014 406.48 362.165 406.383 362.265 406.24C362.365 406.098 362.405 405.92 362.377 405.747C361.321 399.281 352.443 394.63 352.066 394.435Z" fill="#FCBA44"/>
        </g>
    </g>
    <g style="mix-blend-mode:multiply">
        <g style="mix-blend-mode:multiply">
            <path d="M343.805 396.056C343.731 396.014 343.649 395.988 343.564 395.978C343.48 395.968 343.394 395.976 343.313 396C343.231 396.024 343.155 396.064 343.088 396.119C343.022 396.173 342.966 396.24 342.925 396.316C342.884 396.392 342.858 396.475 342.849 396.562C342.839 396.648 342.847 396.735 342.87 396.819C342.894 396.902 342.933 396.98 342.986 397.048C343.039 397.116 343.105 397.172 343.179 397.214C343.253 397.256 350.499 401.367 351.41 405.599C351.436 405.718 351.493 405.827 351.576 405.915C351.659 406.002 351.764 406.065 351.879 406.096C351.979 406.121 352.083 406.121 352.182 406.096C352.266 406.077 352.344 406.042 352.414 405.992C352.484 405.943 352.543 405.879 352.589 405.806C352.635 405.733 352.667 405.652 352.682 405.566C352.697 405.481 352.695 405.393 352.677 405.308C351.64 400.505 344.126 396.235 343.805 396.056Z" fill="#FCBA44"/>
        </g>
    </g>
    <path d="M330.825 400.674L384.571 425.156L380.252 432.608L326.206 406.646L330.825 400.674Z" fill="#F9BB45"/>
    <g style="mix-blend-mode:multiply">
        <g style="mix-blend-mode:multiply">
            <path d="M385.818 399.888H330V429.015H385.818V399.888Z" fill="#F9BB45"/>
        </g>
    </g>
    <path d="M485.44 102.535L481.145 112.079C481.145 112.079 487.856 114.231 490.373 114.617C492.889 115.004 491.876 112.356 491.876 112.356L485.44 102.535Z" fill="#4C56A1"/>
    <path d="M483.329 100.77H453.348C452.124 100.77 451.132 101.784 451.132 103.034V110.535C451.132 111.785 452.124 112.798 453.348 112.798H483.329C484.553 112.798 485.545 111.785 485.545 110.535V103.034C485.545 101.784 484.553 100.77 483.329 100.77Z" fill="#8191E1"/>
    <path d="M480.034 102.083H456.646C454.133 102.083 452.096 104.164 452.096 106.73V106.837C452.096 109.403 454.133 111.484 456.646 111.484H480.034C482.547 111.484 484.584 109.403 484.584 106.837V106.73C484.584 104.164 482.547 102.083 480.034 102.083Z" fill="#10174E"/>
    <path d="M454.53 114.033H463.098L467.203 99.7768L458.325 99.9445L454.53 114.033Z" fill="#B3B7C7"/>
    <path d="M469.015 114.033H477.584L481.689 99.7768L472.811 99.9445L469.015 114.033Z" fill="#B3B7C7"/>
    <path d="M525.315 141.104L503.899 168.626C503.899 168.626 512.697 209.326 483.3 223.173L486.043 244.43C486.043 244.43 532.003 259.167 544.58 216.196C557.157 173.225 541.001 147.534 525.315 141.104Z" fill="#EE4250"/>
    <path d="M486.275 220.637H482.576C480.861 220.637 479.471 222.056 479.471 223.807V242.124C479.471 243.875 480.861 245.295 482.576 245.295H486.275C487.989 245.295 489.38 243.875 489.38 242.124V223.807C489.38 222.056 487.989 220.637 486.275 220.637Z" fill="#FF8998"/>
    <path d="M561.864 246.869H328.136V259.433H561.864V246.869Z" fill="#7470E8"/>
    <path d="M556.276 259.432H333.727V265.67H556.276V259.432Z" fill="#7470E8"/>
    <g style="mix-blend-mode:multiply">
        <g style="mix-blend-mode:multiply">
            <path d="M564.535 252.351H328.137V260.706H564.535V252.351Z" fill="#7470E8"/>
        </g>
    </g>
    <path d="M562.891 417.363H560.235L543.039 265.668H549.665L562.891 417.363Z" fill="#7470E8"/>
    <g style="mix-blend-mode:multiply">
        <g style="mix-blend-mode:multiply">
            <path d="M565.025 260.706H328.137V267.505H565.025V260.706Z" fill="#7470E8"/>
        </g>
    </g>
    <path d="M327.062 417.363H329.718L346.912 265.668H340.288L327.062 417.363Z" fill="#7470E8"/>
    <g style="mix-blend-mode:multiply">
        <g style="mix-blend-mode:multiply">
            <path d="M565.025 260.706H328.137V267.505H565.025V260.706Z" fill="#7470E8"/>
        </g>
    </g>
    <path d="M445.225 246.869H370.356C370.243 246.878 370.131 246.842 370.043 246.769C369.956 246.695 369.9 246.59 369.887 246.475V242.569H440.067C440.256 242.567 440.442 242.627 440.595 242.74L445.424 246.475C445.603 246.617 445.48 246.869 445.225 246.869Z" fill="#4A44C8"/>
    <path d="M461.981 229.411H361.222V255.415H461.981V229.411Z" fill="#4A44C8"/>
    <path d="M432.831 242.569H371.631L361.376 192.024C360.659 188.487 362.528 184.959 365.119 184.959H412.602C414.339 184.959 417.984 184.959 419.295 189.663L432.831 242.569Z" fill="#959CF6"/>
    <g style="mix-blend-mode:multiply">
        <g style="mix-blend-mode:multiply">
            <path d="M357.121 252.137H404.944L359.708 175.287L357.121 252.137Z" fill="#959CF6"/>
        </g>
    </g>
    <path d="M374.236 226.873H372.277C370.982 226.873 369.72 227.288 368.668 228.059C367.616 228.83 366.827 229.918 366.413 231.171L361.222 246.869H372.469L377.532 231.562C377.709 231.028 377.759 230.458 377.677 229.9C377.595 229.342 377.385 228.812 377.063 228.354C376.741 227.895 376.316 227.522 375.825 227.264C375.333 227.007 374.789 226.873 374.236 226.873Z" fill="#AAB7F6"/>
    <path d="M407.87 226.873H405.911C404.616 226.873 403.354 227.288 402.302 228.059C401.25 228.83 400.461 229.918 400.047 231.171L394.855 246.869H406.103L411.166 231.562C411.343 231.028 411.392 230.458 411.311 229.9C411.229 229.342 411.019 228.812 410.697 228.354C410.374 227.895 409.95 227.522 409.459 227.264C408.967 227.007 408.423 226.873 407.87 226.873Z" fill="#AAB7F6"/>
    <path d="M486.978 242.569H432.83L423.515 206.075C422.862 203.52 424.561 200.974 426.915 200.974H473.697C475.276 200.974 476.661 202.152 477.099 203.863L486.978 242.569Z" fill="white"/>
    <path d="M415.707 185.646V259.432H481.145L424.744 185.646H415.707Z" fill="#EAEAEA"/>
    <path d="M503.537 242.74C503.383 242.627 503.197 242.567 503.007 242.569H432.83V246.475C432.843 246.59 432.899 246.696 432.986 246.769C433.074 246.843 433.186 246.879 433.299 246.869H508.168C508.422 246.869 508.545 246.617 508.362 246.475L503.537 242.74Z" fill="#D3D3D3"/>
    <path d="M456.821 229.61C459.93 226.434 459.93 221.285 456.821 218.11C453.711 214.934 448.669 214.934 445.559 218.11C442.45 221.285 442.45 226.434 445.559 229.61C448.669 232.786 453.711 232.786 456.821 229.61Z" fill="#AACFFE"/>
    <g style="mix-blend-mode:multiply">
        <g style="mix-blend-mode:multiply">
            <path d="M415.707 185.646V259.432H481.145L424.744 185.646H415.707Z" fill="#F0F5FE"/>
        </g>
    </g>
</svg>
