<svg enable-background="new 0 0 2000 2000" viewBox="0 0 2000 2000" xmlns="http://www.w3.org/2000/svg"><path d="m1789.54 584.51c-22.67-138.43-95.09-264.23-204.7-351.77-101.71-81.23-251.04-142.91-459.06-101.77-468.06 92.57-297.04 790.71-617.84 929.57s-324.57 387-212.75 546.43 723.45 339.82 1200.63-35.81c358.79-282.42 330.07-764.71 293.72-986.65z" fill="#e9f3ff"/><path d="m379.78 579.12h296.04c8.79 0 15.91-7.12 15.91-15.91v-364.15c0-8.79-7.12-15.91-15.91-15.91h-296.04c-8.79 0-15.91 7.12-15.91 15.91v364.15c0 8.79 7.12 15.91 15.91 15.91z" fill="#bac9fb"/><path d="m691.72 469.46-22.2-72.08c-8.39-27.22-32.05-46.93-60.34-50.24l-141.13-16.52c-30.11-3.53-59.19 12.22-72.71 39.35l-31.47 63.19v130.71c0 8.42 6.83 15.25 15.25 15.25h297.35c8.42 0 15.25-6.83 15.25-15.25z" fill="#d8b91d"/><path d="m475.27 242.73s-10.48-31.13 1.62-47.23 26.47-12.24 26.47-12.24 14.57-36.03 52.58-46.37c38.01-10.33 55.19 7.95 35.29 22.66 0 0 20.32-1.24 28.18 18.25 7.87 19.49-9.53 33.92-9.53 33.92s15.17 4.02 13.07 12.41c-5.5 21.98-51.33 59.8-147.68 18.6z" fill="#f74f43"/><path d="m499.38 254.72s-8.23-18.11-24.11-11.99c-15.88 6.11-13.61 45.22 15.22 42.15l-1.3 51.89c-.54 21.7 16.61 39.74 38.32 40.28 21.7.54 39.74-16.61 40.28-38.32l1.34-53.51z" fill="#f4a88e"/><path d="m490.49 284.88-.22 8.85s20.03 59.47 77.52 45l1.74-33.25z" fill="#052451"/><path d="m593.41 226.02c5.84-.08 10.69 4.46 10.98 10.29.93 18.42 1.48 56.38-8.21 73.45-13.05 23-81.64 32.67-105.69-24.88l1.18-47.03c.15-5.82 4.87-10.49 10.69-10.57z" fill="#f4a88e"/><g fill="#052451"><path d="m478.86 252.76c2.41 1.59 4.26 4.01 5.65 6.5 1.36 2.44 2.24 5.16 2.59 7.93.22 1.7-2.41 2.13-2.63.43-.32-2.5-1.09-4.88-2.3-7.09-1.19-2.17-2.82-4.26-4.9-5.63-1.43-.94.16-3.08 1.59-2.14z"/><path d="m482.97 260.41c-.06.03-.46.21-.13.05-.11.05-.21.14-.31.22s-.2.16-.29.24c-.05.04-.09.09-.14.13.12-.13.14-.15.04-.04-.17.2-.33.39-.47.6-.07.11-.14.22-.2.32-.14.23.12-.23-.04.08-.26.52-.46 1.08-.62 1.65-.02.05-.13.54-.06.22-.04.15-.07.31-.1.46-.07.31-.13.61-.19.92-.14.68-.71 1.29-1.47 1.18-.66-.1-1.32-.74-1.18-1.47.28-1.4.55-2.85 1.23-4.11.66-1.23 1.56-2.27 2.83-2.88.63-.3 1.5.02 1.76.67.28.69.01 1.44-.66 1.76z"/><path d="m576.99 276.44c1.21-1.05 1.76-2.72 2.23-4.21.49-1.59.74-3.37-.03-4.91-.76-1.54-2.33-1.75-3.88-1.88-2.11-.18-4.22-.25-6.33-.22-.72.01-1.25-.81-1.18-1.47.09-.78.74-1.17 1.47-1.18 2.45-.03 4.95 0 7.38.33 2.24.3 4.1 1.4 5.05 3.5s.69 4.42.06 6.57c-.6 2.04-1.46 4.11-3.1 5.53-1.3 1.14-2.96-.93-1.67-2.06z"/><circle cx="538.75" cy="258.52" r="7.48"/><circle cx="589.5" cy="255.52" r="7.48"/><path d="m529.61 245.52c3.71-3.61 9.64-4.73 14.39-2.62.61.27 1.34.15 1.69-.47.3-.54.14-1.42-.47-1.69-5.8-2.57-12.83-1.38-17.39 3.05-1.15 1.11.64 2.84 1.78 1.73z"/><path d="m579.57 241.82c3.69-2.81 8.92-2.88 12.68-.16.54.39 1.39.07 1.69-.47.36-.64.07-1.3-.47-1.69-4.4-3.18-10.87-3.09-15.19.19-.53.41-.8 1.09-.42 1.71.32.52 1.17.83 1.71.42z"/><path d="m542.78 295.5c1.35 3.92 4.71 6.65 8.57 7.93 3.57 1.19 8.15 1.01 10.76-2.04 1.04-1.21-.74-2.95-1.78-1.74-2.06 2.41-5.61 2.28-8.38 1.36-2.99-.99-5.74-3.18-6.78-6.22-.52-1.5-2.91-.81-2.39.71z"/></g><path d="m526.79 381.05h.16c43.04-1.18 48.26-37.86 48.31-38.23l-7.85-1.05c-.17 1.24-4.53 30.29-40.62 31.28-.14-.02-17.2.01-28.3-11.27-6.68-6.79-9.98-16.42-9.8-28.62l-7.91-.12c-.21 14.47 3.88 26.06 12.16 34.44 13.03 13.19 31.76 13.57 33.85 13.57z" fill="#fff"/><path d="m410.48 580.62c-.1 0-.19-.01-.29-.03-.81-.16-1.34-.95-1.18-1.76l33.75-172.79c.16-.81.94-1.35 1.76-1.18.81.16 1.34.95 1.18 1.76l-33.75 172.79c-.14.72-.76 1.21-1.47 1.21z" fill="#052451"/><path d="m623.15 582.42c-.77 0-1.43-.6-1.49-1.38l-13.02-164.57c-.07-.83.55-1.55 1.38-1.61.83-.07 1.55.55 1.61 1.38l13.02 164.57c.07.83-.55 1.55-1.38 1.61-.04-.01-.08 0-.12 0z" fill="#052451"/><path d="m991.71 1815.7c-7.98 0-14.45-6.47-14.45-14.45v-477.11c0-7.98 6.47-14.45 14.45-14.45 7.98 0 14.45 6.47 14.45 14.45v477.11c-.01 7.98-6.47 14.45-14.45 14.45z" fill="#f74f43"/><path d="m1325.29 1815.7c-7.98 0-14.45-6.47-14.45-14.45v-477.11c0-7.98 6.47-14.45 14.45-14.45 7.98 0 14.45 6.47 14.45 14.45v477.11c0 7.98-6.47 14.45-14.45 14.45z" fill="#f74f43"/><path d="m1391.91 1339.99h-421.65c-16.73 0-30.29-13.56-30.29-30.29 0-16.73 13.56-30.29 30.29-30.29h421.65c16.73 0 30.29 13.56 30.29 30.29 0 16.73-13.56 30.29-30.29 30.29z" fill="#bac9fb"/><path d="m1434.96 367.58c0 39.4-31.78 72.12-71.16 73.2-15.03.41-29.08-3.7-40.87-11.1l-28.34 22.42 11.59-36.83c-11.59-13.48-18.35-31.22-17.62-50.54 1.44-38.14 32.53-69.08 70.68-70.34 41.58-1.37 75.72 31.93 75.72 73.19z" fill="#bac9fb"/><circle cx="1361.73" cy="369.91" fill="#fff" r="6.61"/><circle cx="1404.16" cy="369.91" fill="#fff" r="6.61"/><circle cx="1324.93" cy="369.91" fill="#fff" r="6.61"/><path d="m469.52 1560.41 142.34-36.67-40.46 199.38c-4.53 2.48-9.71 3.94-15.19 4.11l-194.95 5.88c-10.72.33-20.3-5.6-25.04-14.62-1.23-2.34-2.15-4.9-2.65-7.61l119-75.85z" fill="#bac9fb"/><path d="m571.39 1723.13-.28 8.22c-.61 17.88-14.99 32.22-32.89 32.76l-194.95 5.88c-10.72.33-20.3-5.6-25.04-14.62-1.45-2.77-2.45-5.82-2.88-9.08-1.79-13.37 4.36-26.56 15.73-33.82l2.47-1.58c.51 2.71 1.42 5.27 2.65 7.61 4.74 9.02 14.32 14.95 25.04 14.62l194.95-5.88c5.49-.17 10.66-1.63 15.2-4.11z" fill="#052451"/><circle cx="502.07" cy="1674.01" fill="#052451" r="25.72"/><path d="m830.69 1567.35 106.7-101.09 61.3 193.99c-2.76 4.37-6.58 8.15-11.29 10.96l-167.65 99.68c-9.22 5.49-20.47 4.95-28.99-.65-2.21-1.45-4.25-3.24-6.01-5.37l67.29-124.04z" fill="#bac9fb"/><path d="m998.69 1660.26 3.74 7.32c8.14 15.93 2.52 35.45-12.88 44.59l-167.65 99.68c-9.22 5.49-20.47 4.95-28.99-.65-2.61-1.71-4.97-3.9-6.93-6.54-8.05-10.83-9.07-25.34-2.64-37.21l1.4-2.58c1.76 2.12 3.8 3.92 6.01 5.37 8.52 5.59 19.77 6.14 28.99.65l167.65-99.68c4.73-2.8 8.54-6.58 11.3-10.95z" fill="#052451"/><circle cx="914.25" cy="1650.91" fill="#052451" r="25.72"/><path d="m1339.74 1036.95-15.01 168.29c-1.77 19.87-9.45 38.76-22.04 54.24-8.24 10.12-18.29 18.44-29.53 24.59-11.23 6.16-23.64 10.15-36.61 11.65l-322.68 37.16 77.66 249.34-177.14 30.26-95.41-285.7-114.92 285.7h-161.12l90.95-409.31c2.79-12.53 7.49-24.46 13.9-35.4 6.4-10.94 14.49-20.89 24.05-29.46 20.57-18.44 46.74-29.41 74.31-31.15l351.54-22.15 196.32-13.83z" fill="#052451"/><path d="m719.4 1330.93-15.56-44.79c-10.65-30.65-5.82-64.76 12.92-91.25 14.61-20.66 36.28-34.97 61.01-40.31l385.64-83.23.84 3.91-385.64 83.23c-23.75 5.13-44.56 18.87-58.59 38.71-17.99 25.44-22.63 58.2-12.41 87.63l15.56 44.79z" fill="#bac9fb"/><path d="m765.12 600.59-18.42-70.69s43.12-51.86 32.83-59.57-17.51-.09-22.26 4.46c-1.97 1.89-4.96 4.86-7.78 7.7-2.99 3.01-8.13 1.13-8.48-3.1-2.04-24.83-7.71-84.19-15.82-90.28-10.29-7.71-20.38-1.58-21.27 9.41 0 0-2.77-13.85-11.09-16.82-8.31-2.97-15.83 3.17-14.24 16.23 0 0-5.05-4.65-12.07-1.18s-4.74 17.42-4.74 17.42-8.11-4.55-13.85 5.35c-3.2 5.52 18.7 121.13 38.71 222.38 30.08-15.81 48.4-25.48 78.48-41.31z" fill="#f4a88e"/><path d="m702.19 396.93c2.87 17.33 5.44 34.71 7.71 52.13.28 2.11 3.61 1.96 3.33-.17-2.27-17.41-4.84-34.8-7.71-52.13-.35-2.09-3.68-1.95-3.33.17z" fill="#052451"/><path d="m676.61 397.68c2.57 14.8 6.06 29.43 8.71 44.21.65 3.62 1.26 7.24 1.7 10.89.26 2.12 3.59 1.96 3.33-.17-1.83-14.91-5.39-29.62-8.35-44.33-.72-3.58-1.43-7.17-2.06-10.77-.36-2.09-3.69-1.95-3.33.17z" fill="#052451"/><path d="m660.24 413.8c2.62 13.2 6.27 26.18 8.82 39.4.57 2.94 1.11 5.91 1.35 8.9.18 2.13 3.51 1.97 3.33-.17-.51-6.17-1.97-12.31-3.3-18.35-1.59-7.26-3.33-14.48-5.01-21.71-.7-3.02-1.41-6.04-2.01-9.08-.43-2.12-3.6-1.08-3.18 1.01z" fill="#052451"/><path d="m697.73 513.78c.71-7.9 7.3-13.57 13.47-17.73 6.16-4.16 13.09-7.22 20.4-8.63 4.07-.78 8.3-1.02 12.43-.62 2.11.2 2.85-3.05.72-3.26-8.06-.77-16.13.51-23.65 3.51-7.51 2.99-14.94 7.51-20.46 13.49-3.21 3.48-5.74 7.73-6.17 12.53-.18 2.1 3.07 2.85 3.26.71z" fill="#052451"/><path d="m669.51 465.12c15.83-8.2 33.67-12.16 51.48-11.59 2.14.07 1.96-3.26-.17-3.33-18.4-.59-36.76 3.65-53.1 12.11-1.91.99-.1 3.79 1.79 2.81z" fill="#052451"/><path d="m1089.64 592.5-87.74 1.96c-27.93.63-54.03 14.07-70.75 36.46l-104.38 139.78-71.97-225.03-94.41 33.67 66.07 330.96c4.34 21.72 18.05 40.41 37.48 51.06 23.8 13.05 52.79 12.22 75.79-2.17l117.91-115.57 22.75 241.4h356.13l28.66-392.38c4.05-52.33-36.96-97.19-89.44-97.84z" fill="#f74f43"/><path d="m1091.3 931.47-30.16-10.23c-28.4-9.63-59.43-7.85-86.55 4.96l-44.05 20.82c-13.71 6.48-22.46 20.29-22.46 35.45h183.21v-51z" fill="#f4a88e"/><path d="m1091.3 984.49c-1.1 0-2-.9-2-2v-69.71c0-1.02.77-1.88 1.79-1.99l155.72-16.78 24.78-232.88c.12-1.1 1.11-1.89 2.2-1.78 1.1.12 1.89 1.1 1.78 2.2l-24.95 234.49c-.1.94-.84 1.68-1.78 1.78l-155.54 16.77v67.91c0 1.09-.89 1.99-2 1.99z" fill="#052451"/><path d="m957.63 845.61c-1.02 0-1.89-.77-1.99-1.81l-4.67-47.78c-.11-1.1.7-2.08 1.8-2.19 1.11-.1 2.08.7 2.19 1.8l4.67 47.78c.11 1.1-.7 2.08-1.8 2.19-.07.01-.13.01-.2.01z" fill="#052451"/><path d="m1227.31 427.46s9.46-32.64-7.14-53.91-61.35-34.12-92.39-27.2c0 0-26.59-29.18-33.01-27.2s-30.17 26.12-18.79 54.11c0 0-16.32-18-20.77-10.58s-8.41 25.72 9.89 53.41c18.3 27.7 143.42 81.6 143.42 81.6l27.7-31.16s12.36-17.8-8.91-39.07z" fill="#f74f43"/><path d="m1200.1 447.32 30.19 12.28c2.83 1.15 4.71 3.86 4.8 6.92l.71 24.08-35.83-10.65z" fill="#052451"/><path d="m1194.28 489.67s10.96-22.39 30.64-14.17c19.68 8.23 15.43 57.16-20.58 52.27l-.23 65.07c-.1 27.22-22.24 49.21-49.46 49.11-27.22-.1-49.21-22.24-49.11-49.46l.24-67.11z" fill="#f4a88e"/><path d="m1204.34 527.78-.04 11.1s-27.23 73.81-98.76 53.61l-.98-41.74z" fill="#052451"/><path d="m1064.58 449.78s-9.11 76.11 6.42 105.39c15.53 29.29 101.13 43.87 133.34-27.39l.26-72.06z" fill="#f4a88e"/><path d="m1195.06 489.37-64.29.8c-4.11.05-8.12-1.29-11.37-3.79l-1.15-.88c-6.91-5.33-16.63-5.02-23.19.74-3.27 2.87-7.46 4.48-11.82 4.53l-13.41.17c-3.73.05-7.18-1.98-8.95-5.27l-7.68-14.24c-.77-1.43-1.18-3.02-1.2-4.63l-.52-41.94c-.07-5.54 4.36-10.08 9.9-10.15l112.81-1.4c1.49-.02 2.96.29 4.31.92l20.04 9.22c3.52 1.62 5.79 5.11 5.84 8.99l.58 46.81c.07 5.5-4.37 10.05-9.9 10.12z" fill="#052451"/><path d="m1173.66 472.79-119.73 1.49c-3.2.04-5.82-2.52-5.86-5.71l-.6-47.92c-.04-3.2 2.52-5.82 5.71-5.86l119.73-1.49c3.2-.04 5.82 2.52 5.86 5.71l.6 47.92c.04 3.2-2.51 5.82-5.71 5.86z" fill="#bac9fb"/><path d="m1205.12 480.88c-.05 0-.09.01-.14.01-.92.01-1.68-.73-1.69-1.65l-.39-31.3c-.01-.92.73-1.68 1.65-1.69s1.68.73 1.69 1.65l.39 31.3c.01.87-.66 1.59-1.51 1.68z" fill="#bac9fb"/><path d="m1220.07 487.95c-3.07 1.9-5.48 4.87-7.31 7.95-1.79 3.01-2.99 6.39-3.53 9.85-.33 2.12 2.94 2.75 3.28.63.49-3.12 1.54-6.08 3.13-8.81 1.56-2.68 3.69-5.24 6.35-6.88 1.81-1.13-.1-3.86-1.92-2.74z" fill="#052451"/><path d="m1214.64 497.39c.08.04.57.28.16.07.14.07.26.19.38.28.12.1.24.2.35.31.06.06.11.11.17.17-.15-.17-.17-.19-.05-.05.2.25.39.5.57.77.09.14.16.27.24.41.17.29-.14-.3.04.1.31.67.54 1.37.71 2.09.02.07.15.68.07.28.04.19.08.39.11.58.07.39.14.77.2 1.16.14.86.85 1.65 1.79 1.53.83-.1 1.68-.87 1.53-1.79-.3-1.76-.58-3.59-1.39-5.2-.78-1.56-1.87-2.9-3.45-3.71-.77-.4-1.88-.03-2.23.78-.34.85-.02 1.79.8 2.22z" fill="#052451"/><path d="m1096.24 514.11c-1.48-1.36-2.11-3.47-2.64-5.35-.56-2.02-.81-4.24.21-6.16 1.01-1.9 2.98-2.11 4.93-2.21 2.65-.14 5.3-.16 7.94-.05.9.04 1.59-.97 1.53-1.79-.08-.99-.89-1.49-1.79-1.53-3.07-.12-6.21-.18-9.26.15-2.82.3-5.19 1.6-6.46 4.21-1.27 2.6-1.03 5.52-.31 8.23.68 2.58 1.69 5.2 3.69 7.04 1.58 1.45 3.74-1.09 2.16-2.54z" fill="#052451"/><path d="m1160.6 520.38c2.46 8.49-2.42 21.51-14.67 24.37-18.79 4.39-23.88-7.86-25.47-16.25z" fill="#fff"/><path d="m1487.9 841.36c-3.86 13.14-20.55 17.83-30.15 8.06-2.76-2.81-4.61-6.49-4.63-11.32-.08-19.32 30.83-51.84 40.84-47.2 6.6 3.06-.48 31.48-6.06 50.46z" fill="#40ad6d"/><path d="m1363.28 847.47c7.59 11.39 24.92 10.91 31.18-1.26 1.8-3.5 2.47-7.57 1.06-12.19-5.67-18.47-44.85-40.34-53.02-32.94-5.39 4.89 9.82 29.92 20.78 46.39z" fill="#40ad6d"/><path d="m1408.36 718.08s-8.33-4.29-13.87 15.44c-5.53 19.73-9.54 84.68 8.65 98.18 18.19 13.49 40.05 8.75 50.34-11.14s-11.1-91.33-45.12-102.48z" fill="#40ad6d"/><path d="m1409.03 728.01c4.77 18.92 8.31 38.16 10.83 57.51 2.6 19.93 4.12 40.01 4.35 60.11.12 10.75-.14 21.5-.88 32.23 1.05-.21 2.1-.43 3.15-.64-.36-.62-.73-1.24-1.09-1.85-1.09-1.84-4.07-.36-2.98 1.49.36.62.73 1.24 1.09 1.85.81 1.38 3.04 1.09 3.15-.64 1.35-19.6 1.11-39.29-.17-58.89-1.31-20.05-3.75-40.03-7.31-59.8-1.93-10.74-4.21-21.43-6.88-32.01-.51-2.08-3.78-1.44-3.26.64z" fill="#052451"/><path d="m1350.37 808.67c16.4 15.87 29.93 34.57 39.82 55.14 2.8 5.81 5.29 11.75 7.5 17.81.73 2.01 3.71.5 2.98-1.49-7.88-21.62-19.6-41.81-34.45-59.38-4.21-4.99-8.68-9.76-13.38-14.3-1.52-1.49-4.02.72-2.47 2.22z" fill="#052451"/><path d="m1486.27 798.65c-12.03 18.67-21.96 38.69-29.53 59.57-2.14 5.9-4.08 11.86-5.83 17.88-.6 2.06 2.56 3.12 3.16 1.05 6.17-21.13 14.68-41.56 25.42-60.78 3.02-5.4 6.21-10.71 9.57-15.91 1.16-1.79-1.63-3.62-2.79-1.81z" fill="#052451"/><path d="m1460.26 902.36c4.92 0 8.65 4.44 7.8 9.29l-11.48 65.61c-.66 3.79-3.95 6.55-7.8 6.55l-57.91.02c-3.95 0-7.3-2.91-7.84-6.82l-9.19-65.34-.04-.27c-.67-4.76 3.03-9.02 7.84-9.02z" fill="#bac9fb"/><path d="m1469.69 902.36-1.63 9.29-94.22.03-1.3-9.29z" fill="#052451"/><path d="m1469.5 902.36-96.65.03c-8.85 0-16.03-7.17-16.04-16.02v-3.57c0-8.85 7.17-16.03 16.03-16.04l96.65-.03c8.85 0 16.03 7.17 16.04 16.02v3.57c0 8.86-7.18 16.04-16.03 16.04z" fill="#bac9fb"/><path d="m1061.13 967.63c0 8.21-6.65 14.86-14.86 14.86h-444.01c-4.36 0-8.12-3.06-9-7.32l-47.31-227.05c-1.18-5.71 3.17-11.07 9-11.07h337.15c4.35 0 8.11 3.06 9 7.33l40.95 196.56c1.44 6.89 7.51 11.83 14.55 11.83h89.66c8.22 0 14.87 6.65 14.87 14.86z" fill="#052451"/><path d="m527.79 982.49h30.71v833.21h-30.71z" fill="#f74f43"/><path d="m1484.96 982.49h30.71v833.21h-30.71z" fill="#f74f43"/><path d="m499.35 982.49h1104.23v33.37h-1104.23z" fill="#d8b91d"/></svg>