<svg fill="none" viewBox="0 0 162 25" xmlns="http://www.w3.org/2000/svg"><g fill="#fff"><path d="m24.3361 12.6311c0 6.7114-5.3947 12.1524-12.0496 12.1524s-12.049195-5.4393-12.049195-12.1524c0-6.71316 5.394705-12.152096 12.049195-12.152096 6.6545 0 12.0496 5.440576 12.0496 12.152096z"/><path d="m37.5547 12.6312c0 6.3181-2.6975 11.4394-6.0248 11.4394-3.3272 0-6.0248-5.123-6.0248-11.4394 0-6.31636 2.6976-11.43931 6.0248-11.43931 3.3273 0 6.0248 5.12295 6.0248 11.43931z"/><path d="m42.9612 12.6313c0 5.6606-.9488 10.2491-2.119 10.2491s-2.1191-4.5901-2.1191-10.2491c0-5.65906.9489-10.24922 2.1195-10.24922s2.1186 4.58893 2.1186 10.24922z"/></g></svg>